<svg width="45" height="45" viewBox="0 0 45 45" fill="none" xmlns="http://www.w3.org/2000/svg">
<rect x="5.625" y="5.625" width="33.75" height="33.75" fill="#2F2F46"/>
<path d="M36.9141 3.16406H8.08594C6.78058 3.16406 5.52868 3.68262 4.60565 4.60565C3.68262 5.52868 3.16406 6.78058 3.16406 8.08594V36.9141C3.16406 38.2194 3.68262 39.4713 4.60565 40.3944C5.52868 41.3174 6.78058 41.8359 8.08594 41.8359H36.9141C38.2194 41.8359 39.4713 41.3174 40.3944 40.3944C41.3174 39.4713 41.8359 38.2194 41.8359 36.9141V8.08594C41.8359 6.78058 41.3174 5.52868 40.3944 4.60565C39.4713 3.68262 38.2194 3.16406 36.9141 3.16406ZM31.5869 22.8029C30.6245 24.9164 28.6481 25.7062 25.4563 26.0336C26.4909 26.684 26.7882 27.5006 26.7882 29.7103C26.7882 31.9199 26.7577 32.2167 26.7652 32.7243C26.7765 33.5584 27.9997 33.9579 27.9534 34.2265C27.9069 34.4936 18.0129 34.4125 18.0129 34.2448C18.0129 33.8208 19.2041 33.5725 19.2041 32.69C19.2041 31.9253 19.1879 29.9584 19.1879 29.9584C18.7056 30.0303 18.2185 30.0649 17.7309 30.0619C15.5713 30.0619 14.8885 28.685 14.5631 27.9151C14.1407 26.9115 13.5928 26.4399 13.0098 26.0633C12.6522 25.8315 12.5704 25.5585 12.9835 25.481C14.8947 25.1206 15.3833 27.6464 16.66 28.0496C17.5707 28.3365 18.7424 28.2118 19.325 27.8358C19.4022 27.0649 19.9588 26.3969 20.4223 26.0452C17.1753 25.7342 15.2509 24.6077 14.2523 22.7962C14.2396 22.7962 13.7823 21.8118 13.8204 21.8118C13.5083 20.8927 13.3697 19.84 13.369 18.6623C13.369 16.5744 14.0204 15.787 14.8942 14.6735C14.2262 12.2927 15.1341 10.6657 15.1341 10.6657C15.1341 10.6657 16.5397 10.3743 19.1958 12.2754C20.6355 11.659 24.4746 11.6084 26.2896 12.1387C27.4042 11.403 29.443 10.3583 30.2658 10.6507C30.4885 11.0093 30.9683 12.0528 30.5575 14.3486C30.8363 14.8517 32.2876 15.9236 32.2929 18.9558C32.2711 20.0735 32.1534 21.0175 31.9376 21.8156C31.9795 21.8157 31.6617 22.8045 31.5869 22.8029Z" fill="#3BBA9C"/>
</svg>
