<svg width="45" height="45" viewBox="0 0 45 45" fill="none" xmlns="http://www.w3.org/2000/svg">
<rect x="7" y="7" width="30" height="31" fill="#2F2F46"/>
<path d="M35.625 5.625C36.6196 5.625 37.5734 6.02009 38.2766 6.72335C38.9799 7.42661 39.375 8.38044 39.375 9.375V35.625C39.375 36.6196 38.9799 37.5734 38.2766 38.2766C37.5734 38.9799 36.6196 39.375 35.625 39.375H9.375C8.38044 39.375 7.42661 38.9799 6.72335 38.2766C6.02009 37.5734 5.625 36.6196 5.625 35.625V9.375C5.625 8.38044 6.02009 7.42661 6.72335 6.72335C7.42661 6.02009 8.38044 5.625 9.375 5.625H35.625ZM34.6875 34.6875V24.75C34.6875 23.1289 34.0435 21.5741 32.8972 20.4278C31.7509 19.2815 30.1961 18.6375 28.575 18.6375C26.9812 18.6375 25.125 19.6125 24.225 21.075V18.9938H18.9938V34.6875H24.225V25.4437C24.225 24 25.3875 22.8188 26.8313 22.8188C27.5274 22.8188 28.1951 23.0953 28.6874 23.5876C29.1797 24.0799 29.4562 24.7476 29.4562 25.4437V34.6875H34.6875ZM12.9 16.05C13.7354 16.05 14.5366 15.7181 15.1274 15.1274C15.7181 14.5366 16.05 13.7354 16.05 12.9C16.05 11.1562 14.6438 9.73125 12.9 9.73125C12.0596 9.73125 11.2536 10.0651 10.6594 10.6594C10.0651 11.2536 9.73125 12.0596 9.73125 12.9C9.73125 14.6438 11.1562 16.05 12.9 16.05ZM15.5063 34.6875V18.9938H10.3125V34.6875H15.5063Z" fill="#3BBA9C"/>
</svg>
