<svg width="28" height="28" viewBox="0 0 28 28" fill="none" xmlns="http://www.w3.org/2000/svg">
<path d="M13.9997 13.4168C13.2261 13.4168 12.4843 13.1095 11.9373 12.5626C11.3903 12.0156 11.083 11.2737 11.083 10.5002C11.083 9.72661 11.3903 8.98475 11.9373 8.43777C12.4843 7.89079 13.2261 7.5835 13.9997 7.5835C14.7732 7.5835 15.5151 7.89079 16.0621 8.43777C16.6091 8.98475 16.9163 9.72661 16.9163 10.5002C16.9163 10.8832 16.8409 11.2625 16.6943 11.6163C16.5477 11.9702 16.3329 12.2917 16.0621 12.5626C15.7912 12.8334 15.4697 13.0482 15.1158 13.1948C14.762 13.3414 14.3827 13.4168 13.9997 13.4168ZM13.9997 2.3335C11.8337 2.3335 9.75652 3.19391 8.22497 4.72546C6.69342 6.257 5.83301 8.33423 5.83301 10.5002C5.83301 16.6252 13.9997 25.6668 13.9997 25.6668C13.9997 25.6668 22.1663 16.6252 22.1663 10.5002C22.1663 8.33423 21.3059 6.257 19.7744 4.72546C18.2428 3.19391 16.1656 2.3335 13.9997 2.3335Z" fill="white"/>
</svg>
