<svg width="40" height="40" viewBox="0 0 40 40" fill="none" xmlns="http://www.w3.org/2000/svg">
<circle cx="20" cy="20" r="20" fill="#3BBA9C"/>
<path d="M20 16.75C19.138 16.75 18.3114 17.0924 17.7019 17.7019C17.0924 18.3114 16.75 19.138 16.75 20C16.75 20.862 17.0924 21.6886 17.7019 22.2981C18.3114 22.9076 19.138 23.25 20 23.25C20.862 23.25 21.6886 22.9076 22.2981 22.2981C22.9076 21.6886 23.25 20.862 23.25 20C23.25 19.138 22.9076 18.3114 22.2981 17.7019C21.6886 17.0924 20.862 16.75 20 16.75Z" fill="white"/>
<path fill-rule="evenodd" clip-rule="evenodd" d="M14.77 11.082C18.246 10.6969 21.754 10.6969 25.23 11.082C27.129 11.294 28.66 12.789 28.883 14.695C29.2949 18.2197 29.2949 21.7803 28.883 25.305C28.66 27.211 27.129 28.706 25.231 28.919C21.7546 29.3042 18.2464 29.3042 14.77 28.919C12.871 28.706 11.34 27.211 11.117 25.306C10.705 21.781 10.705 18.22 11.117 14.695C11.34 12.789 12.871 11.294 14.77 11.082ZM25 14C24.7348 14 24.4804 14.1054 24.2929 14.2929C24.1054 14.4804 24 14.7348 24 15C24 15.2652 24.1054 15.5196 24.2929 15.7071C24.4804 15.8947 24.7348 16 25 16C25.2652 16 25.5196 15.8947 25.7071 15.7071C25.8946 15.5196 26 15.2652 26 15C26 14.7348 25.8946 14.4804 25.7071 14.2929C25.5196 14.1054 25.2652 14 25 14ZM15.25 20C15.25 18.7402 15.7504 17.5321 16.6412 16.6413C17.532 15.7505 18.7402 15.25 20 15.25C21.2598 15.25 22.468 15.7505 23.3588 16.6413C24.2496 17.5321 24.75 18.7402 24.75 20C24.75 21.2598 24.2496 22.468 23.3588 23.3588C22.468 24.2496 21.2598 24.75 20 24.75C18.7402 24.75 17.532 24.2496 16.6412 23.3588C15.7504 22.468 15.25 21.2598 15.25 20Z" fill="white"/>
</svg>
