<svg width="214" height="66" viewBox="0 0 214 66" fill="none" xmlns="http://www.w3.org/2000/svg">
<rect x="0.5" width="213" height="66" rx="10" fill="black"/>
<g clip-path="url(#clip0_85_1184)">
<path d="M43.9479 22.805C44.9237 21.8344 44.9237 20.2528 43.9479 19.2822L40.3582 15.6923L40.3634 15.6974C39.4133 14.7474 37.7801 13.1142 35.4692 10.8084C34.3805 9.74524 32.6191 9.75559 31.5404 10.8341L11.3165 31.0427C11.0578 31.2997 10.8524 31.6053 10.7123 31.942C10.5722 32.2786 10.5001 32.6397 10.5001 33.0044C10.5001 33.369 10.5722 33.7301 10.7123 34.0668C10.8524 34.4035 11.0578 34.7091 11.3165 34.9661L31.5354 55.1697C32.0567 55.69 32.7631 55.9823 33.4997 55.9823C34.2363 55.9823 34.9427 55.69 35.464 55.1697L43.943 46.6959C44.9185 45.7253 44.9185 44.1435 43.943 43.1729C43.4743 42.7065 42.84 42.4447 42.1789 42.4447C41.5177 42.4447 40.8834 42.7065 40.4148 43.1729L33.9953 49.6025C33.7283 49.8697 33.3122 49.8697 33.0452 49.6025L16.8938 33.4665C16.6266 33.1995 16.6266 32.7836 16.8938 32.5166L33.04 16.3805C33.0605 16.3598 33.0862 16.3445 33.1069 16.324C33.3739 16.1134 33.7436 16.1339 33.9901 16.3805L40.4199 22.8052C41.3955 23.7808 42.9773 23.7806 43.9479 22.805ZM28.1458 33.1071C28.1458 34.5536 28.7209 35.9409 29.7447 36.9638C30.7685 37.9866 32.1571 38.5613 33.6049 38.5613C35.0528 38.5613 36.4413 37.9866 37.4651 36.9638C38.4889 35.9409 39.0641 34.5536 39.0641 33.1071C39.0641 31.6606 38.4889 30.2733 37.4651 29.2504C36.4413 28.2276 35.0528 27.6529 33.6049 27.6529C32.1571 27.6529 30.7685 28.2276 29.7447 29.2504C28.7209 30.2733 28.1458 31.6606 28.1458 33.1071ZM55.6829 31.1247L49.3713 24.8438C48.3954 23.8734 46.8137 23.8734 45.8431 24.8491C45.6112 25.0801 45.4271 25.3546 45.3015 25.6569C45.1759 25.9591 45.1113 26.2832 45.1113 26.6106C45.1113 26.9379 45.1759 27.262 45.3015 27.5643C45.4271 27.8665 45.6112 28.141 45.8431 28.372L50.1056 32.6295C50.3726 32.8965 50.3726 33.3126 50.1056 33.5796L45.9047 37.7751C45.6726 38.0061 45.4885 38.2806 45.3629 38.5829C45.2373 38.8852 45.1726 39.2094 45.1726 39.5368C45.1726 39.8641 45.2373 40.1883 45.3629 40.4906C45.4885 40.7929 45.6726 41.0674 45.9047 41.2984C46.3733 41.7647 47.0076 42.0265 47.6688 42.0265C48.3299 42.0265 48.9642 41.7647 49.4329 41.2984L55.6879 35.0483C55.9458 34.7907 56.1502 34.4847 56.2896 34.1479C56.4289 33.8111 56.5004 33.4501 56.4999 33.0856C56.4995 32.7211 56.4271 32.3602 56.2869 32.0238C56.1467 31.6873 55.9414 31.3817 55.6829 31.1247Z" fill="white"/>
</g>
<path d="M69.1039 42.5H65.4476L72.1046 23.5909H76.3333L82.9995 42.5H79.3432L74.2928 27.4688H74.1451L69.1039 42.5ZM69.2239 35.0859H79.1955V37.8374H69.2239V35.0859ZM88.6847 34.1903V42.5H85.3423V28.3182H88.5369V30.728H88.7031C89.0294 29.9339 89.5495 29.303 90.2635 28.8352C90.9837 28.3674 91.8731 28.1335 92.9318 28.1335C93.9105 28.1335 94.763 28.3428 95.4893 28.7614C96.2218 29.1799 96.7881 29.7862 97.1882 30.5803C97.5945 31.3743 97.7945 32.3376 97.7884 33.4702V42.5H94.446V33.9872C94.446 33.0393 94.1998 32.2976 93.7074 31.7621C93.2211 31.2266 92.5471 30.9588 91.6854 30.9588C91.1006 30.9588 90.5805 31.0881 90.125 31.3466C89.6757 31.599 89.3217 31.9652 89.0632 32.4453C88.8108 32.9254 88.6847 33.5071 88.6847 34.1903ZM108.268 28.3182V30.9034H100.115V28.3182H108.268ZM102.128 24.9205H105.47V38.2344C105.47 38.6837 105.538 39.0284 105.673 39.2685C105.815 39.5024 106 39.6624 106.227 39.7486C106.455 39.8348 106.707 39.8778 106.984 39.8778C107.194 39.8778 107.384 39.8625 107.557 39.8317C107.735 39.8009 107.871 39.7732 107.963 39.7486L108.526 42.3615C108.348 42.4231 108.092 42.4908 107.76 42.5646C107.434 42.6385 107.034 42.6816 106.56 42.6939C105.723 42.7185 104.969 42.5923 104.298 42.3153C103.627 42.0322 103.094 41.5952 102.7 41.0043C102.313 40.4134 102.122 39.6747 102.128 38.7884V24.9205ZM124.068 42.5H117.66V23.5909H124.197C126.074 23.5909 127.687 23.9695 129.035 24.7266C130.389 25.4775 131.429 26.5578 132.156 27.9673C132.882 29.3769 133.245 31.0634 133.245 33.027C133.245 34.9967 132.879 36.6894 132.146 38.1051C131.42 39.5208 130.371 40.6072 128.998 41.3643C127.632 42.1214 125.988 42.5 124.068 42.5ZM121.085 39.5362H123.901C125.219 39.5362 126.317 39.2962 127.198 38.8161C128.078 38.3298 128.74 37.6065 129.183 36.6463C129.626 35.6799 129.847 34.4735 129.847 33.027C129.847 31.5805 129.626 30.3802 129.183 29.4261C128.74 28.4659 128.084 27.7488 127.216 27.2749C126.354 26.7947 125.283 26.5547 124.003 26.5547H121.085V39.5362ZM142.631 42.777C141.209 42.777 139.981 42.4815 138.947 41.8906C137.919 41.2936 137.128 40.4503 136.574 39.3608C136.02 38.2652 135.743 36.9756 135.743 35.4922C135.743 34.0334 136.02 32.7531 136.574 31.6513C137.134 30.5433 137.916 29.6816 138.919 29.0661C139.922 28.4444 141.101 28.1335 142.455 28.1335C143.329 28.1335 144.154 28.2751 144.93 28.5582C145.711 28.8352 146.401 29.2661 146.998 29.8509C147.601 30.4356 148.075 31.1804 148.42 32.0852C148.764 32.9839 148.937 34.0549 148.937 35.2983V36.3232H137.312V34.0703H145.733C145.727 33.4302 145.588 32.8608 145.317 32.3622C145.046 31.8575 144.668 31.4605 144.182 31.1712C143.702 30.8819 143.141 30.7372 142.501 30.7372C141.818 30.7372 141.218 30.9034 140.701 31.2358C140.184 31.562 139.781 31.9929 139.491 32.5284C139.208 33.0578 139.064 33.6394 139.057 34.2734V36.2401C139.057 37.0649 139.208 37.7727 139.51 38.3636C139.811 38.9484 140.233 39.3977 140.775 39.7116C141.316 40.0194 141.95 40.1733 142.677 40.1733C143.163 40.1733 143.603 40.1056 143.997 39.9702C144.391 39.8286 144.733 39.6224 145.022 39.3516C145.311 39.0807 145.53 38.7453 145.677 38.3452L148.798 38.696C148.601 39.5208 148.226 40.241 147.672 40.8565C147.124 41.4659 146.422 41.9399 145.567 42.2784C144.711 42.6108 143.732 42.777 142.631 42.777ZM162.973 32.0668L159.926 32.3991C159.84 32.0914 159.689 31.8021 159.474 31.5312C159.264 31.2604 158.981 31.0419 158.624 30.8757C158.267 30.7095 157.83 30.6264 157.313 30.6264C156.618 30.6264 156.033 30.7772 155.559 31.0788C155.091 31.3804 154.86 31.7713 154.866 32.2514C154.86 32.6638 155.011 32.9993 155.319 33.2578C155.633 33.5163 156.15 33.7287 156.87 33.8949L159.289 34.4119C160.631 34.7012 161.628 35.1598 162.281 35.7876C162.939 36.4155 163.272 37.2372 163.278 38.2528C163.272 39.1454 163.01 39.9332 162.493 40.6165C161.982 41.2936 161.271 41.8229 160.36 42.2045C159.449 42.5862 158.403 42.777 157.221 42.777C155.485 42.777 154.088 42.4138 153.029 41.6875C151.97 40.955 151.339 39.9363 151.136 38.6314L154.396 38.3175C154.543 38.9576 154.857 39.4408 155.337 39.767C155.817 40.0933 156.442 40.2564 157.212 40.2564C158.006 40.2564 158.643 40.0933 159.123 39.767C159.609 39.4408 159.852 39.0376 159.852 38.5575C159.852 38.1513 159.695 37.8158 159.381 37.5511C159.074 37.2865 158.594 37.0833 157.941 36.9418L155.522 36.4339C154.162 36.1508 153.155 35.6738 152.503 35.0028C151.85 34.3258 151.527 33.4702 151.533 32.4361C151.527 31.562 151.764 30.8049 152.244 30.1648C152.731 29.5185 153.405 29.0199 154.266 28.669C155.134 28.312 156.134 28.1335 157.267 28.1335C158.929 28.1335 160.237 28.4875 161.191 29.1953C162.151 29.9032 162.745 30.8603 162.973 32.0668ZM166.034 42.5V28.3182H169.376V42.5H166.034ZM167.714 26.3054C167.185 26.3054 166.729 26.13 166.348 25.7791C165.966 25.4221 165.775 24.9943 165.775 24.4957C165.775 23.991 165.966 23.5632 166.348 23.2124C166.729 22.8553 167.185 22.6768 167.714 22.6768C168.25 22.6768 168.705 22.8553 169.081 23.2124C169.462 23.5632 169.653 23.991 169.653 24.4957C169.653 24.9943 169.462 25.4221 169.081 25.7791C168.705 26.13 168.25 26.3054 167.714 26.3054ZM178.981 48.1136C177.78 48.1136 176.749 47.9505 175.888 47.6243C175.026 47.3042 174.333 46.8733 173.81 46.3317C173.287 45.79 172.924 45.1899 172.721 44.5312L175.731 43.8018C175.866 44.0788 176.063 44.3527 176.322 44.6236C176.58 44.9006 176.928 45.1283 177.365 45.3068C177.808 45.4915 178.365 45.5838 179.036 45.5838C179.984 45.5838 180.769 45.353 181.39 44.8913C182.012 44.4358 182.323 43.6849 182.323 42.6385V39.9517H182.157C181.984 40.2964 181.732 40.6503 181.4 41.0135C181.073 41.3767 180.64 41.6813 180.098 41.9276C179.562 42.1738 178.888 42.2969 178.076 42.2969C176.986 42.2969 175.998 42.0414 175.112 41.5305C174.232 41.0135 173.53 40.2441 173.007 39.2223C172.49 38.1944 172.231 36.9079 172.231 35.3629C172.231 33.8056 172.49 32.4915 173.007 31.4205C173.53 30.3433 174.235 29.5277 175.121 28.9737C176.008 28.4136 176.996 28.1335 178.085 28.1335C178.916 28.1335 179.599 28.2751 180.135 28.5582C180.676 28.8352 181.107 29.1707 181.427 29.5646C181.747 29.9524 181.991 30.3187 182.157 30.6634H182.341V28.3182H185.638V42.7308C185.638 43.9434 185.348 44.9467 184.77 45.7408C184.191 46.5348 183.4 47.1288 182.397 47.5227C181.394 47.9167 180.255 48.1136 178.981 48.1136ZM179.008 39.6747C179.716 39.6747 180.319 39.5024 180.818 39.1577C181.317 38.813 181.695 38.3175 181.954 37.6712C182.212 37.0249 182.341 36.2493 182.341 35.3445C182.341 34.4519 182.212 33.6702 181.954 32.9993C181.701 32.3284 181.326 31.8082 180.827 31.4389C180.335 31.0634 179.729 30.8757 179.008 30.8757C178.264 30.8757 177.642 31.0696 177.143 31.4574C176.645 31.8452 176.269 32.3776 176.017 33.0547C175.765 33.7256 175.638 34.4889 175.638 35.3445C175.638 36.2124 175.765 36.9725 176.017 37.625C176.275 38.2713 176.654 38.776 177.153 39.1392C177.657 39.4962 178.276 39.6747 179.008 39.6747ZM192.405 34.1903V42.5H189.063V28.3182H192.258V30.728H192.424C192.75 29.9339 193.27 29.303 193.984 28.8352C194.704 28.3674 195.594 28.1335 196.653 28.1335C197.631 28.1335 198.484 28.3428 199.21 28.7614C199.943 29.1799 200.509 29.7862 200.909 30.5803C201.315 31.3743 201.515 32.3376 201.509 33.4702V42.5H198.167V33.9872C198.167 33.0393 197.921 32.2976 197.428 31.7621C196.942 31.2266 196.268 30.9588 195.406 30.9588C194.821 30.9588 194.301 31.0881 193.846 31.3466C193.396 31.599 193.042 31.9652 192.784 32.4453C192.532 32.9254 192.405 33.5071 192.405 34.1903Z" fill="white"/>
<defs>
<clipPath id="clip0_85_1184">
<rect width="46" height="46" fill="white" transform="translate(10.5 10)"/>
</clipPath>
</defs>
</svg>
