<svg width="195" height="66" viewBox="0 0 195 66" fill="none" xmlns="http://www.w3.org/2000/svg">
<rect width="195" height="66" rx="10" fill="#7532FA"/>
<path d="M32.5592 31.5433H29.0823V25.7204H33.207C35.4495 25.7204 36.7222 26.7209 36.7222 28.5303C36.7222 30.4623 35.2406 31.5433 32.5553 31.5433H32.5592ZM33.1802 33.8548H29.0842V40.2718H33.3603C36.1567 40.2718 37.6383 39.1505 37.6383 37.0422C37.6383 34.9339 36.1146 33.8548 33.1802 33.8548ZM56 31.8308V34.1653C53.838 34.3723 52.5174 35.9746 51.7335 38.5123C50.9534 41.0404 50.8461 44.1415 50.9285 46.5354C51.0147 49.0271 49.0732 51.3271 46.4492 51.3271H19.5546C16.9288 51.3271 14.9872 49.0271 15.0753 46.5354C15.1578 44.1415 15.0504 41.0404 14.2703 38.5123C13.4845 35.9746 12.162 34.3723 10 34.1653V31.8308C12.162 31.6238 13.4864 30.0214 14.2684 27.4838C15.0504 24.9557 15.1578 21.8545 15.0734 19.4606C14.9872 16.9689 16.9288 14.6689 19.5546 14.6689H46.4492C49.0751 14.6689 51.0147 16.9689 50.9285 19.4606C50.8461 21.8545 50.9534 24.9557 51.7335 27.4838C52.5174 30.0214 53.838 31.6238 56 31.8308ZM40.8066 37.23C40.8066 34.6349 38.98 32.7584 36.2679 32.4614V32.3521C38.2612 32.0282 39.8252 30.1767 39.8252 28.1105C39.8252 25.1646 37.5003 23.246 33.9564 23.246H25.9831V42.7424H33.9967C38.2478 42.7424 40.8066 40.6609 40.8066 37.23Z" fill="white"/>
<path d="M65.9754 42.5V23.5909H73.214C74.5805 23.5909 75.7162 23.8063 76.621 24.2372C77.532 24.6619 78.2122 25.2436 78.6615 25.9822C79.117 26.7209 79.3447 27.558 79.3447 28.4936C79.3447 29.263 79.197 29.9216 78.9015 30.4695C78.6061 31.0111 78.2091 31.4512 77.7105 31.7898C77.2119 32.1283 76.6549 32.3714 76.0393 32.5192V32.7038C76.7103 32.7408 77.3535 32.947 77.969 33.3224C78.5907 33.6918 79.0985 34.215 79.4925 34.892C79.8864 35.5691 80.0834 36.3878 80.0834 37.348C80.0834 38.3267 79.8464 39.2069 79.3724 39.9886C78.8985 40.7642 78.1845 41.3767 77.2304 41.826C76.2763 42.2753 75.076 42.5 73.6295 42.5H65.9754ZM69.4008 39.6378H73.0848C74.3282 39.6378 75.2238 39.4008 75.7716 38.9268C76.3256 38.4467 76.6025 37.8312 76.6025 37.0803C76.6025 36.5201 76.464 36.0154 76.1871 35.5661C75.9101 35.1106 75.5161 34.7536 75.0052 34.495C74.4943 34.2304 73.885 34.098 73.1771 34.098H69.4008V39.6378ZM69.4008 31.6328H72.7893C73.3802 31.6328 73.9127 31.5251 74.3866 31.3097C74.8606 31.0881 75.233 30.7772 75.5038 30.3771C75.7808 29.9709 75.9193 29.4908 75.9193 28.9368C75.9193 28.2043 75.6608 27.6011 75.1437 27.1271C74.6328 26.6532 73.8727 26.4162 72.8632 26.4162H69.4008V31.6328ZM89.1017 42.777C87.7167 42.777 86.5164 42.4723 85.5008 41.8629C84.4852 41.2536 83.6973 40.401 83.1372 39.3054C82.5832 38.2098 82.3062 36.9295 82.3062 35.4645C82.3062 33.9995 82.5832 32.7161 83.1372 31.6143C83.6973 30.5125 84.4852 29.657 85.5008 29.0476C86.5164 28.4382 87.7167 28.1335 89.1017 28.1335C90.4866 28.1335 91.6869 28.4382 92.7025 29.0476C93.7181 29.657 94.5029 30.5125 95.0569 31.6143C95.617 32.7161 95.8971 33.9995 95.8971 35.4645C95.8971 36.9295 95.617 38.2098 95.0569 39.3054C94.5029 40.401 93.7181 41.2536 92.7025 41.8629C91.6869 42.4723 90.4866 42.777 89.1017 42.777ZM89.1201 40.0994C89.8711 40.0994 90.4989 39.8932 91.0036 39.4808C91.5084 39.0623 91.8838 38.5021 92.1301 37.8004C92.3824 37.0987 92.5086 36.317 92.5086 35.4553C92.5086 34.5874 92.3824 33.8026 92.1301 33.1009C91.8838 32.393 91.5084 31.8298 91.0036 31.4112C90.4989 30.9927 89.8711 30.7834 89.1201 30.7834C88.3507 30.7834 87.7106 30.9927 87.1997 31.4112C86.6949 31.8298 86.3164 32.393 86.064 33.1009C85.8178 33.8026 85.6947 34.5874 85.6947 35.4553C85.6947 36.317 85.8178 37.0987 86.064 37.8004C86.3164 38.5021 86.6949 39.0623 87.1997 39.4808C87.7106 39.8932 88.3507 40.0994 89.1201 40.0994ZM104.92 42.777C103.535 42.777 102.335 42.4723 101.319 41.8629C100.304 41.2536 99.5157 40.401 98.9555 39.3054C98.4015 38.2098 98.1246 36.9295 98.1246 35.4645C98.1246 33.9995 98.4015 32.7161 98.9555 31.6143C99.5157 30.5125 100.304 29.657 101.319 29.0476C102.335 28.4382 103.535 28.1335 104.92 28.1335C106.305 28.1335 107.505 28.4382 108.521 29.0476C109.536 29.657 110.321 30.5125 110.875 31.6143C111.435 32.7161 111.715 33.9995 111.715 35.4645C111.715 36.9295 111.435 38.2098 110.875 39.3054C110.321 40.401 109.536 41.2536 108.521 41.8629C107.505 42.4723 106.305 42.777 104.92 42.777ZM104.938 40.0994C105.689 40.0994 106.317 39.8932 106.822 39.4808C107.327 39.0623 107.702 38.5021 107.948 37.8004C108.201 37.0987 108.327 36.317 108.327 35.4553C108.327 34.5874 108.201 33.8026 107.948 33.1009C107.702 32.393 107.327 31.8298 106.822 31.4112C106.317 30.9927 105.689 30.7834 104.938 30.7834C104.169 30.7834 103.529 30.9927 103.018 31.4112C102.513 31.8298 102.135 32.393 101.882 33.1009C101.636 33.8026 101.513 34.5874 101.513 35.4553C101.513 36.317 101.636 37.0987 101.882 37.8004C102.135 38.5021 102.513 39.0623 103.018 39.4808C103.529 39.8932 104.169 40.0994 104.938 40.0994ZM121.634 28.3182V30.9034H113.481V28.3182H121.634ZM115.494 24.9205H118.836V38.2344C118.836 38.6837 118.904 39.0284 119.04 39.2685C119.181 39.5024 119.366 39.6624 119.593 39.7486C119.821 39.8348 120.074 39.8778 120.351 39.8778C120.56 39.8778 120.751 39.8625 120.923 39.8317C121.102 39.8009 121.237 39.7732 121.329 39.7486L121.892 42.3615C121.714 42.4231 121.459 42.4908 121.126 42.5646C120.8 42.6385 120.4 42.6816 119.926 42.6939C119.089 42.7185 118.335 42.5923 117.664 42.3153C116.993 42.0322 116.46 41.5952 116.066 41.0043C115.679 40.4134 115.488 39.6747 115.494 38.7884V24.9205ZM135.435 32.0668L132.388 32.3991C132.302 32.0914 132.151 31.8021 131.936 31.5312C131.726 31.2604 131.443 31.0419 131.086 30.8757C130.729 30.7095 130.292 30.6264 129.775 30.6264C129.08 30.6264 128.495 30.7772 128.021 31.0788C127.553 31.3804 127.322 31.7713 127.328 32.2514C127.322 32.6638 127.473 32.9993 127.781 33.2578C128.095 33.5163 128.612 33.7287 129.332 33.8949L131.751 34.4119C133.093 34.7012 134.09 35.1598 134.742 35.7876C135.401 36.4155 135.733 37.2372 135.74 38.2528C135.733 39.1454 135.472 39.9332 134.955 40.6165C134.444 41.2936 133.733 41.8229 132.822 42.2045C131.911 42.5862 130.865 42.777 129.683 42.777C127.947 42.777 126.55 42.4138 125.491 41.6875C124.432 40.955 123.801 39.9363 123.598 38.6314L126.858 38.3175C127.005 38.9576 127.319 39.4408 127.799 39.767C128.279 40.0933 128.904 40.2564 129.674 40.2564C130.468 40.2564 131.105 40.0933 131.585 39.767C132.071 39.4408 132.314 39.0376 132.314 38.5575C132.314 38.1513 132.157 37.8158 131.843 37.5511C131.536 37.2865 131.055 37.0833 130.403 36.9418L127.984 36.4339C126.624 36.1508 125.617 35.6738 124.965 35.0028C124.312 34.3258 123.989 33.4702 123.995 32.4361C123.989 31.562 124.226 30.8049 124.706 30.1648C125.193 29.5185 125.867 29.0199 126.728 28.669C127.596 28.312 128.596 28.1335 129.729 28.1335C131.391 28.1335 132.699 28.4875 133.653 29.1953C134.613 29.9032 135.207 30.8603 135.435 32.0668ZM145.577 28.3182V30.9034H137.425V28.3182H145.577ZM139.437 24.9205H142.78V38.2344C142.78 38.6837 142.847 39.0284 142.983 39.2685C143.124 39.5024 143.309 39.6624 143.537 39.7486C143.765 39.8348 144.017 39.8778 144.294 39.8778C144.503 39.8778 144.694 39.8625 144.866 39.8317C145.045 39.8009 145.18 39.7732 145.273 39.7486L145.836 42.3615C145.657 42.4231 145.402 42.4908 145.07 42.5646C144.743 42.6385 144.343 42.6816 143.869 42.6939C143.032 42.7185 142.278 42.5923 141.607 42.3153C140.936 42.0322 140.404 41.5952 140.01 41.0043C139.622 40.4134 139.431 39.6747 139.437 38.7884V24.9205ZM148.373 42.5V28.3182H151.613V30.6818H151.761C152.02 29.8632 152.463 29.2322 153.091 28.7891C153.725 28.3397 154.448 28.1151 155.26 28.1151C155.445 28.1151 155.651 28.1243 155.879 28.1428C156.113 28.1551 156.307 28.1766 156.461 28.2074V31.282C156.319 31.2327 156.094 31.1896 155.787 31.1527C155.485 31.1096 155.193 31.0881 154.91 31.0881C154.3 31.0881 153.752 31.2204 153.266 31.4851C152.786 31.7436 152.407 32.1037 152.13 32.5653C151.853 33.027 151.715 33.5594 151.715 34.1626V42.5H148.373ZM162.508 42.7862C161.61 42.7862 160.8 42.6262 160.08 42.3061C159.366 41.9799 158.8 41.4998 158.381 40.8658C157.969 40.2318 157.763 39.45 157.763 38.5206C157.763 37.7204 157.91 37.0587 158.206 36.5355C158.501 36.0123 158.904 35.5938 159.415 35.2798C159.926 34.9659 160.502 34.7289 161.142 34.5689C161.788 34.4027 162.456 34.2827 163.145 34.2088C163.976 34.1226 164.65 34.0457 165.167 33.978C165.684 33.9041 166.06 33.7933 166.294 33.6456C166.534 33.4917 166.654 33.2547 166.654 32.9347V32.8793C166.654 32.1837 166.448 31.6451 166.035 31.2635C165.623 30.8819 165.029 30.6911 164.253 30.6911C163.435 30.6911 162.785 30.8696 162.305 31.2266C161.831 31.5836 161.511 32.0052 161.345 32.4915L158.224 32.0483C158.47 31.1866 158.877 30.4664 159.443 29.8878C160.009 29.303 160.702 28.866 161.52 28.5767C162.339 28.2812 163.244 28.1335 164.235 28.1335C164.918 28.1335 165.598 28.2135 166.275 28.3736C166.952 28.5336 167.571 28.7983 168.131 29.1676C168.691 29.5308 169.141 30.0263 169.479 30.6541C169.824 31.282 169.996 32.0668 169.996 33.0085V42.5H166.783V40.5518H166.672C166.469 40.9458 166.183 41.3151 165.814 41.6598C165.45 41.9983 164.992 42.2723 164.438 42.4815C163.89 42.6847 163.247 42.7862 162.508 42.7862ZM163.376 40.3303C164.047 40.3303 164.629 40.1979 165.121 39.9332C165.614 39.6624 165.992 39.3054 166.257 38.8622C166.528 38.419 166.663 37.9358 166.663 37.4126V35.7415C166.558 35.8277 166.38 35.9077 166.128 35.9815C165.881 36.0554 165.604 36.12 165.297 36.1754C164.989 36.2308 164.684 36.2801 164.383 36.3232C164.081 36.3662 163.819 36.4032 163.598 36.4339C163.099 36.5017 162.653 36.6125 162.259 36.7663C161.865 36.9202 161.554 37.1357 161.326 37.4126C161.099 37.6835 160.985 38.0343 160.985 38.4652C160.985 39.0807 161.209 39.5455 161.659 39.8594C162.108 40.1733 162.681 40.3303 163.376 40.3303ZM173.357 47.8182V28.3182H176.644V30.6634H176.838C177.01 30.3187 177.253 29.9524 177.567 29.5646C177.881 29.1707 178.306 28.8352 178.841 28.5582C179.377 28.2751 180.06 28.1335 180.891 28.1335C181.987 28.1335 182.975 28.4136 183.855 28.9737C184.741 29.5277 185.443 30.3494 185.96 31.4389C186.483 32.5223 186.745 33.8518 186.745 35.4276C186.745 36.9848 186.489 38.3082 185.978 39.3977C185.468 40.4872 184.772 41.3182 183.892 41.8906C183.012 42.4631 182.014 42.7493 180.9 42.7493C180.088 42.7493 179.414 42.6139 178.878 42.343C178.343 42.0722 177.912 41.746 177.586 41.3643C177.266 40.9766 177.016 40.6103 176.838 40.2656H176.699V47.8182H173.357ZM176.635 35.4091C176.635 36.3262 176.764 37.1295 177.022 37.8189C177.287 38.5083 177.666 39.0469 178.158 39.4347C178.657 39.8163 179.26 40.0071 179.968 40.0071C180.706 40.0071 181.325 39.8101 181.824 39.4162C182.322 39.0161 182.698 38.4714 182.95 37.782C183.209 37.0864 183.338 36.2955 183.338 35.4091C183.338 34.5289 183.212 33.7472 182.959 33.0639C182.707 32.3807 182.331 31.8452 181.833 31.4574C181.334 31.0696 180.713 30.8757 179.968 30.8757C179.254 30.8757 178.647 31.0634 178.149 31.4389C177.65 31.8144 177.272 32.3407 177.013 33.0178C176.761 33.6948 176.635 34.492 176.635 35.4091Z" fill="white"/>
</svg>
