<svg width="151" height="66" viewBox="0 0 151 66" fill="none" xmlns="http://www.w3.org/2000/svg">
<rect width="151" height="66" rx="9.23645" fill="#2196F3"/>
<path d="M12.875 10L16.5407 51.4L33 56L49.4537 51.4029L53.125 10H12.875Z" fill="#FAFAFA"/>
<path d="M45.2879 23.5387L44.825 28.7396L43.4277 44.3307L33.0001 47.2144L32.9915 47.2172L22.5696 44.3307L21.8422 36.1772H26.9482L27.3277 40.4064L32.9944 41.9359L32.9972 41.933L38.6725 40.4035L39.4459 33.3569L21.5979 33.4057L21.0919 28.5872L39.8742 28.3659L40.2537 23.2081L20.5887 23.2627L20.2581 18.4644H33.0001H45.7421L45.2879 23.5387Z" fill="#2196F3"/>
<path d="M82.3121 29.9709H78.859C78.7605 29.4046 78.579 28.9029 78.3143 28.4659C78.0496 28.0227 77.7203 27.6473 77.3263 27.3395C76.9324 27.0317 76.4831 26.8009 75.9783 26.647C75.4798 26.487 74.9412 26.407 74.3626 26.407C73.3346 26.407 72.4237 26.6655 71.6296 27.1825C70.8356 27.6934 70.2139 28.4444 69.7646 29.4354C69.3152 30.4202 69.0906 31.6236 69.0906 33.0455C69.0906 34.492 69.3152 35.7107 69.7646 36.7017C70.2201 37.6866 70.8417 38.4313 71.6296 38.9361C72.4237 39.4347 73.3316 39.6839 74.3533 39.6839C74.9196 39.6839 75.449 39.6101 75.9414 39.4624C76.44 39.3085 76.8862 39.0838 77.2802 38.7884C77.6803 38.4929 78.0157 38.1297 78.2866 37.6989C78.5636 37.268 78.7544 36.7756 78.859 36.2216L82.3121 36.2401C82.1829 37.1387 81.9028 37.982 81.4719 38.7699C81.0472 39.5578 80.4902 40.2533 79.8008 40.8565C79.1114 41.4536 78.305 41.9214 77.3817 42.2599C76.4585 42.5923 75.4336 42.7585 74.3072 42.7585C72.6452 42.7585 71.1618 42.3738 69.8569 41.6044C68.552 40.835 67.524 39.724 66.7731 38.2713C66.0221 36.8187 65.6467 35.0767 65.6467 33.0455C65.6467 31.008 66.0252 29.2661 66.7823 27.8196C67.5394 26.367 68.5704 25.2559 69.8754 24.4865C71.1803 23.7171 72.6576 23.3324 74.3072 23.3324C75.3597 23.3324 76.3384 23.4801 77.2433 23.7756C78.1481 24.071 78.9544 24.505 79.6623 25.0774C80.3701 25.6437 80.9518 26.3393 81.4073 27.1641C81.869 27.9827 82.1706 28.9183 82.3121 29.9709ZM95.7253 28.7891C95.6391 27.9827 95.276 27.3549 94.6358 26.9055C94.0018 26.4562 93.177 26.2315 92.1614 26.2315C91.4474 26.2315 90.8349 26.3393 90.324 26.5547C89.8132 26.7701 89.4223 27.0625 89.1515 27.4318C88.8806 27.8011 88.7421 28.2228 88.736 28.6967C88.736 29.0907 88.8252 29.4323 89.0037 29.7216C89.1884 30.0109 89.4377 30.2571 89.7516 30.4602C90.0655 30.6572 90.4133 30.8234 90.7949 30.9588C91.1766 31.0942 91.5613 31.2081 91.949 31.3004L93.7218 31.7436C94.4358 31.9098 95.1221 32.1345 95.7807 32.4176C96.4455 32.7008 97.0395 33.0578 97.5627 33.4886C98.092 33.9195 98.5106 34.4396 98.8184 35.049C99.1261 35.6584 99.28 36.3724 99.28 37.1911C99.28 38.299 98.9969 39.2746 98.4306 40.1179C97.8643 40.955 97.0456 41.6106 95.9746 42.0845C94.9097 42.5523 93.6202 42.7862 92.106 42.7862C90.6349 42.7862 89.3577 42.5585 88.2743 42.103C87.1971 41.6475 86.3539 40.9827 85.7445 40.1087C85.1413 39.2346 84.815 38.1697 84.7658 36.9141H88.1358C88.1851 37.5727 88.3882 38.1205 88.7452 38.5575C89.1022 38.9946 89.5669 39.3208 90.1394 39.5362C90.718 39.7517 91.3643 39.8594 92.0783 39.8594C92.8231 39.8594 93.4756 39.7486 94.0357 39.527C94.602 39.2992 95.0452 38.9853 95.3652 38.5852C95.6853 38.179 95.8484 37.705 95.8546 37.1634C95.8484 36.6709 95.7038 36.2647 95.4206 35.9446C95.1375 35.6184 94.7405 35.3475 94.2296 35.1321C93.7248 34.9105 93.1339 34.7135 92.4569 34.5412L90.3056 33.9872C88.7483 33.5871 87.5172 32.9808 86.6124 32.1683C85.7137 31.3497 85.2644 30.2633 85.2644 28.9091C85.2644 27.795 85.566 26.8194 86.1692 25.9822C86.7786 25.1451 87.6065 24.4957 88.6529 24.0341C89.6993 23.5663 90.8842 23.3324 92.2076 23.3324C93.5494 23.3324 94.7251 23.5663 95.7346 24.0341C96.7502 24.4957 97.5473 25.139 98.1259 25.9638C98.7045 26.7824 99.003 27.7242 99.0215 28.7891H95.7253ZM112.61 28.7891C112.524 27.9827 112.161 27.3549 111.521 26.9055C110.887 26.4562 110.062 26.2315 109.046 26.2315C108.332 26.2315 107.72 26.3393 107.209 26.5547C106.698 26.7701 106.307 27.0625 106.036 27.4318C105.765 27.8011 105.627 28.2228 105.621 28.6967C105.621 29.0907 105.71 29.4323 105.888 29.7216C106.073 30.0109 106.322 30.2571 106.636 30.4602C106.95 30.6572 107.298 30.8234 107.68 30.9588C108.061 31.0942 108.446 31.2081 108.834 31.3004L110.607 31.7436C111.321 31.9098 112.007 32.1345 112.665 32.4176C113.33 32.7008 113.924 33.0578 114.447 33.4886C114.977 33.9195 115.395 34.4396 115.703 35.049C116.011 35.6584 116.165 36.3724 116.165 37.1911C116.165 38.299 115.882 39.2746 115.315 40.1179C114.749 40.955 113.93 41.6106 112.859 42.0845C111.795 42.5523 110.505 42.7862 108.991 42.7862C107.52 42.7862 106.242 42.5585 105.159 42.103C104.082 41.6475 103.239 40.9827 102.629 40.1087C102.026 39.2346 101.7 38.1697 101.651 36.9141H105.021C105.07 37.5727 105.273 38.1205 105.63 38.5575C105.987 38.9946 106.452 39.3208 107.024 39.5362C107.603 39.7517 108.249 39.8594 108.963 39.8594C109.708 39.8594 110.36 39.7486 110.92 39.527C111.487 39.2992 111.93 38.9853 112.25 38.5852C112.57 38.179 112.733 37.705 112.739 37.1634C112.733 36.6709 112.589 36.2647 112.305 35.9446C112.022 35.6184 111.625 35.3475 111.114 35.1321C110.61 34.9105 110.019 34.7135 109.342 34.5412L107.19 33.9872C105.633 33.5871 104.402 32.9808 103.497 32.1683C102.598 31.3497 102.149 30.2633 102.149 28.9091C102.149 27.795 102.451 26.8194 103.054 25.9822C103.663 25.1451 104.491 24.4957 105.538 24.0341C106.584 23.5663 107.769 23.3324 109.092 23.3324C110.434 23.3324 111.61 23.5663 112.619 24.0341C113.635 24.4957 114.432 25.139 115.011 25.9638C115.589 26.7824 115.888 27.7242 115.906 28.7891H112.61ZM132.269 42.7585C130.94 42.7585 129.758 42.5308 128.724 42.0753C127.696 41.6198 126.883 40.9858 126.286 40.1733C125.689 39.3608 125.372 38.4221 125.335 37.3572H128.807C128.838 37.8681 129.007 38.3144 129.315 38.696C129.623 39.0715 130.032 39.3639 130.543 39.5732C131.054 39.7824 131.626 39.8871 132.26 39.8871C132.937 39.8871 133.537 39.7701 134.061 39.5362C134.584 39.2962 134.993 38.9638 135.289 38.5391C135.584 38.1143 135.729 37.625 135.722 37.071C135.729 36.4986 135.581 35.9938 135.279 35.5568C134.978 35.1198 134.541 34.7782 133.968 34.532C133.402 34.2857 132.719 34.1626 131.919 34.1626H130.247V31.522H131.919C132.577 31.522 133.153 31.4081 133.645 31.1804C134.144 30.9527 134.535 30.6326 134.818 30.2202C135.101 29.8016 135.239 29.3184 135.233 28.7706C135.239 28.2351 135.119 27.7704 134.873 27.3764C134.633 26.9763 134.291 26.6655 133.848 26.4439C133.411 26.2223 132.897 26.1115 132.306 26.1115C131.728 26.1115 131.192 26.2161 130.7 26.4254C130.207 26.6347 129.81 26.9332 129.509 27.321C129.207 27.7027 129.047 28.1581 129.029 28.6875H125.732C125.757 27.6288 126.062 26.6993 126.646 25.8991C127.237 25.0928 128.025 24.465 129.01 24.0156C129.995 23.5601 131.1 23.3324 132.325 23.3324C133.587 23.3324 134.682 23.5694 135.612 24.0433C136.547 24.5111 137.271 25.142 137.781 25.9361C138.292 26.7301 138.548 27.6072 138.548 28.5675C138.554 29.6323 138.24 30.5249 137.606 31.245C136.978 31.9652 136.153 32.4361 135.132 32.6577V32.8054C136.461 32.9901 137.48 33.4825 138.188 34.2827C138.902 35.0767 139.256 36.0646 139.249 37.2464C139.249 38.3052 138.948 39.2531 138.345 40.0902C137.748 40.9212 136.923 41.5736 135.87 42.0476C134.824 42.5215 133.624 42.7585 132.269 42.7585Z" fill="white"/>
</svg>
