<svg width="165" height="66" viewBox="0 0 165 66" fill="none" xmlns="http://www.w3.org/2000/svg">
<rect x="0.5" width="164" height="66" rx="10" fill="#663399"/>
<g clip-path="url(#clip0_85_1188)">
<path d="M33.5 10C20.85 10 10.5 20.35 10.5 33C10.5 45.65 20.85 56 33.5 56C46.15 56 56.5 45.65 56.5 33C56.5 20.35 46.15 10 33.5 10ZM33.5 14.9278C39.5777 14.9278 44.8371 17.8852 48.1222 22.3222L45.6574 24.4593C42.8648 20.6797 38.4277 18.2148 33.5 18.2148C27.0926 18.2148 21.6722 22.3222 19.5352 28.0723L38.4277 46.9648C43.1926 45.3222 46.8093 41.2148 47.9593 36.2852H40.0722V33H51.5723C51.5723 41.5426 45.4926 48.7703 37.4426 50.5758L15.9242 29.0593C17.7297 21.0074 24.9574 14.9258 33.5 14.9258V14.9278ZM15.4278 33.3277L33.3371 51.0723C28.7371 50.9074 24.1352 49.2648 20.6852 45.8148C17.2352 42.3648 15.4278 37.7629 15.4278 33.3277Z" fill="white"/>
</g>
<path d="M79.3452 29.6293C79.1913 29.1307 78.9789 28.6844 78.7081 28.2905C78.4434 27.8904 78.1233 27.5488 77.7479 27.2656C77.3786 26.9825 76.9538 26.7701 76.4737 26.6286C75.9936 26.4808 75.4704 26.407 74.9041 26.407C73.8885 26.407 72.9837 26.6624 72.1896 27.1733C71.3956 27.6842 70.7708 28.4351 70.3153 29.4261C69.866 30.411 69.6413 31.6113 69.6413 33.027C69.6413 34.455 69.866 35.6645 70.3153 36.6555C70.7647 37.6465 71.3894 38.4006 72.1896 38.9176C72.9898 39.4285 73.9193 39.6839 74.978 39.6839C75.9382 39.6839 76.7692 39.4993 77.4709 39.13C78.1787 38.7607 78.7235 38.2375 79.1051 37.5604C79.4867 36.8771 79.6776 36.0769 79.6776 35.1598L80.4531 35.2798H75.3196V32.6023H82.9922V34.8736C82.9922 36.4924 82.6475 37.8928 81.9581 39.0746C81.2687 40.2564 80.3208 41.1674 79.1143 41.8075C77.9079 42.4415 76.523 42.7585 74.9595 42.7585C73.2176 42.7585 71.688 42.3677 70.3707 41.5859C69.0597 40.7981 68.0348 39.6809 67.2962 38.2344C66.5637 36.7817 66.1974 35.0582 66.1974 33.0639C66.1974 31.5374 66.4129 30.174 66.8438 28.9737C67.2808 27.7734 67.8902 26.7547 68.6719 25.9176C69.4536 25.0743 70.3707 24.4342 71.4233 23.9972C72.4759 23.554 73.6207 23.3324 74.858 23.3324C75.9044 23.3324 76.88 23.4863 77.7848 23.794C78.6896 24.0956 79.4929 24.5265 80.1946 25.0866C80.9025 25.6468 81.4841 26.3116 81.9396 27.081C82.3951 27.8504 82.6937 28.6998 82.8352 29.6293H79.3452ZM90.2377 42.7862C89.3391 42.7862 88.5297 42.6262 87.8095 42.3061C87.0955 41.9799 86.5292 41.4998 86.1106 40.8658C85.6982 40.2318 85.492 39.45 85.492 38.5206C85.492 37.7204 85.6397 37.0587 85.9352 36.5355C86.2306 36.0123 86.6338 35.5938 87.1447 35.2798C87.6556 34.9659 88.2311 34.7289 88.8713 34.5689C89.5176 34.4027 90.1854 34.2827 90.8748 34.2088C91.7058 34.1226 92.3798 34.0457 92.8968 33.978C93.4139 33.9041 93.7894 33.7933 94.0233 33.6456C94.2633 33.4917 94.3833 33.2547 94.3833 32.9347V32.8793C94.3833 32.1837 94.1771 31.6451 93.7647 31.2635C93.3523 30.8819 92.7583 30.6911 91.9828 30.6911C91.1641 30.6911 90.5147 30.8696 90.0346 31.2266C89.5607 31.5836 89.2406 32.0052 89.0744 32.4915L85.9537 32.0483C86.1999 31.1866 86.6061 30.4664 87.1724 29.8878C87.7387 29.303 88.4312 28.866 89.2498 28.5767C90.0685 28.2812 90.9733 28.1335 91.9643 28.1335C92.6476 28.1335 93.3277 28.2135 94.0048 28.3736C94.6819 28.5336 95.3005 28.7983 95.8606 29.1676C96.4208 29.5308 96.8701 30.0263 97.2086 30.6541C97.5533 31.282 97.7257 32.0668 97.7257 33.0085V42.5H94.5126V40.5518H94.4018C94.1987 40.9458 93.9125 41.3151 93.5431 41.6598C93.18 41.9983 92.7214 42.2723 92.1674 42.4815C91.6196 42.6847 90.9764 42.7862 90.2377 42.7862ZM91.1056 40.3303C91.7766 40.3303 92.3583 40.1979 92.8507 39.9332C93.3431 39.6624 93.7217 39.3054 93.9863 38.8622C94.2572 38.419 94.3926 37.9358 94.3926 37.4126V35.7415C94.2879 35.8277 94.1094 35.9077 93.8571 35.9815C93.6109 36.0554 93.3339 36.12 93.0261 36.1754C92.7183 36.2308 92.4136 36.2801 92.112 36.3232C91.8104 36.3662 91.5488 36.4032 91.3272 36.4339C90.8287 36.5017 90.3824 36.6125 89.9885 36.7663C89.5945 36.9202 89.2837 37.1357 89.0559 37.4126C88.8282 37.6835 88.7143 38.0343 88.7143 38.4652C88.7143 39.0807 88.939 39.5455 89.3883 39.8594C89.8377 40.1733 90.4101 40.3303 91.1056 40.3303ZM108.168 28.3182V30.9034H100.015V28.3182H108.168ZM102.028 24.9205H105.371V38.2344C105.371 38.6837 105.438 39.0284 105.574 39.2685C105.715 39.5024 105.9 39.6624 106.128 39.7486C106.355 39.8348 106.608 39.8778 106.885 39.8778C107.094 39.8778 107.285 39.8625 107.457 39.8317C107.636 39.8009 107.771 39.7732 107.863 39.7486L108.427 42.3615C108.248 42.4231 107.993 42.4908 107.66 42.5646C107.334 42.6385 106.934 42.6816 106.46 42.6939C105.623 42.7185 104.869 42.5923 104.198 42.3153C103.527 42.0322 102.995 41.5952 102.601 41.0043C102.213 40.4134 102.022 39.6747 102.028 38.7884V24.9205ZM121.969 32.0668L118.922 32.3991C118.836 32.0914 118.685 31.8021 118.47 31.5312C118.261 31.2604 117.977 31.0419 117.62 30.8757C117.263 30.7095 116.826 30.6264 116.309 30.6264C115.614 30.6264 115.029 30.7772 114.555 31.0788C114.087 31.3804 113.856 31.7713 113.863 32.2514C113.856 32.6638 114.007 32.9993 114.315 33.2578C114.629 33.5163 115.146 33.7287 115.866 33.8949L118.285 34.4119C119.627 34.7012 120.624 35.1598 121.277 35.7876C121.935 36.4155 122.268 37.2372 122.274 38.2528C122.268 39.1454 122.006 39.9332 121.489 40.6165C120.978 41.2936 120.267 41.8229 119.356 42.2045C118.445 42.5862 117.399 42.777 116.217 42.777C114.481 42.777 113.084 42.4138 112.025 41.6875C110.967 40.955 110.336 39.9363 110.132 38.6314L113.392 38.3175C113.539 38.9576 113.853 39.4408 114.333 39.767C114.814 40.0933 115.438 40.2564 116.208 40.2564C117.002 40.2564 117.639 40.0933 118.119 39.767C118.605 39.4408 118.848 39.0376 118.848 38.5575C118.848 38.1513 118.691 37.8158 118.377 37.5511C118.07 37.2865 117.59 37.0833 116.937 36.9418L114.518 36.4339C113.158 36.1508 112.151 35.6738 111.499 35.0028C110.846 34.3258 110.523 33.4702 110.529 32.4361C110.523 31.562 110.76 30.8049 111.24 30.1648C111.727 29.5185 112.401 29.0199 113.262 28.669C114.13 28.312 115.131 28.1335 116.263 28.1335C117.925 28.1335 119.233 28.4875 120.187 29.1953C121.147 29.9032 121.741 30.8603 121.969 32.0668ZM125.178 42.5V23.5909H128.52V30.6634H128.658C128.831 30.3187 129.074 29.9524 129.388 29.5646C129.702 29.1707 130.126 28.8352 130.662 28.5582C131.197 28.2751 131.881 28.1335 132.712 28.1335C133.807 28.1335 134.795 28.4136 135.675 28.9737C136.562 29.5277 137.263 30.3494 137.781 31.4389C138.304 32.5223 138.565 33.8518 138.565 35.4276C138.565 36.9848 138.31 38.3082 137.799 39.3977C137.288 40.4872 136.593 41.3182 135.712 41.8906C134.832 42.4631 133.835 42.7493 132.721 42.7493C131.908 42.7493 131.234 42.6139 130.699 42.343C130.163 42.0722 129.732 41.746 129.406 41.3643C129.086 40.9766 128.837 40.6103 128.658 40.2656H128.464V42.5H125.178ZM128.455 35.4091C128.455 36.3262 128.585 37.1295 128.843 37.8189C129.108 38.5083 129.486 39.0469 129.979 39.4347C130.477 39.8163 131.08 40.0071 131.788 40.0071C132.527 40.0071 133.146 39.8101 133.644 39.4162C134.143 39.0161 134.518 38.4714 134.771 37.782C135.029 37.0864 135.158 36.2955 135.158 35.4091C135.158 34.5289 135.032 33.7472 134.78 33.0639C134.527 32.3807 134.152 31.8452 133.653 31.4574C133.155 31.0696 132.533 30.8757 131.788 30.8757C131.074 30.8757 130.468 31.0634 129.969 31.4389C129.471 31.8144 129.092 32.3407 128.834 33.0178C128.581 33.6948 128.455 34.492 128.455 35.4091ZM143.002 47.8182C142.546 47.8182 142.125 47.7813 141.737 47.7074C141.355 47.6397 141.051 47.5597 140.823 47.4673L141.598 44.8636C142.085 45.0052 142.519 45.0729 142.9 45.0668C143.282 45.0606 143.617 44.9406 143.907 44.7067C144.202 44.4789 144.451 44.0973 144.654 43.5618L144.941 42.7955L139.798 28.3182H143.343L146.612 39.0284H146.76L150.037 28.3182H153.592L147.914 44.2173C147.649 44.9683 147.298 45.6115 146.861 46.147C146.424 46.6887 145.889 47.1011 145.255 47.3842C144.627 47.6735 143.876 47.8182 143.002 47.8182Z" fill="white"/>
<defs>
<clipPath id="clip0_85_1188">
<rect width="46" height="46" fill="white" transform="translate(10.5 10)"/>
</clipPath>
</defs>
</svg>
