<svg width="113" height="66" viewBox="0 0 113 66" fill="none" xmlns="http://www.w3.org/2000/svg">
<rect x="0.5" width="112" height="66" rx="10" fill="#F05033"/>
<g clip-path="url(#clip0_85_1192)">
<path d="M55.6298 30.9492L35.5451 10.8663C34.3874 9.71057 32.5129 9.71057 31.3514 10.8663L27.1903 15.0351L32.4803 20.3251C33.7166 19.913 35.1234 20.1909 36.1009 21.1703C37.0899 22.1574 37.3621 23.5815 36.9404 24.812L42.0349 29.9103C43.2712 29.4829 44.6933 29.7608 45.6766 30.7441C47.0585 32.1241 47.0585 34.3551 45.6766 35.7351C44.2985 37.1132 42.0713 37.1132 40.6933 35.7351C39.6602 34.6982 39.4014 33.1725 39.9189 31.9094L35.1483 27.1637V39.67C35.4857 39.8348 35.8038 40.0591 36.0837 40.337C37.4502 41.7189 37.4502 43.9461 36.0837 45.3203C34.7056 46.7022 32.4631 46.7022 31.0831 45.3203C29.705 43.9422 29.705 41.7189 31.0831 40.3408C31.4319 39.9958 31.8248 39.7352 32.2427 39.5627V26.9337C31.8267 26.7593 31.43 26.5082 31.0927 26.1652C30.0481 25.1206 29.797 23.593 30.3337 22.3146L25.1357 17.0917L11.3625 30.8552C10.2125 32.0148 10.2125 33.8912 11.3625 35.0508L31.4492 55.1317C32.6068 56.2894 34.4813 56.2894 35.639 55.1317L55.6298 35.1409C56.7894 33.9852 56.7894 32.1087 55.6298 30.9492Z" fill="white"/>
</g>
<path d="M79.4467 29.6293C79.2929 29.1307 79.0805 28.6844 78.8097 28.2905C78.545 27.8904 78.2249 27.5488 77.8494 27.2656C77.4801 26.9825 77.0554 26.7701 76.5753 26.6286C76.0952 26.4808 75.572 26.407 75.0057 26.407C73.9901 26.407 73.0852 26.6624 72.2912 27.1733C71.4972 27.6842 70.8724 28.4351 70.4169 29.4261C69.9676 30.411 69.7429 31.6113 69.7429 33.027C69.7429 34.455 69.9676 35.6645 70.4169 36.6555C70.8662 37.6465 71.491 38.4006 72.2912 38.9176C73.0914 39.4285 74.0208 39.6839 75.0795 39.6839C76.0398 39.6839 76.8707 39.4993 77.5724 39.13C78.2803 38.7607 78.825 38.2375 79.2067 37.5604C79.5883 36.8771 79.7791 36.0769 79.7791 35.1598L80.5547 35.2798H75.4212V32.6023H83.0938V34.8736C83.0938 36.4924 82.7491 37.8928 82.0597 39.0746C81.3703 40.2564 80.4223 41.1674 79.2159 41.8075C78.0095 42.4415 76.6245 42.7585 75.0611 42.7585C73.3191 42.7585 71.7895 42.3677 70.4723 41.5859C69.1612 40.7981 68.1364 39.6809 67.3977 38.2344C66.6652 36.7817 66.299 35.0582 66.299 33.0639C66.299 31.5374 66.5144 30.174 66.9453 28.9737C67.3823 27.7734 67.9917 26.7547 68.7734 25.9176C69.5552 25.0743 70.4723 24.4342 71.5249 23.9972C72.5774 23.554 73.7223 23.3324 74.9595 23.3324C76.0059 23.3324 76.9815 23.4863 77.8864 23.794C78.7912 24.0956 79.5945 24.5265 80.2962 25.0866C81.004 25.6468 81.5857 26.3116 82.0412 27.081C82.4967 27.8504 82.7952 28.6998 82.9368 29.6293H79.4467ZM87.147 42.5V28.3182H90.4893V42.5H87.147ZM88.8274 26.3054C88.2981 26.3054 87.8426 26.13 87.4609 25.7791C87.0793 25.4221 86.8885 24.9943 86.8885 24.4957C86.8885 23.991 87.0793 23.5632 87.4609 23.2124C87.8426 22.8553 88.2981 22.6768 88.8274 22.6768C89.3629 22.6768 89.8184 22.8553 90.1939 23.2124C90.5755 23.5632 90.7663 23.991 90.7663 24.4957C90.7663 24.9943 90.5755 25.4221 90.1939 25.7791C89.8184 26.13 89.3629 26.3054 88.8274 26.3054ZM101.008 28.3182V30.9034H92.8553V28.3182H101.008ZM94.8681 24.9205H98.2104V38.2344C98.2104 38.6837 98.2781 39.0284 98.4135 39.2685C98.5551 39.5024 98.7398 39.6624 98.9675 39.7486C99.1953 39.8348 99.4476 39.8778 99.7246 39.8778C99.9339 39.8778 100.125 39.8625 100.297 39.8317C100.476 39.8009 100.611 39.7732 100.703 39.7486L101.267 42.3615C101.088 42.4231 100.833 42.4908 100.5 42.5646C100.174 42.6385 99.7739 42.6816 99.2999 42.6939C98.4628 42.7185 97.7087 42.5923 97.0378 42.3153C96.3669 42.0322 95.8345 41.5952 95.4405 41.0043C95.0527 40.4134 94.8619 39.6747 94.8681 38.7884V24.9205Z" fill="white"/>
<defs>
<clipPath id="clip0_85_1192">
<rect width="46" height="46" fill="white" transform="translate(10.5 10)"/>
</clipPath>
</defs>
</svg>
