<svg width="166" height="66" viewBox="0 0 166 66" fill="none" xmlns="http://www.w3.org/2000/svg">
<rect width="166" height="66" rx="9.23645" fill="#FF5722"/>
<path d="M12.875 10L16.5406 51.4L33 56L49.4536 51.4029L53.125 10H12.875Z" fill="#FAFAFA"/>
<path d="M45.1756 23.5387H33H25.8844L26.3444 28.7396H33H44.7156L43.3328 44.3336L33 47.2172L32.9914 47.2201L22.6644 44.3336L21.9428 36.1772H27.0028L27.3794 40.4092L32.9943 41.9359L33 41.933L38.6206 40.4064L39.2071 33.8197H33H21.7358L20.373 18.4644H33H45.6241L45.1756 23.5387Z" fill="#FF5722"/>
<path d="M66.2381 42.5V23.5909H69.6635V31.5959H78.4256V23.5909H81.8603V42.5H78.4256V34.4673H69.6635V42.5H66.2381ZM84.7548 26.4624V23.5909H99.8414V26.4624H93.997V42.5H90.5993V26.4624H84.7548ZM102.75 23.5909H106.942L112.555 37.2926H112.777L118.39 23.5909H122.582V42.5H119.295V29.5092H119.12L113.894 42.4446H111.438L106.212 29.4815H106.037V42.5H102.75V23.5909ZM126.312 42.5V23.5909H129.738V39.6286H138.066V42.5H126.312ZM147.428 42.7585C146.197 42.7585 145.095 42.5277 144.123 42.0661C143.15 41.5982 142.378 40.9581 141.805 40.1456C141.239 39.3331 140.937 38.4036 140.9 37.3572H144.224C144.286 38.1328 144.621 38.7668 145.231 39.2592C145.84 39.7455 146.573 39.9886 147.428 39.9886C148.099 39.9886 148.696 39.8348 149.219 39.527C149.742 39.2192 150.155 38.7914 150.456 38.2436C150.758 37.6958 150.906 37.071 150.9 36.3693C150.906 35.6553 150.755 35.0213 150.447 34.4673C150.14 33.9134 149.718 33.4794 149.182 33.1655C148.647 32.8454 148.031 32.6854 147.336 32.6854C146.769 32.6792 146.212 32.7839 145.665 32.9993C145.117 33.2147 144.683 33.4979 144.363 33.8487L141.27 33.3409L142.258 23.5909H153.226V26.4531H145.092L144.547 31.4666H144.658C145.009 31.0542 145.505 30.7126 146.145 30.4418C146.785 30.1648 147.487 30.0263 148.25 30.0263C149.395 30.0263 150.416 30.2971 151.315 30.8388C152.214 31.3743 152.922 32.1129 153.439 33.0547C153.956 33.9964 154.214 35.0736 154.214 36.2862C154.214 37.5357 153.925 38.6499 153.346 39.6286C152.774 40.6011 151.977 41.3674 150.955 41.9276C149.939 42.4815 148.764 42.7585 147.428 42.7585Z" fill="white"/>
</svg>
