<svg width="216" height="66" viewBox="0 0 216 66" fill="none" xmlns="http://www.w3.org/2000/svg">
<rect x="0.5" width="215" height="66" rx="10" fill="#F7DF1E"/>
<g clip-path="url(#clip0_85_1152)">
<path d="M10.5 10H56.5V56H10.5V10ZM52.7318 45.029C52.3964 42.9302 51.0298 41.1669 46.9761 39.5224C45.5654 38.8612 43.9976 38.4012 43.5318 37.3374C43.3574 36.7049 43.3306 36.3599 43.4437 35.9862C43.7312 34.748 45.1974 34.3762 46.3474 34.7212C47.0949 34.9512 47.7849 35.5262 48.2181 36.4462C50.1999 35.1505 50.1999 35.1505 51.5818 34.2899C51.0643 33.4849 50.8075 33.138 50.4587 32.7949C49.2512 31.4437 47.6431 30.7537 45.0268 30.8131L43.6756 30.9837C42.3799 31.2999 41.1456 31.9899 40.3981 32.9099C38.2131 35.3843 38.8437 39.6968 41.4887 41.4793C44.1049 43.4343 47.9306 43.8637 48.4193 45.7056C48.8793 47.9481 46.7518 48.6668 44.6512 48.4081C43.0968 48.0631 42.2362 47.2849 41.2874 45.8474L37.7799 47.8618C38.1824 48.7818 38.6424 49.1824 39.3324 49.9874C42.6674 53.3531 51.0049 53.1806 52.5018 48.0631C52.5574 47.8906 52.9618 46.7118 52.6437 44.9006L52.7318 45.029ZM35.5144 31.1427H31.2057C31.2057 34.8573 31.1885 38.5487 31.1885 42.269C31.1885 44.6303 31.3092 46.7981 30.924 47.4651C30.2915 48.7857 28.6623 48.617 27.9225 48.3851C27.1635 48.0094 26.7782 47.4919 26.3317 46.7463C26.2109 46.5451 26.1208 46.3707 26.0883 46.3707L22.5903 48.5269C23.1749 49.7344 24.0278 50.7733 25.128 51.4345C26.7668 52.412 28.969 52.7283 31.2747 52.2108C32.7755 51.7776 34.0692 50.8863 34.7458 49.5063C35.7233 47.7238 35.5163 45.5388 35.5068 43.0932C35.5297 39.1563 35.5068 35.2176 35.5068 31.2501L35.5144 31.1427Z" fill="black"/>
</g>
<path d="M74.2979 23.5909H77.6957V36.8864C77.6895 38.1051 77.431 39.1546 76.9201 40.0348C76.4092 40.9089 75.6952 41.5829 74.7781 42.0568C73.8671 42.5246 72.8053 42.7585 71.5927 42.7585C70.4847 42.7585 69.4876 42.5616 68.6012 42.1676C67.721 41.7675 67.0224 41.1766 66.5053 40.3949C65.9883 39.6132 65.7298 38.6406 65.7298 37.4773H69.1367C69.1429 37.9882 69.2537 38.4283 69.4691 38.7976C69.6907 39.1669 69.9954 39.45 70.3832 39.647C70.771 39.844 71.2172 39.9425 71.7219 39.9425C72.2698 39.9425 72.7345 39.8286 73.1161 39.6009C73.4978 39.367 73.7871 39.0223 73.984 38.5668C74.1871 38.1113 74.2918 37.5511 74.2979 36.8864V23.5909ZM85.3452 42.7862C84.4465 42.7862 83.6371 42.6262 82.9169 42.3061C82.2029 41.9799 81.6366 41.4998 81.218 40.8658C80.8056 40.2318 80.5994 39.45 80.5994 38.5206C80.5994 37.7204 80.7472 37.0587 81.0426 36.5355C81.3381 36.0123 81.7412 35.5938 82.2521 35.2798C82.763 34.9659 83.3385 34.7289 83.9787 34.5689C84.625 34.4027 85.2929 34.2827 85.9822 34.2088C86.8132 34.1226 87.4872 34.0457 88.0043 33.978C88.5213 33.9041 88.8968 33.7933 89.1307 33.6456C89.3707 33.4917 89.4908 33.2547 89.4908 32.9347V32.8793C89.4908 32.1837 89.2846 31.6451 88.8722 31.2635C88.4598 30.8819 87.8658 30.6911 87.0902 30.6911C86.2715 30.6911 85.6222 30.8696 85.142 31.2266C84.6681 31.5836 84.348 32.0052 84.1818 32.4915L81.0611 32.0483C81.3073 31.1866 81.7135 30.4664 82.2798 29.8878C82.8461 29.303 83.5386 28.866 84.3572 28.5767C85.1759 28.2812 86.0807 28.1335 87.0717 28.1335C87.755 28.1335 88.4351 28.2135 89.1122 28.3736C89.7893 28.5336 90.4079 28.7983 90.968 29.1676C91.5282 29.5308 91.9775 30.0263 92.3161 30.6541C92.6607 31.282 92.8331 32.0668 92.8331 33.0085V42.5H89.62V40.5518H89.5092C89.3061 40.9458 89.0199 41.3151 88.6506 41.6598C88.2874 41.9983 87.8288 42.2723 87.2749 42.4815C86.727 42.6847 86.0838 42.7862 85.3452 42.7862ZM86.2131 40.3303C86.884 40.3303 87.4657 40.1979 87.9581 39.9332C88.4505 39.6624 88.8291 39.3054 89.0938 38.8622C89.3646 38.419 89.5 37.9358 89.5 37.4126V35.7415C89.3954 35.8277 89.2169 35.9077 88.9645 35.9815C88.7183 36.0554 88.4413 36.12 88.1335 36.1754C87.8258 36.2308 87.5211 36.2801 87.2195 36.3232C86.9179 36.3662 86.6563 36.4032 86.4347 36.4339C85.9361 36.5017 85.4898 36.6125 85.0959 36.7663C84.7019 36.9202 84.3911 37.1357 84.1634 37.4126C83.9356 37.6835 83.8217 38.0343 83.8217 38.4652C83.8217 39.0807 84.0464 39.5455 84.4957 39.8594C84.9451 40.1733 85.5175 40.3303 86.2131 40.3303ZM108.354 28.3182L103.303 42.5H99.6101L94.5597 28.3182H98.1236L101.383 38.853H101.531L104.799 28.3182H108.354ZM114.341 42.7862C113.443 42.7862 112.633 42.6262 111.913 42.3061C111.199 41.9799 110.633 41.4998 110.214 40.8658C109.802 40.2318 109.596 39.45 109.596 38.5206C109.596 37.7204 109.743 37.0587 110.039 36.5355C110.334 36.0123 110.737 35.5938 111.248 35.2798C111.759 34.9659 112.335 34.7289 112.975 34.5689C113.621 34.4027 114.289 34.2827 114.978 34.2088C115.809 34.1226 116.483 34.0457 117 33.978C117.517 33.9041 117.893 33.7933 118.127 33.6456C118.367 33.4917 118.487 33.2547 118.487 32.9347V32.8793C118.487 32.1837 118.281 31.6451 117.868 31.2635C117.456 30.8819 116.862 30.6911 116.086 30.6911C115.268 30.6911 114.618 30.8696 114.138 31.2266C113.664 31.5836 113.344 32.0052 113.178 32.4915L110.057 32.0483C110.303 31.1866 110.71 30.4664 111.276 29.8878C111.842 29.303 112.535 28.866 113.353 28.5767C114.172 28.2812 115.077 28.1335 116.068 28.1335C116.751 28.1335 117.431 28.2135 118.108 28.3736C118.785 28.5336 119.404 28.7983 119.964 29.1676C120.524 29.5308 120.974 30.0263 121.312 30.6541C121.657 31.282 121.829 32.0668 121.829 33.0085V42.5H118.616V40.5518H118.505C118.302 40.9458 118.016 41.3151 117.647 41.6598C117.283 41.9983 116.825 42.2723 116.271 42.4815C115.723 42.6847 115.08 42.7862 114.341 42.7862ZM115.209 40.3303C115.88 40.3303 116.462 40.1979 116.954 39.9332C117.447 39.6624 117.825 39.3054 118.09 38.8622C118.361 38.419 118.496 37.9358 118.496 37.4126V35.7415C118.391 35.8277 118.213 35.9077 117.961 35.9815C117.714 36.0554 117.437 36.12 117.13 36.1754C116.822 36.2308 116.517 36.2801 116.216 36.3232C115.914 36.3662 115.652 36.4032 115.431 36.4339C114.932 36.5017 114.486 36.6125 114.092 36.7663C113.698 36.9202 113.387 37.1357 113.159 37.4126C112.932 37.6835 112.818 38.0343 112.818 38.4652C112.818 39.0807 113.042 39.5455 113.492 39.8594C113.941 40.1733 114.514 40.3303 115.209 40.3303ZM142.063 28.7891C141.977 27.9827 141.614 27.3549 140.974 26.9055C140.34 26.4562 139.515 26.2315 138.499 26.2315C137.785 26.2315 137.173 26.3393 136.662 26.5547C136.151 26.7701 135.76 27.0625 135.489 27.4318C135.219 27.8011 135.08 28.2228 135.074 28.6967C135.074 29.0907 135.163 29.4323 135.342 29.7216C135.526 30.0109 135.776 30.2571 136.089 30.4602C136.403 30.6572 136.751 30.8234 137.133 30.9588C137.514 31.0942 137.899 31.2081 138.287 31.3004L140.06 31.7436C140.774 31.9098 141.46 32.1345 142.119 32.4176C142.783 32.7008 143.377 33.0578 143.901 33.4886C144.43 33.9195 144.848 34.4396 145.156 35.049C145.464 35.6584 145.618 36.3724 145.618 37.1911C145.618 38.299 145.335 39.2746 144.768 40.1179C144.202 40.955 143.384 41.6106 142.312 42.0845C141.248 42.5523 139.958 42.7862 138.444 42.7862C136.973 42.7862 135.696 42.5585 134.612 42.103C133.535 41.6475 132.692 40.9827 132.082 40.1087C131.479 39.2346 131.153 38.1697 131.104 36.9141H134.474C134.523 37.5727 134.726 38.1205 135.083 38.5575C135.44 38.9946 135.905 39.3208 136.477 39.5362C137.056 39.7517 137.702 39.8594 138.416 39.8594C139.161 39.8594 139.813 39.7486 140.374 39.527C140.94 39.2992 141.383 38.9853 141.703 38.5852C142.023 38.179 142.186 37.705 142.192 37.1634C142.186 36.6709 142.042 36.2647 141.759 35.9446C141.475 35.6184 141.078 35.3475 140.567 35.1321C140.063 34.9105 139.472 34.7135 138.795 34.5412L136.643 33.9872C135.086 33.5871 133.855 32.9808 132.95 32.1683C132.052 31.3497 131.602 30.2633 131.602 28.9091C131.602 27.795 131.904 26.8194 132.507 25.9822C133.116 25.1451 133.944 24.4957 134.991 24.0341C136.037 23.5663 137.222 23.3324 138.545 23.3324C139.887 23.3324 141.063 23.5663 142.072 24.0341C143.088 24.4957 143.885 25.139 144.464 25.9638C145.042 26.7824 145.341 27.7242 145.359 28.7891H142.063ZM154.71 42.777C153.294 42.777 152.079 42.4661 151.063 41.8445C150.054 41.2228 149.275 40.3641 148.727 39.2685C148.185 38.1667 147.915 36.8987 147.915 35.4645C147.915 34.0241 148.192 32.7531 148.746 31.6513C149.3 30.5433 150.081 29.6816 151.091 29.0661C152.106 28.4444 153.307 28.1335 154.692 28.1335C155.843 28.1335 156.861 28.3459 157.748 28.7706C158.64 29.1892 159.351 29.7831 159.881 30.5526C160.41 31.3158 160.711 32.2083 160.785 33.2301H157.591C157.461 32.5469 157.154 31.9775 156.667 31.522C156.187 31.0604 155.544 30.8295 154.738 30.8295C154.055 30.8295 153.454 31.0142 152.937 31.3835C152.42 31.7467 152.017 32.2699 151.728 32.9531C151.445 33.6364 151.303 34.455 151.303 35.4091C151.303 36.3755 151.445 37.2064 151.728 37.902C152.011 38.5914 152.408 39.1238 152.919 39.4993C153.436 39.8686 154.042 40.0533 154.738 40.0533C155.23 40.0533 155.67 39.9609 156.058 39.7763C156.452 39.5855 156.781 39.3116 157.046 38.9545C157.311 38.5975 157.492 38.1636 157.591 37.6527H160.785C160.705 38.656 160.41 39.5455 159.899 40.321C159.388 41.0904 158.693 41.6937 157.812 42.1307C156.932 42.5616 155.898 42.777 154.71 42.777ZM163.53 42.5V28.3182H166.771V30.6818H166.918C167.177 29.8632 167.62 29.2322 168.248 28.7891C168.882 28.3397 169.605 28.1151 170.418 28.1151C170.602 28.1151 170.808 28.1243 171.036 28.1428C171.27 28.1551 171.464 28.1766 171.618 28.2074V31.282C171.476 31.2327 171.252 31.1896 170.944 31.1527C170.642 31.1096 170.35 31.0881 170.067 31.0881C169.457 31.0881 168.91 31.2204 168.423 31.4851C167.943 31.7436 167.565 32.1037 167.288 32.5653C167.011 33.027 166.872 33.5594 166.872 34.1626V42.5H163.53ZM173.838 42.5V28.3182H177.181V42.5H173.838ZM175.519 26.3054C174.989 26.3054 174.534 26.13 174.152 25.7791C173.771 25.4221 173.58 24.9943 173.58 24.4957C173.58 23.991 173.771 23.5632 174.152 23.2124C174.534 22.8553 174.989 22.6768 175.519 22.6768C176.054 22.6768 176.51 22.8553 176.885 23.2124C177.267 23.5632 177.458 23.991 177.458 24.4957C177.458 24.9943 177.267 25.4221 176.885 25.7791C176.51 26.13 176.054 26.3054 175.519 26.3054ZM180.618 47.8182V28.3182H183.905V30.6634H184.099C184.271 30.3187 184.514 29.9524 184.828 29.5646C185.142 29.1707 185.567 28.8352 186.102 28.5582C186.638 28.2751 187.321 28.1335 188.152 28.1335C189.247 28.1335 190.235 28.4136 191.116 28.9737C192.002 29.5277 192.704 30.3494 193.221 31.4389C193.744 32.5223 194.006 33.8518 194.006 35.4276C194.006 36.9848 193.75 38.3082 193.239 39.3977C192.728 40.4872 192.033 41.3182 191.153 41.8906C190.272 42.4631 189.275 42.7493 188.161 42.7493C187.349 42.7493 186.675 42.6139 186.139 42.343C185.604 42.0722 185.173 41.746 184.846 41.3643C184.526 40.9766 184.277 40.6103 184.099 40.2656H183.96V47.8182H180.618ZM183.895 35.4091C183.895 36.3262 184.025 37.1295 184.283 37.8189C184.548 38.5083 184.926 39.0469 185.419 39.4347C185.917 39.8163 186.521 40.0071 187.229 40.0071C187.967 40.0071 188.586 39.8101 189.084 39.4162C189.583 39.0161 189.958 38.4714 190.211 37.782C190.469 37.0864 190.599 36.2955 190.599 35.4091C190.599 34.5289 190.472 33.7472 190.22 33.0639C189.968 32.3807 189.592 31.8452 189.094 31.4574C188.595 31.0696 187.973 30.8757 187.229 30.8757C186.515 30.8757 185.908 31.0634 185.41 31.4389C184.911 31.8144 184.532 32.3407 184.274 33.0178C184.022 33.6948 183.895 34.492 183.895 35.4091ZM203.949 28.3182V30.9034H195.797V28.3182H203.949ZM197.809 24.9205H201.152V38.2344C201.152 38.6837 201.22 39.0284 201.355 39.2685C201.497 39.5024 201.681 39.6624 201.909 39.7486C202.137 39.8348 202.389 39.8778 202.666 39.8778C202.875 39.8778 203.066 39.8625 203.238 39.8317C203.417 39.8009 203.552 39.7732 203.645 39.7486L204.208 42.3615C204.029 42.4231 203.774 42.4908 203.442 42.5646C203.115 42.6385 202.715 42.6816 202.241 42.6939C201.404 42.7185 200.65 42.5923 199.979 42.3153C199.308 42.0322 198.776 41.5952 198.382 41.0043C197.994 40.4134 197.803 39.6747 197.809 38.7884V24.9205Z" fill="black"/>
<defs>
<clipPath id="clip0_85_1152">
<rect width="46" height="46" fill="white" transform="translate(10.5 10)"/>
</clipPath>
</defs>
</svg>
