<svg width="159" height="66" viewBox="0 0 159 66" fill="none" xmlns="http://www.w3.org/2000/svg">
<rect x="0.5" width="158" height="66" rx="10" fill="#0868AC"/>
<g clip-path="url(#clip0_85_1156)">
<path d="M13.4229 21.2508C9.34808 27.1043 9.85408 34.7173 12.9687 40.933C13.0396 41.0845 13.1182 41.2282 13.1948 41.372C13.2389 41.4716 13.2887 41.5636 13.3424 41.6595C13.3673 41.7112 13.4018 41.7668 13.4325 41.8166C13.4823 41.9163 13.536 42.0121 13.5877 42.108L13.8887 42.6178C13.9462 42.7117 13.9979 42.8037 14.0612 42.8976C14.1685 43.0778 14.2912 43.256 14.4023 43.4362C14.4522 43.5129 14.4982 43.5857 14.5537 43.6605C14.7396 43.9531 14.9378 44.2376 15.1479 44.5134C15.2974 44.7185 15.4469 44.9178 15.6079 45.1171C15.6597 45.19 15.7191 45.2628 15.7727 45.3375L16.1944 45.8531C16.2481 45.9106 16.2998 45.9815 16.3554 46.0429C16.5432 46.269 16.7426 46.4895 16.9419 46.7137L16.9515 46.7252C17.1949 47.0322 17.4677 47.3147 17.7661 47.5685C17.9194 47.7276 18.0727 47.8848 18.2357 48.0381L18.4292 48.224C18.642 48.4253 18.8567 48.6246 19.0809 48.8163C19.0847 48.8163 19.0867 48.8201 19.0905 48.822L19.1997 48.9179C19.3952 49.0885 19.5927 49.259 19.7939 49.4162L20.0335 49.6175C20.1964 49.7478 20.367 49.8724 20.5318 50.0008L20.7944 50.202C20.9727 50.3362 21.1624 50.4685 21.3445 50.5988C21.4116 50.6467 21.4787 50.6946 21.5477 50.7387L21.6052 50.7828L22.1418 51.1374L22.3718 51.2907C22.6555 51.4709 22.9353 51.6434 23.2152 51.812C23.2937 51.8504 23.3762 51.8964 23.4509 51.9424C23.6579 52.0612 23.8726 52.182 24.0815 52.2931C24.1965 52.3583 24.3153 52.4139 24.4342 52.4733C24.5779 52.5538 24.7274 52.6324 24.8827 52.7129C24.9197 52.7242 24.9557 52.739 24.99 52.757C25.0532 52.7857 25.1127 52.8164 25.174 52.847C25.404 52.962 25.6436 53.0732 25.8927 53.1825C25.9387 53.2016 25.9886 53.2208 26.0384 53.2476C26.3144 53.3684 26.5923 53.4834 26.8779 53.5965C26.9431 53.6156 27.0121 53.6482 27.0792 53.6731C27.3379 53.7709 27.6043 53.8705 27.8669 53.9645L27.9627 53.999C28.2579 54.0986 28.5473 54.1945 28.8444 54.2865C28.9134 54.3056 28.9843 54.3305 29.0572 54.3497C29.3638 54.4417 29.659 54.551 29.9657 54.6123C49.6556 58.2003 55.3768 42.773 55.3768 42.773C50.5698 49.0329 42.0407 50.6831 33.96 48.847C33.661 48.778 33.362 48.6821 33.0592 48.594C32.6944 48.4857 32.3321 48.3694 31.9724 48.2451L31.8536 48.1991C31.5929 48.111 31.3418 48.0132 31.0869 47.9155C31.0176 47.8874 30.9473 47.8618 30.8761 47.8388C30.5924 47.7238 30.3202 47.6069 30.0462 47.4861C29.9867 47.467 29.9369 47.4401 29.8775 47.4171C29.6453 47.3105 29.414 47.2019 29.1837 47.0913C29.1146 47.0608 29.0469 47.0275 28.9805 46.9916C28.8003 46.9073 28.6202 46.8095 28.4438 46.7175C28.3227 46.6594 28.2032 46.5981 28.0854 46.5336C27.8669 46.4185 27.6503 46.294 27.4337 46.1751C27.3686 46.1291 27.2938 46.0908 27.2191 46.0486C26.9358 45.8807 26.6553 45.7082 26.3777 45.5311C26.3006 45.4838 26.2252 45.434 26.1515 45.3816C25.9481 45.2556 25.7487 45.1233 25.5535 44.9849C25.4864 44.9408 25.4251 44.8929 25.3561 44.845C25.1651 44.7131 24.9765 44.5776 24.7907 44.4386C24.7102 44.3735 24.6239 44.3121 24.5377 44.247C24.369 44.1128 24.1984 43.9882 24.0297 43.8483L23.8036 43.6662C23.5859 43.4918 23.3718 43.3128 23.1615 43.1295C23.1398 43.1076 23.116 43.0877 23.0906 43.0701L22.4255 42.4645L22.2338 42.2843C22.0767 42.1233 21.9157 41.97 21.7547 41.8128L21.5668 41.6211C21.3644 41.4197 21.1669 41.2132 20.9746 41.002L20.9458 40.9714C20.7427 40.749 20.5433 40.521 20.3459 40.291C20.2942 40.2335 20.2443 40.1683 20.1926 40.105L19.7575 39.5741C19.5365 39.2902 19.3192 39.0033 19.1058 38.7135C14.6247 32.5975 13.0032 24.1526 16.5892 17.2277M26.0633 16.3211C23.1117 20.5589 23.2765 26.2284 25.5765 30.7115C25.9566 31.4658 26.3909 32.1916 26.876 32.883C27.3168 33.5155 27.8037 34.265 28.3959 34.7767C28.601 35.0105 28.8233 35.2367 29.0552 35.4667L29.2277 35.6392C29.4462 35.85 29.6724 36.0551 29.8986 36.2621L29.9292 36.287C30.1878 36.5127 30.4523 36.7313 30.7227 36.9425C30.7879 36.9866 30.8435 37.0384 30.9067 37.0825C31.1751 37.2895 31.4472 37.4888 31.7271 37.6881L31.7558 37.7054C31.8747 37.7916 32.0012 37.8702 32.1353 37.9545C32.189 37.989 32.2503 38.035 32.3078 38.0695C32.511 38.1999 32.7103 38.3225 32.9173 38.4471C32.9499 38.4605 32.9787 38.4778 33.0093 38.4912C33.1818 38.5966 33.3697 38.6982 33.5498 38.7921C33.6131 38.8305 33.6744 38.8592 33.7415 38.8956C33.868 38.9589 33.9945 39.026 34.1191 39.0911L34.1804 39.118C34.4392 39.2464 34.7037 39.3652 34.9624 39.4821C35.0276 39.509 35.0832 39.53 35.1387 39.5569C35.3515 39.6489 35.5681 39.737 35.7827 39.8195C35.8786 39.852 35.9687 39.8904 36.0587 39.9191C36.2542 39.992 36.4612 40.059 36.6529 40.1261L36.9212 40.2124C37.203 40.2986 37.4867 40.4117 37.7818 40.4615C52.981 42.9781 56.5 31.2711 56.5 31.2711C53.3317 35.8328 47.2003 38.0044 40.6664 36.3081C40.3772 36.2334 40.0902 36.1503 39.8058 36.059C39.7138 36.0321 39.6333 36.0034 39.5452 35.9765C39.3458 35.9075 39.1407 35.8424 38.9472 35.7676L38.6712 35.6641C38.4546 35.5779 38.2361 35.4974 38.0272 35.4054C37.962 35.3766 37.9026 35.3575 37.8527 35.3287C37.5844 35.208 37.3142 35.0891 37.0516 34.9607L36.6567 34.7556L36.4287 34.6406C36.2568 34.5494 36.0875 34.4535 35.9207 34.3531C35.8799 34.3331 35.8402 34.3107 35.8019 34.286C35.5987 34.1595 35.386 34.0369 35.1924 33.9065C35.1272 33.8701 35.0678 33.826 35.0065 33.7877L34.6078 33.527C34.3318 33.3354 34.0616 33.1284 33.7875 32.9271C33.7262 32.8715 33.6667 32.8255 33.6073 32.7757C30.7342 30.5179 28.4687 27.4282 27.3935 23.9341C26.2627 20.2982 26.5118 16.2234 28.4668 12.9133M36.6932 12.6315C34.9509 15.1884 34.7842 18.3624 35.984 21.1799C37.2586 24.1756 39.8633 26.5274 42.8993 27.639C43.0239 27.687 43.1447 27.7272 43.275 27.7732L43.4437 27.825C43.62 27.8825 43.7982 27.9457 43.9803 27.986C52.3772 29.6055 54.6504 23.6735 55.2618 22.8033C53.2627 25.6745 49.9105 26.3625 45.7973 25.362C45.4622 25.2783 45.132 25.1759 44.8083 25.0554C44.4052 24.914 44.0098 24.7515 43.6238 24.5685C42.8932 24.2151 42.1986 23.7915 41.55 23.3035C37.8662 20.511 35.5834 15.1845 37.9869 10.8452" fill="white"/>
</g>
<path d="M66.272 28.3182H69.6143V43.3125C69.6143 44.3343 69.4205 45.1776 69.0327 45.8423C68.6449 46.5071 68.0848 47.0026 67.3523 47.3288C66.6198 47.6551 65.7304 47.8182 64.6839 47.8182C64.5608 47.8182 64.447 47.8151 64.3423 47.8089C64.2377 47.8089 64.1238 47.8059 64.0007 47.7997V45.076C64.093 45.0821 64.1761 45.0852 64.25 45.0852C64.3239 45.0914 64.4008 45.0945 64.4808 45.0945C65.121 45.0945 65.5795 44.9375 65.8565 44.6236C66.1335 44.3158 66.272 43.8634 66.272 43.2663V28.3182ZM67.9339 26.3054C67.3984 26.3054 66.9399 26.13 66.5582 25.7791C66.1828 25.4221 65.995 24.9943 65.995 24.4957C65.995 23.991 66.1828 23.5632 66.5582 23.2124C66.9399 22.8553 67.3984 22.6768 67.9339 22.6768C68.4633 22.6768 68.9157 22.8553 69.2912 23.2124C69.6728 23.5632 69.8636 23.991 69.8636 24.4957C69.8636 24.9943 69.6728 25.4221 69.2912 25.7791C68.9157 26.13 68.4633 26.3054 67.9339 26.3054ZM80.2438 36.1477H83.3461L85.1834 38.5298L86.4945 40.081L89.6429 44.125H86.3191L84.177 41.4105L83.263 40.1179L80.2438 36.1477ZM90.0953 33.0455C90.0953 35.0829 89.7137 36.8279 88.9505 38.2805C88.1934 39.727 87.1593 40.835 85.8482 41.6044C84.5433 42.3738 83.0629 42.7585 81.4071 42.7585C79.7514 42.7585 78.2679 42.3738 76.9569 41.6044C75.6519 40.8288 74.6178 39.7178 73.8546 38.2713C73.0975 36.8187 72.7189 35.0767 72.7189 33.0455C72.7189 31.008 73.0975 29.2661 73.8546 27.8196C74.6178 26.367 75.6519 25.2559 76.9569 24.4865C78.2679 23.7171 79.7514 23.3324 81.4071 23.3324C83.0629 23.3324 84.5433 23.7171 85.8482 24.4865C87.1593 25.2559 88.1934 26.367 88.9505 27.8196C89.7137 29.2661 90.0953 31.008 90.0953 33.0455ZM86.6515 33.0455C86.6515 31.6113 86.4268 30.4018 85.9775 29.4169C85.5343 28.4259 84.9187 27.678 84.1309 27.1733C83.343 26.6624 82.4351 26.407 81.4071 26.407C80.3792 26.407 79.4713 26.6624 78.6834 27.1733C77.8955 27.678 77.2769 28.4259 76.8276 29.4169C76.3844 30.4018 76.1628 31.6113 76.1628 33.0455C76.1628 34.4796 76.3844 35.6922 76.8276 36.6832C77.2769 37.6681 77.8955 38.416 78.6834 38.9268C79.4713 39.4316 80.3792 39.6839 81.4071 39.6839C82.4351 39.6839 83.343 39.4316 84.1309 38.9268C84.9187 38.416 85.5343 37.6681 85.9775 36.6832C86.4268 35.6922 86.6515 34.4796 86.6515 33.0455ZM102.251 36.5355V28.3182H105.593V42.5H102.352V39.9794H102.204C101.884 40.7734 101.358 41.4228 100.626 41.9276C99.8992 42.4323 99.0036 42.6847 97.9387 42.6847C97.0093 42.6847 96.1876 42.4785 95.4735 42.0661C94.7657 41.6475 94.2117 41.0412 93.8116 40.2472C93.4115 39.447 93.2115 38.4806 93.2115 37.348V28.3182H96.5538V36.831C96.5538 37.7296 96.8 38.4437 97.2924 38.973C97.7849 39.5024 98.4312 39.767 99.2314 39.767C99.7238 39.767 100.201 39.647 100.662 39.407C101.124 39.1669 101.503 38.8099 101.798 38.3359C102.1 37.8558 102.251 37.2557 102.251 36.5355ZM115.308 42.777C113.886 42.777 112.658 42.4815 111.624 41.8906C110.596 41.2936 109.805 40.4503 109.251 39.3608C108.697 38.2652 108.42 36.9756 108.42 35.4922C108.42 34.0334 108.697 32.7531 109.251 31.6513C109.812 30.5433 110.593 29.6816 111.597 29.0661C112.6 28.4444 113.779 28.1335 115.133 28.1335C116.007 28.1335 116.832 28.2751 117.607 28.5582C118.389 28.8352 119.078 29.2661 119.675 29.8509C120.279 30.4356 120.753 31.1804 121.097 32.0852C121.442 32.9839 121.614 34.0549 121.614 35.2983V36.3232H109.99V34.0703H118.411C118.404 33.4302 118.266 32.8608 117.995 32.3622C117.724 31.8575 117.346 31.4605 116.859 31.1712C116.379 30.8819 115.819 30.7372 115.179 30.7372C114.496 30.7372 113.896 30.9034 113.379 31.2358C112.862 31.562 112.458 31.9929 112.169 32.5284C111.886 33.0578 111.741 33.6394 111.735 34.2734V36.2401C111.735 37.0649 111.886 37.7727 112.188 38.3636C112.489 38.9484 112.911 39.3977 113.452 39.7116C113.994 40.0194 114.628 40.1733 115.354 40.1733C115.841 40.1733 116.281 40.1056 116.675 39.9702C117.069 39.8286 117.41 39.6224 117.7 39.3516C117.989 39.0807 118.207 38.7453 118.355 38.3452L121.476 38.696C121.279 39.5208 120.903 40.241 120.349 40.8565C119.802 41.4659 119.1 41.9399 118.244 42.2784C117.389 42.6108 116.41 42.777 115.308 42.777ZM124.442 42.5V28.3182H127.683V30.6818H127.83C128.089 29.8632 128.532 29.2322 129.16 28.7891C129.794 28.3397 130.517 28.1151 131.33 28.1151C131.514 28.1151 131.721 28.1243 131.948 28.1428C132.182 28.1551 132.376 28.1766 132.53 28.2074V31.282C132.388 31.2327 132.164 31.1896 131.856 31.1527C131.554 31.1096 131.262 31.0881 130.979 31.0881C130.369 31.0881 129.822 31.2204 129.335 31.4851C128.855 31.7436 128.477 32.1037 128.2 32.5653C127.923 33.027 127.784 33.5594 127.784 34.1626V42.5H124.442ZM137.26 47.8182C136.804 47.8182 136.382 47.7813 135.995 47.7074C135.613 47.6397 135.308 47.5597 135.081 47.4673L135.856 44.8636C136.342 45.0052 136.776 45.0729 137.158 45.0668C137.54 45.0606 137.875 44.9406 138.164 44.7067C138.46 44.4789 138.709 44.0973 138.912 43.5618L139.199 42.7955L134.056 28.3182H137.601L140.87 39.0284H141.017L144.295 28.3182H147.85L142.172 44.2173C141.907 44.9683 141.556 45.6115 141.119 46.147C140.682 46.6887 140.146 47.1011 139.512 47.3842C138.885 47.6735 138.134 47.8182 137.26 47.8182Z" fill="white"/>
<defs>
<clipPath id="clip0_85_1156">
<rect width="46" height="46" fill="white" transform="translate(10.5 10)"/>
</clipPath>
</defs>
</svg>
