<svg width="206" height="66" viewBox="0 0 206 66" fill="none" xmlns="http://www.w3.org/2000/svg">
<rect width="206" height="66" rx="10" fill="#007FFF"/>
<g clip-path="url(#clip0_85_1148)">
<path d="M48.9259 40.2986C49.1207 40.1866 49.2826 40.0254 49.3954 39.831C49.5084 39.6364 49.5681 39.4154 49.5686 39.1903L49.5917 31.7665C49.5921 31.5414 49.6519 31.3204 49.7649 31.1257C49.8782 30.9311 50.0408 30.7698 50.2363 30.6581L54.258 28.3432C54.4531 28.2316 54.674 28.1732 54.8988 28.1739C55.1239 28.1744 55.3448 28.2341 55.5396 28.3471C55.7343 28.4591 55.8962 28.6204 56.0091 28.8146C56.1214 29.0095 56.1805 29.2305 56.1803 29.4554V42.9522C56.1802 43.1779 56.1205 43.3996 56.0073 43.5948C55.8941 43.7901 55.7315 43.9521 55.5357 44.0644L40.3475 52.789C40.1536 52.9001 39.934 52.9585 39.7106 52.9585C39.4871 52.9585 39.2676 52.9001 39.0737 52.789L27.1548 45.9733C26.9584 45.8612 26.7951 45.6992 26.6814 45.5038C26.5679 45.3079 26.5081 45.0855 26.5082 44.8591V38.053C26.5082 38.0453 26.5159 38.0415 26.5236 38.0453C26.5313 38.0492 26.539 38.0453 26.539 38.0357V38.028C26.539 38.0222 26.5429 38.0184 26.5467 38.0145L36.3643 32.3765C36.372 32.3707 36.3681 32.3572 36.3585 32.3572C36.357 32.3572 36.3556 32.3569 36.3542 32.3562C36.3529 32.3555 36.3517 32.3546 36.3508 32.3534C36.35 32.3523 36.3494 32.351 36.349 32.3497C36.3487 32.3484 36.3487 32.347 36.3489 32.3457L36.3681 25.6743C36.369 25.4483 36.3103 25.2261 36.1978 25.0301C36.0852 24.8341 35.923 24.6713 35.7274 24.5582C35.5323 24.4455 35.3109 24.3862 35.0856 24.3862C34.8603 24.3862 34.639 24.4455 34.4439 24.5582L27.149 28.7646C26.9544 28.8766 26.7337 28.9355 26.5092 28.9355C26.2847 28.9355 26.064 28.8766 25.8694 28.7646L18.5495 24.5505C18.3545 24.4386 18.1336 24.3799 17.9089 24.3802C17.6841 24.3805 17.4633 24.4398 17.2687 24.5523C17.0741 24.6647 16.9124 24.8262 16.7998 25.0208C16.6872 25.2153 16.6277 25.436 16.6272 25.6608V37.7201C16.6272 37.9449 16.5683 38.1658 16.4561 38.3607C16.344 38.5555 16.1827 38.7175 15.9883 38.8304C15.7942 38.9431 15.5739 39.0028 15.3494 39.0036C15.1247 39.0042 14.9038 38.9458 14.7087 38.8343L10.6466 36.5117C10.4502 36.3996 10.2869 36.2376 10.1732 36.0422C10.0593 35.8458 9.99953 35.6227 10 35.3956L10.0366 14.3192C10.0373 14.0947 10.0968 13.8743 10.2093 13.68C10.3218 13.4858 10.4833 13.3244 10.6776 13.212C10.872 13.0997 11.0924 13.0403 11.3169 13.0397C11.5414 13.0391 11.7621 13.0975 11.957 13.2089L25.8694 21.2003C26.064 21.3123 26.2847 21.3712 26.5092 21.3712C26.7337 21.3712 26.9544 21.3123 27.149 21.2003L41.0576 13.2089C41.2526 13.0972 41.4736 13.0388 41.6983 13.0396C41.9234 13.04 42.1445 13.0997 42.3391 13.2127C42.5341 13.3254 42.696 13.4873 42.8086 13.6823C42.9202 13.8773 42.9786 14.0983 42.978 14.323V35.4052C42.978 35.6304 42.9203 35.8517 42.8067 36.0479C42.6936 36.2432 42.531 36.4051 42.3353 36.5175L35.052 40.7123C34.856 40.8252 34.6934 40.9879 34.5805 41.1838C34.4679 41.3792 34.4088 41.6009 34.4093 41.8265C34.4095 42.0522 34.4692 42.2739 34.5824 42.4692C34.6966 42.665 34.8606 42.827 35.0577 42.9387L39.0756 45.2267C39.2693 45.3363 39.488 45.394 39.7106 45.3941C39.9348 45.3938 40.1551 45.3347 40.3494 45.2228L48.9259 40.2967V40.2986ZM49.7687 21.387C49.7685 21.6134 49.8282 21.8358 49.9419 22.0316C50.0565 22.2277 50.2212 22.3897 50.4191 22.5011C50.6163 22.6125 50.8394 22.6698 51.0658 22.6671C51.2922 22.6644 51.5139 22.6018 51.7084 22.4858L55.5588 20.1766C55.7487 20.0628 55.9058 19.9017 56.0149 19.709C56.1245 19.516 56.1821 19.2979 56.1823 19.076V14.3731C56.1818 14.1465 56.1214 13.9241 56.0072 13.7284C55.8926 13.5328 55.7283 13.3709 55.5309 13.2594C55.3335 13.1479 55.1101 13.0906 54.8834 13.0934C54.6569 13.096 54.4352 13.1584 54.2407 13.2743L50.3922 15.5834C50.2016 15.697 50.0438 15.8581 49.9342 16.051C49.8253 16.2442 49.7683 16.4623 49.7687 16.6841V21.387Z" fill="white"/>
</g>
<path d="M66.5082 23.5909H70.7L76.3136 37.2926H76.5352L82.1489 23.5909H86.3406V42.5H83.0537V29.5092H82.8783L77.6524 42.4446H75.1965L69.9706 29.4815H69.7952V42.5H66.5082V23.5909ZM94.004 42.7862C93.1053 42.7862 92.2959 42.6262 91.5757 42.3061C90.8617 41.9799 90.2954 41.4998 89.8769 40.8658C89.4644 40.2318 89.2582 39.45 89.2582 38.5206C89.2582 37.7204 89.406 37.0587 89.7014 36.5355C89.9969 36.0123 90.4001 35.5938 90.9109 35.2798C91.4218 34.9659 91.9974 34.7289 92.6375 34.5689C93.2838 34.4027 93.9517 34.2827 94.6411 34.2088C95.472 34.1226 96.146 34.0457 96.6631 33.978C97.1801 33.9041 97.5556 33.7933 97.7895 33.6456C98.0296 33.4917 98.1496 33.2547 98.1496 32.9347V32.8793C98.1496 32.1837 97.9434 31.6451 97.531 31.2635C97.1186 30.8819 96.5246 30.6911 95.749 30.6911C94.9304 30.6911 94.281 30.8696 93.8009 31.2266C93.3269 31.5836 93.0068 32.0052 92.8406 32.4915L89.7199 32.0483C89.9661 31.1866 90.3724 30.4664 90.9386 29.8878C91.5049 29.303 92.1974 28.866 93.0161 28.5767C93.8347 28.2812 94.7395 28.1335 95.7305 28.1335C96.4138 28.1335 97.0939 28.2135 97.771 28.3736C98.4481 28.5336 99.0667 28.7983 99.6269 29.1676C100.187 29.5308 100.636 30.0263 100.975 30.6541C101.32 31.282 101.492 32.0668 101.492 33.0085V42.5H98.2788V40.5518H98.168C97.9649 40.9458 97.6787 41.3151 97.3094 41.6598C96.9462 41.9983 96.4876 42.2723 95.9337 42.4815C95.3858 42.6847 94.7426 42.7862 94.004 42.7862ZM94.8719 40.3303C95.5428 40.3303 96.1245 40.1979 96.6169 39.9332C97.1093 39.6624 97.4879 39.3054 97.7526 38.8622C98.0234 38.419 98.1588 37.9358 98.1588 37.4126V35.7415C98.0542 35.8277 97.8757 35.9077 97.6233 35.9815C97.3771 36.0554 97.1001 36.12 96.7923 36.1754C96.4846 36.2308 96.1799 36.2801 95.8783 36.3232C95.5767 36.3662 95.3151 36.4032 95.0935 36.4339C94.5949 36.5017 94.1486 36.6125 93.7547 36.7663C93.3608 36.9202 93.0499 37.1357 92.8222 37.4126C92.5944 37.6835 92.4805 38.0343 92.4805 38.4652C92.4805 39.0807 92.7052 39.5455 93.1546 39.8594C93.6039 40.1733 94.1763 40.3303 94.8719 40.3303ZM111.934 28.3182V30.9034H103.782V28.3182H111.934ZM105.794 24.9205H109.137V38.2344C109.137 38.6837 109.205 39.0284 109.34 39.2685C109.481 39.5024 109.666 39.6624 109.894 39.7486C110.122 39.8348 110.374 39.8778 110.651 39.8778C110.86 39.8778 111.051 39.8625 111.223 39.8317C111.402 39.8009 111.537 39.7732 111.63 39.7486L112.193 42.3615C112.014 42.4231 111.759 42.4908 111.427 42.5646C111.1 42.6385 110.7 42.6816 110.226 42.6939C109.389 42.7185 108.635 42.5923 107.964 42.3153C107.293 42.0322 106.761 41.5952 106.367 41.0043C105.979 40.4134 105.788 39.6747 105.794 38.7884V24.9205ZM120.856 42.777C119.434 42.777 118.206 42.4815 117.172 41.8906C116.144 41.2936 115.353 40.4503 114.799 39.3608C114.245 38.2652 113.968 36.9756 113.968 35.4922C113.968 34.0334 114.245 32.7531 114.799 31.6513C115.359 30.5433 116.141 29.6816 117.144 29.0661C118.147 28.4444 119.326 28.1335 120.68 28.1335C121.554 28.1335 122.379 28.2751 123.155 28.5582C123.936 28.8352 124.626 29.2661 125.223 29.8509C125.826 30.4356 126.3 31.1804 126.645 32.0852C126.989 32.9839 127.162 34.0549 127.162 35.2983V36.3232H115.538V34.0703H123.958C123.952 33.4302 123.813 32.8608 123.543 32.3622C123.272 31.8575 122.893 31.4605 122.407 31.1712C121.927 30.8819 121.367 30.7372 120.726 30.7372C120.043 30.7372 119.443 30.9034 118.926 31.2358C118.409 31.562 118.006 31.9929 117.717 32.5284C117.433 33.0578 117.289 33.6394 117.283 34.2734V36.2401C117.283 37.0649 117.433 37.7727 117.735 38.3636C118.037 38.9484 118.458 39.3977 119 39.7116C119.542 40.0194 120.176 40.1733 120.902 40.1733C121.388 40.1733 121.828 40.1056 122.222 39.9702C122.616 39.8286 122.958 39.6224 123.247 39.3516C123.536 39.0807 123.755 38.7453 123.903 38.3452L127.023 38.696C126.826 39.5208 126.451 40.241 125.897 40.8565C125.349 41.4659 124.647 41.9399 123.792 42.2784C122.936 42.6108 121.958 42.777 120.856 42.777ZM129.989 42.5V28.3182H133.23V30.6818H133.378C133.636 29.8632 134.08 29.2322 134.707 28.7891C135.341 28.3397 136.065 28.1151 136.877 28.1151C137.062 28.1151 137.268 28.1243 137.496 28.1428C137.73 28.1551 137.924 28.1766 138.077 28.2074V31.282C137.936 31.2327 137.711 31.1896 137.403 31.1527C137.102 31.1096 136.81 31.0881 136.526 31.0881C135.917 31.0881 135.369 31.2204 134.883 31.4851C134.403 31.7436 134.024 32.1037 133.747 32.5653C133.47 33.027 133.332 33.5594 133.332 34.1626V42.5H129.989ZM140.298 42.5V28.3182H143.64V42.5H140.298ZM141.978 26.3054C141.449 26.3054 140.994 26.13 140.612 25.7791C140.23 25.4221 140.039 24.9943 140.039 24.4957C140.039 23.991 140.23 23.5632 140.612 23.2124C140.994 22.8553 141.449 22.6768 141.978 22.6768C142.514 22.6768 142.969 22.8553 143.345 23.2124C143.727 23.5632 143.917 23.991 143.917 24.4957C143.917 24.9943 143.727 25.4221 143.345 25.7791C142.969 26.13 142.514 26.3054 141.978 26.3054ZM151.158 42.7862C150.26 42.7862 149.45 42.6262 148.73 42.3061C148.016 41.9799 147.45 41.4998 147.031 40.8658C146.619 40.2318 146.413 39.45 146.413 38.5206C146.413 37.7204 146.56 37.0587 146.856 36.5355C147.151 36.0123 147.554 35.5938 148.065 35.2798C148.576 34.9659 149.152 34.7289 149.792 34.5689C150.438 34.4027 151.106 34.2827 151.795 34.2088C152.626 34.1226 153.3 34.0457 153.817 33.978C154.334 33.9041 154.71 33.7933 154.944 33.6456C155.184 33.4917 155.304 33.2547 155.304 32.9347V32.8793C155.304 32.1837 155.098 31.6451 154.685 31.2635C154.273 30.8819 153.679 30.6911 152.903 30.6911C152.085 30.6911 151.435 30.8696 150.955 31.2266C150.481 31.5836 150.161 32.0052 149.995 32.4915L146.874 32.0483C147.12 31.1866 147.527 30.4664 148.093 29.8878C148.659 29.303 149.352 28.866 150.17 28.5767C150.989 28.2812 151.894 28.1335 152.885 28.1335C153.568 28.1335 154.248 28.2135 154.925 28.3736C155.602 28.5336 156.221 28.7983 156.781 29.1676C157.341 29.5308 157.791 30.0263 158.129 30.6541C158.474 31.282 158.646 32.0668 158.646 33.0085V42.5H155.433V40.5518H155.322C155.119 40.9458 154.833 41.3151 154.464 41.6598C154.101 41.9983 153.642 42.2723 153.088 42.4815C152.54 42.6847 151.897 42.7862 151.158 42.7862ZM152.026 40.3303C152.697 40.3303 153.279 40.1979 153.771 39.9332C154.264 39.6624 154.642 39.3054 154.907 38.8622C155.178 38.419 155.313 37.9358 155.313 37.4126V35.7415C155.208 35.8277 155.03 35.9077 154.778 35.9815C154.531 36.0554 154.254 36.12 153.947 36.1754C153.639 36.2308 153.334 36.2801 153.033 36.3232C152.731 36.3662 152.469 36.4032 152.248 36.4339C151.749 36.5017 151.303 36.6125 150.909 36.7663C150.515 36.9202 150.204 37.1357 149.976 37.4126C149.749 37.6835 149.635 38.0343 149.635 38.4652C149.635 39.0807 149.86 39.5455 150.309 39.8594C150.758 40.1733 151.331 40.3303 152.026 40.3303ZM165.349 23.5909V42.5H162.007V23.5909H165.349ZM187.303 23.5909H190.728V35.9446C190.728 37.2988 190.408 38.4898 189.768 39.5178C189.134 40.5457 188.242 41.349 187.091 41.9276C185.94 42.5 184.595 42.7862 183.056 42.7862C181.511 42.7862 180.163 42.5 179.012 41.9276C177.861 41.349 176.968 40.5457 176.334 39.5178C175.7 38.4898 175.383 37.2988 175.383 35.9446V23.5909H178.809V35.6584C178.809 36.4463 178.981 37.148 179.326 37.7635C179.677 38.379 180.169 38.8622 180.803 39.2131C181.437 39.5578 182.188 39.7301 183.056 39.7301C183.924 39.7301 184.675 39.5578 185.309 39.2131C185.949 38.8622 186.441 38.379 186.786 37.7635C187.131 37.148 187.303 36.4463 187.303 35.6584V23.5909ZM197.877 23.5909V42.5H194.452V23.5909H197.877Z" fill="white"/>
<defs>
<clipPath id="clip0_85_1148">
<rect width="46.1823" height="46.1823" fill="white" transform="translate(10 9.90869)"/>
</clipPath>
</defs>
</svg>
