<svg width="171" height="66" viewBox="0 0 171 66" fill="none" xmlns="http://www.w3.org/2000/svg">
<rect x="0.5" width="170" height="66" rx="10" fill="black"/>
<g clip-path="url(#clip0_85_1168)">
<path d="M46.2746 52.1245C42.6195 54.5721 38.2246 56 33.5 56C20.8059 56 10.5 45.6941 10.5 33C10.5 20.3059 20.8059 10 33.5 10C46.1941 10 56.5 20.3059 56.5 33C56.5 39.8674 53.4832 46.0352 48.7049 50.2519L28.1698 23.8H24.3V42.1923H27.3954V27.7311L46.2746 52.1245ZM39.8883 35.7696L42.9549 39.7198V23.8H39.8883V35.7696Z" fill="white"/>
</g>
<path d="M82.2713 23.5909V42.5H79.2244L70.3146 29.62H70.1577V42.5H66.7322V23.5909H69.7976L78.6982 36.4801H78.8643V23.5909H82.2713ZM92.1344 42.777C90.7125 42.777 89.4846 42.4815 88.4505 41.8906C87.4225 41.2936 86.6316 40.4503 86.0776 39.3608C85.5236 38.2652 85.2466 36.9756 85.2466 35.4922C85.2466 34.0334 85.5236 32.7531 86.0776 31.6513C86.6377 30.5433 87.4194 29.6816 88.4228 29.0661C89.4261 28.4444 90.6048 28.1335 91.959 28.1335C92.833 28.1335 93.6578 28.2751 94.4334 28.5582C95.2151 28.8352 95.9045 29.2661 96.5016 29.8509C97.1048 30.4356 97.5788 31.1804 97.9235 32.0852C98.2682 32.9839 98.4405 34.0549 98.4405 35.2983V36.3232H86.8162V34.0703H95.2367C95.2305 33.4302 95.092 32.8608 94.8212 32.3622C94.5504 31.8575 94.1718 31.4605 93.6855 31.1712C93.2054 30.8819 92.6453 30.7372 92.0051 30.7372C91.3219 30.7372 90.7218 30.9034 90.2047 31.2358C89.6877 31.562 89.2845 31.9929 88.9952 32.5284C88.7121 33.0578 88.5674 33.6394 88.5613 34.2734V36.2401C88.5613 37.0649 88.7121 37.7727 89.0137 38.3636C89.3153 38.9484 89.7369 39.3977 90.2786 39.7116C90.8203 40.0194 91.4542 40.1733 92.1806 40.1733C92.6668 40.1733 93.1069 40.1056 93.5009 39.9702C93.8948 39.8286 94.2364 39.6224 94.5257 39.3516C94.815 39.0807 95.0336 38.7453 95.1813 38.3452L98.302 38.696C98.1051 39.5208 97.7296 40.241 97.1756 40.8565C96.6278 41.4659 95.9261 41.9399 95.0705 42.2784C94.2149 42.6108 93.2362 42.777 92.1344 42.777ZM103.696 28.3182L106.559 33.5533L109.467 28.3182H113.003L108.728 35.4091L113.077 42.5H109.559L106.559 37.3942L103.586 42.5H100.04L104.361 35.4091L100.151 28.3182H103.696ZM122.67 28.3182V30.9034H114.517V28.3182H122.67ZM116.53 24.9205H119.873V38.2344C119.873 38.6837 119.94 39.0284 120.076 39.2685C120.217 39.5024 120.402 39.6624 120.63 39.7486C120.857 39.8348 121.11 39.8778 121.387 39.8778C121.596 39.8778 121.787 39.8625 121.959 39.8317C122.138 39.8009 122.273 39.7732 122.365 39.7486L122.929 42.3615C122.75 42.4231 122.495 42.4908 122.162 42.5646C121.836 42.6385 121.436 42.6816 120.962 42.6939C120.125 42.7185 119.371 42.5923 118.7 42.3153C118.029 42.0322 117.497 41.5952 117.103 41.0043C116.715 40.4134 116.524 39.6747 116.53 38.7884V24.9205ZM127.524 42.7031C126.964 42.7031 126.484 42.5062 126.084 42.1122C125.684 41.7183 125.487 41.2382 125.493 40.6719C125.487 40.1179 125.684 39.6439 126.084 39.25C126.484 38.8561 126.964 38.6591 127.524 38.6591C128.066 38.6591 128.537 38.8561 128.937 39.25C129.343 39.6439 129.549 40.1179 129.556 40.6719C129.549 41.0473 129.451 41.389 129.26 41.6967C129.075 42.0045 128.829 42.2507 128.521 42.4354C128.22 42.6139 127.887 42.7031 127.524 42.7031ZM140.614 23.5909H144.012V36.8864C144.006 38.1051 143.747 39.1546 143.237 40.0348C142.726 40.9089 142.012 41.5829 141.094 42.0568C140.183 42.5246 139.122 42.7585 137.909 42.7585C136.801 42.7585 135.804 42.5616 134.918 42.1676C134.037 41.7675 133.339 41.1766 132.822 40.3949C132.305 39.6132 132.046 38.6406 132.046 37.4773H135.453C135.459 37.9882 135.57 38.4283 135.786 38.7976C136.007 39.1669 136.312 39.45 136.7 39.647C137.087 39.844 137.534 39.9425 138.038 39.9425C138.586 39.9425 139.051 39.8286 139.433 39.6009C139.814 39.367 140.103 39.0223 140.3 38.5668C140.504 38.1113 140.608 37.5511 140.614 36.8864V23.5909ZM158.789 32.0668L155.743 32.3991C155.656 32.0914 155.506 31.8021 155.29 31.5312C155.081 31.2604 154.798 31.0419 154.441 30.8757C154.084 30.7095 153.647 30.6264 153.13 30.6264C152.434 30.6264 151.849 30.7772 151.375 31.0788C150.908 31.3804 150.677 31.7713 150.683 32.2514C150.677 32.6638 150.828 32.9993 151.135 33.2578C151.449 33.5163 151.966 33.7287 152.686 33.8949L155.105 34.4119C156.447 34.7012 157.444 35.1598 158.097 35.7876C158.756 36.4155 159.088 37.2372 159.094 38.2528C159.088 39.1454 158.826 39.9332 158.309 40.6165C157.798 41.2936 157.087 41.8229 156.176 42.2045C155.266 42.5862 154.219 42.777 153.037 42.777C151.301 42.777 149.904 42.4138 148.846 41.6875C147.787 40.955 147.156 39.9363 146.953 38.6314L150.212 38.3175C150.36 38.9576 150.674 39.4408 151.154 39.767C151.634 40.0933 152.259 40.2564 153.028 40.2564C153.822 40.2564 154.459 40.0933 154.939 39.767C155.426 39.4408 155.669 39.0376 155.669 38.5575C155.669 38.1513 155.512 37.8158 155.198 37.5511C154.89 37.2865 154.41 37.0833 153.757 36.9418L151.338 36.4339C149.978 36.1508 148.972 35.6738 148.319 35.0028C147.667 34.3258 147.344 33.4702 147.35 32.4361C147.344 31.562 147.581 30.8049 148.061 30.1648C148.547 29.5185 149.221 29.0199 150.083 28.669C150.951 28.312 151.951 28.1335 153.083 28.1335C154.745 28.1335 156.053 28.4875 157.007 29.1953C157.968 29.9032 158.562 30.8603 158.789 32.0668Z" fill="white"/>
<defs>
<clipPath id="clip0_85_1168">
<rect width="46" height="46" fill="white" transform="translate(10.5 10)"/>
</clipPath>
</defs>
</svg>
