<svg width="147" height="66" viewBox="0 0 147 66" fill="none" xmlns="http://www.w3.org/2000/svg">
<rect x="0.5" width="146" height="66" rx="10" fill="black"/>
<g clip-path="url(#clip0_85_1160)">
<path d="M37.7742 33.0077C37.7742 34.144 37.3229 35.2338 36.5196 36.0375C35.7163 36.8411 34.6267 37.2929 33.4904 37.2934C32.3538 37.2934 31.2637 36.8419 30.46 36.0381C29.6563 35.2344 29.2048 34.1444 29.2048 33.0077C29.2048 31.8714 29.656 30.7816 30.4593 29.978C31.2626 29.1743 32.3522 28.7226 33.4885 28.7221C34.6251 28.7221 35.7152 29.1736 36.5189 29.9773C37.3226 30.781 37.7742 31.8711 37.7742 33.0077ZM42.8495 12.5186C40.2697 12.5186 36.8944 14.3586 33.4808 17.5441C30.0692 14.3758 26.692 12.5569 24.1141 12.5569C23.3282 12.5569 22.6133 12.7351 21.9943 13.0897C19.3588 14.6096 18.7685 19.3457 20.1293 25.2893C14.295 27.091 10.5 29.9717 10.5 33.0077C10.5 36.0552 14.3142 38.9436 20.1658 40.7319C18.8164 46.6985 19.4183 51.4422 22.0594 52.9602C22.6728 53.3186 23.3819 53.4873 24.1716 53.4873C26.7495 53.4873 30.1267 51.6473 33.5402 48.458C36.9519 51.6281 40.3291 53.4471 42.907 53.4471C43.6928 53.4471 44.4077 53.2746 45.0268 52.92C47.6603 51.402 48.2526 46.6659 46.8917 40.7204C52.705 38.9341 56.5 36.0476 56.5 33.0077C56.5 29.9602 52.6858 27.0718 46.8343 25.2797C48.1836 19.3189 47.5817 14.5713 44.9406 13.0514C44.3311 12.6987 43.6238 12.5205 42.8495 12.5186ZM42.8399 14.6077V14.6192C43.2712 14.6192 43.6181 14.7036 43.9094 14.8626C45.1859 15.5948 45.7398 18.3797 45.3086 21.962C45.2051 22.8436 45.0364 23.7732 44.8294 24.722C42.9894 24.2696 40.9846 23.9227 38.8743 23.6985C37.6093 21.9639 36.2964 20.3884 34.9739 19.0084C38.0252 16.1717 40.8907 14.6154 42.8418 14.6096L42.8399 14.6077ZM24.1141 14.6461C26.0538 14.6461 28.9326 16.1947 31.9916 19.0161C30.6768 20.3961 29.3657 21.962 28.1199 23.6966C25.9982 23.9208 23.9914 24.2677 22.1533 24.7277C21.9387 23.7886 21.7796 22.8801 21.6665 22.0061C21.2257 18.4257 21.77 15.6427 23.035 14.901C23.3992 14.7285 23.8017 14.6556 24.1141 14.6461ZM33.4712 20.4919C34.3433 21.3889 35.2154 22.3932 36.0779 23.4896C35.2346 23.4512 34.3721 23.4244 33.5 23.4244C32.6183 23.4244 31.7463 23.4436 30.8933 23.4896C31.7367 22.3932 32.6087 21.3908 33.4712 20.4919ZM33.5 25.5251C34.9183 25.5251 36.3309 25.5902 37.7205 25.7033C38.4987 26.8188 39.2577 28.0091 39.9879 29.2683C40.7009 30.495 41.3487 31.7408 41.9391 32.9981C41.3487 34.2536 40.7009 35.509 39.9975 36.7356C39.2692 38.0006 38.5159 39.2043 37.7358 40.3198C36.3405 40.4406 34.926 40.5076 33.5 40.5076C32.0817 40.5076 30.6691 40.4406 29.2795 40.3294C28.5013 39.2139 27.7423 38.0217 27.0121 36.7644C26.2991 35.5377 25.6512 34.2919 25.0609 33.0346C25.6417 31.7753 26.2991 30.518 27.0025 29.2894C27.7308 28.0244 28.4841 26.8246 29.2642 25.7091C30.6595 25.5864 32.074 25.5212 33.5 25.5212V25.5251ZM26.5329 26.0119C26.0729 26.7345 25.6129 27.4743 25.1836 28.2352C24.7523 28.9827 24.3498 29.7341 23.9665 30.4854C23.4586 29.2281 23.0273 27.9746 22.6708 26.7536C23.8975 26.4661 25.1912 26.2093 26.5329 26.0119ZM40.4479 26.0119C41.78 26.2093 43.0642 26.4527 44.2928 26.7536C43.9478 27.965 43.5165 29.2108 43.0278 30.4586C42.6444 29.7111 42.2419 28.9578 41.8011 28.2084C41.3698 27.4571 40.9098 26.7249 40.4498 26.0119H40.4479ZM46.3187 27.3056C47.2463 27.5931 48.128 27.9132 48.9541 28.2601C52.2738 29.6785 54.4204 31.5338 54.4204 33.0058C54.4108 34.4778 52.2642 36.3408 48.9445 37.7496C48.1395 38.0946 47.2578 38.4051 46.3474 38.6945C45.8107 36.8583 45.1092 34.9455 44.2391 32.9828C45.1016 31.0336 45.7916 29.1303 46.3187 27.3018V27.3056ZM20.6449 27.3133C21.1778 29.1533 21.8812 31.0642 22.7533 33.025C21.8907 34.9742 21.1969 36.8775 20.6718 38.706C19.7441 38.4185 18.8624 38.0965 18.0459 37.7476C14.7263 36.3351 12.5796 34.4778 12.5796 33.0058C12.5796 31.5338 14.7263 29.667 18.0459 28.2601C18.8509 27.9151 19.7326 27.6046 20.6449 27.3133ZM43.0278 35.5166C43.5357 36.7759 43.9669 38.0313 44.3234 39.2503C43.0967 39.5512 41.8011 39.8061 40.4594 39.9978C40.9194 39.2791 41.3794 38.5373 41.8107 37.7783C42.2419 37.0308 42.6425 36.268 43.0278 35.5166ZM23.9665 35.555C24.3498 36.3063 24.7523 37.0557 25.1932 37.8071C25.634 38.5546 26.0844 39.2867 26.5444 39.9978C25.2123 39.8023 23.9282 39.557 22.6996 39.258C23.0446 38.0505 23.4777 36.8008 23.9646 35.5531L23.9665 35.555ZM44.8467 41.2801C45.0613 42.225 45.23 43.1354 45.3335 44.0075C45.7743 47.5878 45.23 50.3708 43.965 51.1145C43.6832 51.287 43.3172 51.3598 42.8859 51.3598C40.9462 51.3598 38.0674 49.8131 35.0084 46.9898C36.3232 45.6098 37.6343 44.0458 38.8801 42.3131C41.0018 42.087 43.0086 41.7401 44.8467 41.2801ZM22.1725 41.2992C24.0125 41.7477 26.0173 42.0946 28.1276 42.3189C29.3926 44.0535 30.7055 45.629 32.028 47.0071C28.9709 49.8495 26.1017 51.4058 24.1505 51.4058C23.7288 51.3962 23.3723 51.31 23.0906 51.1528C21.8141 50.4245 21.2602 47.6376 21.6914 44.0554C21.7949 43.1737 21.9655 42.2461 22.1725 41.2992ZM30.9125 42.5259C31.7558 42.5642 32.6183 42.5911 33.4904 42.5911C34.3721 42.5911 35.2442 42.5719 36.0971 42.5259C35.2537 43.6222 34.3817 44.6246 33.5192 45.5255C32.6471 44.6246 31.775 43.6222 30.9125 42.5259Z" fill="#61DAFB"/>
</g>
<path d="M66.3992 42.5V23.5909H73.4901C74.9428 23.5909 76.1615 23.8433 77.1464 24.348C78.1374 24.8527 78.8853 25.5606 79.39 26.4716C79.9009 27.3764 80.1563 28.4321 80.1563 29.6385C80.1563 30.8511 79.8978 31.9036 79.3808 32.7962C78.8699 33.6825 78.1159 34.3688 77.1187 34.8551C76.1215 35.3352 74.8966 35.5753 73.444 35.5753H68.3936V32.7315H72.9823C73.8318 32.7315 74.5273 32.6146 75.069 32.3807C75.6106 32.1406 76.0107 31.7928 76.2693 31.3374C76.5339 30.8757 76.6663 30.3094 76.6663 29.6385C76.6663 28.9676 76.5339 28.3951 76.2693 27.9212C76.0046 27.4411 75.6014 27.0779 75.0597 26.8317C74.5181 26.5793 73.8195 26.4531 72.9639 26.4531H69.8247V42.5H66.3992ZM76.1677 33.9318L80.8488 42.5H77.0264L72.4284 33.9318H76.1677ZM89.2369 42.777C87.8151 42.777 86.5871 42.4815 85.553 41.8906C84.5251 41.2936 83.7341 40.4503 83.1801 39.3608C82.6262 38.2652 82.3492 36.9756 82.3492 35.4922C82.3492 34.0334 82.6262 32.7531 83.1801 31.6513C83.7403 30.5433 84.522 29.6816 85.5253 29.0661C86.5286 28.4444 87.7074 28.1335 89.0615 28.1335C89.9356 28.1335 90.7604 28.2751 91.536 28.5582C92.3177 28.8352 93.0071 29.2661 93.6041 29.8509C94.2074 30.4356 94.6813 31.1804 95.026 32.0852C95.3707 32.9839 95.5431 34.0549 95.5431 35.2983V36.3232H83.9188V34.0703H92.3392C92.3331 33.4302 92.1946 32.8608 91.9237 32.3622C91.6529 31.8575 91.2744 31.4605 90.7881 31.1712C90.308 30.8819 89.7478 30.7372 89.1077 30.7372C88.4244 30.7372 87.8243 30.9034 87.3073 31.2358C86.7902 31.562 86.387 31.9929 86.0977 32.5284C85.8146 33.0578 85.67 33.6394 85.6638 34.2734V36.2401C85.6638 37.0649 85.8146 37.7727 86.1162 38.3636C86.4178 38.9484 86.8395 39.3977 87.3811 39.7116C87.9228 40.0194 88.5568 40.1733 89.2831 40.1733C89.7694 40.1733 90.2095 40.1056 90.6034 39.9702C90.9974 39.8286 91.339 39.6224 91.6283 39.3516C91.9176 39.0807 92.1361 38.7453 92.2838 38.3452L95.4046 38.696C95.2076 39.5208 94.8321 40.241 94.2781 40.8565C93.7303 41.4659 93.0286 41.9399 92.173 42.2784C91.3174 42.6108 90.3387 42.777 89.2369 42.777ZM102.452 42.7862C101.553 42.7862 100.744 42.6262 100.023 42.3061C99.3093 41.9799 98.743 41.4998 98.3245 40.8658C97.9121 40.2318 97.7059 39.45 97.7059 38.5206C97.7059 37.7204 97.8536 37.0587 98.1491 36.5355C98.4445 36.0123 98.8477 35.5938 99.3586 35.2798C99.8695 34.9659 100.445 34.7289 101.085 34.5689C101.731 34.4027 102.399 34.2827 103.089 34.2088C103.92 34.1226 104.594 34.0457 105.111 33.978C105.628 33.9041 106.003 33.7933 106.237 33.6456C106.477 33.4917 106.597 33.2547 106.597 32.9347V32.8793C106.597 32.1837 106.391 31.6451 105.979 31.2635C105.566 30.8819 104.972 30.6911 104.197 30.6911C103.378 30.6911 102.729 30.8696 102.248 31.2266C101.775 31.5836 101.454 32.0052 101.288 32.4915L98.1675 32.0483C98.4137 31.1866 98.82 30.4664 99.3863 29.8878C99.9526 29.303 100.645 28.866 101.464 28.5767C102.282 28.2812 103.187 28.1335 104.178 28.1335C104.861 28.1335 105.542 28.2135 106.219 28.3736C106.896 28.5336 107.514 28.7983 108.074 29.1676C108.635 29.5308 109.084 30.0263 109.422 30.6541C109.767 31.282 109.94 32.0668 109.94 33.0085V42.5H106.726V40.5518H106.616C106.413 40.9458 106.126 41.3151 105.757 41.6598C105.394 41.9983 104.935 42.2723 104.381 42.4815C103.833 42.6847 103.19 42.7862 102.452 42.7862ZM103.32 40.3303C103.99 40.3303 104.572 40.1979 105.065 39.9332C105.557 39.6624 105.936 39.3054 106.2 38.8622C106.471 38.419 106.606 37.9358 106.606 37.4126V35.7415C106.502 35.8277 106.323 35.9077 106.071 35.9815C105.825 36.0554 105.548 36.12 105.24 36.1754C104.932 36.2308 104.628 36.2801 104.326 36.3232C104.024 36.3662 103.763 36.4032 103.541 36.4339C103.043 36.5017 102.596 36.6125 102.202 36.7663C101.808 36.9202 101.498 37.1357 101.27 37.4126C101.042 37.6835 100.928 38.0343 100.928 38.4652C100.928 39.0807 101.153 39.5455 101.602 39.8594C102.052 40.1733 102.624 40.3303 103.32 40.3303ZM119.486 42.777C118.071 42.777 116.855 42.4661 115.839 41.8445C114.83 41.2228 114.051 40.3641 113.503 39.2685C112.962 38.1667 112.691 36.8987 112.691 35.4645C112.691 34.0241 112.968 32.7531 113.522 31.6513C114.076 30.5433 114.858 29.6816 115.867 29.0661C116.883 28.4444 118.083 28.1335 119.468 28.1335C120.619 28.1335 121.638 28.3459 122.524 28.7706C123.417 29.1892 124.128 29.7831 124.657 30.5526C125.186 31.3158 125.488 32.2083 125.562 33.2301H122.367C122.238 32.5469 121.93 31.9775 121.444 31.522C120.964 31.0604 120.32 30.8295 119.514 30.8295C118.831 30.8295 118.231 31.0142 117.714 31.3835C117.197 31.7467 116.793 32.2699 116.504 32.9531C116.221 33.6364 116.079 34.455 116.079 35.4091C116.079 36.3755 116.221 37.2064 116.504 37.902C116.787 38.5914 117.184 39.1238 117.695 39.4993C118.212 39.8686 118.819 40.0533 119.514 40.0533C120.007 40.0533 120.447 39.9609 120.834 39.7763C121.228 39.5855 121.558 39.3116 121.822 38.9545C122.087 38.5975 122.269 38.1636 122.367 37.6527H125.562C125.482 38.656 125.186 39.5455 124.675 40.321C124.164 41.0904 123.469 41.6937 122.589 42.1307C121.708 42.5616 120.674 42.777 119.486 42.777ZM135.388 28.3182V30.9034H127.235V28.3182H135.388ZM129.248 24.9205H132.59V38.2344C132.59 38.6837 132.658 39.0284 132.793 39.2685C132.935 39.5024 133.12 39.6624 133.347 39.7486C133.575 39.8348 133.828 39.8778 134.104 39.8778C134.314 39.8778 134.505 39.8625 134.677 39.8317C134.855 39.8009 134.991 39.7732 135.083 39.7486L135.646 42.3615C135.468 42.4231 135.212 42.4908 134.88 42.5646C134.554 42.6385 134.154 42.6816 133.68 42.6939C132.843 42.7185 132.089 42.5923 131.418 42.3153C130.747 42.0322 130.214 41.5952 129.82 41.0043C129.433 40.4134 129.242 39.6747 129.248 38.7884V24.9205Z" fill="white"/>
<defs>
<clipPath id="clip0_85_1160">
<rect width="46" height="46" fill="white" transform="translate(10.5 10)"/>
</clipPath>
</defs>
</svg>
