<svg width="152" height="66" viewBox="0 0 152 66" fill="none" xmlns="http://www.w3.org/2000/svg">
<rect x="0.5" width="151" height="66" rx="10" fill="black"/>
<path d="M51.7294 45.4737C52.1434 50.7886 52.1434 53.2803 52.1434 56H39.8441C39.8441 55.4077 39.8556 54.8653 39.8652 54.3172C39.8997 52.6075 39.9342 50.8269 39.6563 47.2293C39.2921 41.9642 37.0228 40.7932 32.8521 40.7932H13.5168V31.2098H33.4425C38.7095 31.2098 41.343 29.6094 41.343 25.3659C41.343 21.6361 38.7095 19.3763 33.4425 19.3763H13.5149V10H35.6351C47.5587 10 53.4851 15.6312 53.4851 24.628C53.4851 31.3574 49.3144 35.7447 43.6832 36.4768C48.4366 37.4294 51.2157 40.1357 51.7294 45.4737ZM13.5149 56V48.8566H26.5176C28.6891 48.8566 29.1606 50.4666 29.1606 51.4287V56H13.5149Z" fill="white"/>
<path d="M66.4363 42.5V23.5909H73.5273C74.9799 23.5909 76.1987 23.8433 77.1835 24.348C78.1745 24.8527 78.9224 25.5606 79.4271 26.4716C79.938 27.3764 80.1934 28.4321 80.1934 29.6385C80.1934 30.8511 79.9349 31.9036 79.4179 32.7962C78.907 33.6825 78.153 34.3688 77.1558 34.8551C76.1586 35.3352 74.9337 35.5753 73.4811 35.5753H68.4307V32.7315H73.0194C73.8689 32.7315 74.5644 32.6146 75.1061 32.3807C75.6478 32.1406 76.0479 31.7928 76.3064 31.3374C76.5711 30.8757 76.7034 30.3094 76.7034 29.6385C76.7034 28.9676 76.5711 28.3951 76.3064 27.9212C76.0417 27.4411 75.6385 27.0779 75.0969 26.8317C74.5552 26.5793 73.8566 26.4531 73.001 26.4531H69.8618V42.5H66.4363ZM76.2048 33.9318L80.8859 42.5H77.0635L72.4655 33.9318H76.2048ZM89.2741 42.777C87.8522 42.777 86.6242 42.4815 85.5901 41.8906C84.5622 41.2936 83.7712 40.4503 83.2172 39.3608C82.6633 38.2652 82.3863 36.9756 82.3863 35.4922C82.3863 34.0334 82.6633 32.7531 83.2172 31.6513C83.7774 30.5433 84.5591 29.6816 85.5624 29.0661C86.5657 28.4444 87.7445 28.1335 89.0986 28.1335C89.9727 28.1335 90.7975 28.2751 91.5731 28.5582C92.3548 28.8352 93.0442 29.2661 93.6412 29.8509C94.2445 30.4356 94.7184 31.1804 95.0631 32.0852C95.4078 32.9839 95.5802 34.0549 95.5802 35.2983V36.3232H83.9559V34.0703H92.3763C92.3702 33.4302 92.2317 32.8608 91.9608 32.3622C91.69 31.8575 91.3115 31.4605 90.8252 31.1712C90.3451 30.8819 89.7849 30.7372 89.1448 30.7372C88.4616 30.7372 87.8614 30.9034 87.3444 31.2358C86.8273 31.562 86.4242 31.9929 86.1349 32.5284C85.8517 33.0578 85.7071 33.6394 85.7009 34.2734V36.2401C85.7009 37.0649 85.8517 37.7727 86.1533 38.3636C86.4549 38.9484 86.8766 39.3977 87.4182 39.7116C87.9599 40.0194 88.5939 40.1733 89.3202 40.1733C89.8065 40.1733 90.2466 40.1056 90.6405 39.9702C91.0345 39.8286 91.3761 39.6224 91.6654 39.3516C91.9547 39.0807 92.1732 38.7453 92.3209 38.3452L95.4417 38.696C95.2447 39.5208 94.8692 40.241 94.3153 40.8565C93.7674 41.4659 93.0657 41.9399 92.2101 42.2784C91.3546 42.6108 90.3759 42.777 89.2741 42.777ZM98.4078 42.5V28.3182H101.602V30.728H101.769C102.064 29.9155 102.553 29.2815 103.237 28.826C103.92 28.3643 104.735 28.1335 105.683 28.1335C106.644 28.1335 107.453 28.3674 108.112 28.8352C108.776 29.2969 109.244 29.9278 109.515 30.728H109.663C109.977 29.9401 110.506 29.3123 111.251 28.8445C112.002 28.3705 112.891 28.1335 113.919 28.1335C115.224 28.1335 116.289 28.5459 117.114 29.3707C117.939 30.1955 118.351 31.3989 118.351 32.9808V42.5H114.999V33.4979C114.999 32.6177 114.765 31.9744 114.298 31.5682C113.83 31.1558 113.257 30.9496 112.58 30.9496C111.774 30.9496 111.143 31.2019 110.688 31.7067C110.238 32.2053 110.014 32.8546 110.014 33.6548V42.5H106.736V33.3594C106.736 32.6269 106.514 32.0421 106.071 31.6051C105.634 31.1681 105.062 30.9496 104.354 30.9496C103.874 30.9496 103.437 31.0727 103.043 31.3189C102.649 31.5589 102.335 31.9006 102.101 32.3438C101.867 32.7808 101.75 33.2917 101.75 33.8764V42.5H98.4078ZM121.742 42.5V28.3182H125.084V42.5H121.742ZM123.422 26.3054C122.893 26.3054 122.437 26.13 122.056 25.7791C121.674 25.4221 121.483 24.9943 121.483 24.4957C121.483 23.991 121.674 23.5632 122.056 23.2124C122.437 22.8553 122.893 22.6768 123.422 22.6768C123.958 22.6768 124.413 22.8553 124.789 23.2124C125.17 23.5632 125.361 23.991 125.361 24.4957C125.361 24.9943 125.17 25.4221 124.789 25.7791C124.413 26.13 123.958 26.3054 123.422 26.3054ZM131.254 28.3182L134.116 33.5533L137.025 28.3182H140.561L136.286 35.4091L140.635 42.5H137.117L134.116 37.3942L131.143 42.5H127.598L131.919 35.4091L127.709 28.3182H131.254Z" fill="white"/>
</svg>
