<svg width="142" height="66" viewBox="0 0 142 66" fill="none" xmlns="http://www.w3.org/2000/svg">
<rect width="142" height="66" rx="9.23645" fill="#CC6699"/>
<g clip-path="url(#clip0_85_1133)">
<path fill-rule="evenodd" clip-rule="evenodd" d="M32.9093 10C45.5617 10 55.8185 20.2569 55.8185 32.9092C55.8185 45.5617 45.5617 55.8185 32.9093 55.8185C20.2569 55.8185 10 45.5617 10 32.9092C10 20.2569 20.2569 10 32.9093 10Z" fill="#FAFAFA"/>
<path d="M47.4272 19.8442C46.3856 15.7593 39.6125 14.4164 33.2021 16.6939C29.3871 18.0492 25.2571 20.1764 22.2876 22.954C18.7568 26.2565 18.1938 29.1309 18.4258 30.332C19.2445 34.57 25.0514 37.3401 27.4385 39.3954V39.4079C26.7346 39.7543 21.5828 42.3616 20.377 45.0272C19.1049 47.8392 20.5796 49.8571 21.5559 50.1287C24.5808 50.9703 27.6849 49.4565 29.3532 46.9683C30.9629 44.5671 30.8289 41.4662 30.1293 39.9239C31.0943 39.6692 32.2194 39.5551 33.6492 39.7222C37.6838 40.1934 38.4754 42.7126 38.3241 43.7668C38.1728 44.8212 37.3265 45.4009 37.0435 45.5758C36.7606 45.751 36.6742 45.8116 36.698 45.9417C36.7323 46.1308 36.8633 46.1238 37.1045 46.0829C37.4367 46.027 39.2232 45.2253 39.2995 43.2792C39.3968 40.8082 37.0289 38.0443 32.8362 38.1165C31.1095 38.1463 30.0238 38.3105 29.2394 38.6024C29.1814 38.5363 29.1224 38.4706 29.0614 38.4055C26.4694 35.64 21.6777 33.6839 21.8809 29.9661C21.9549 28.6145 22.4247 25.0555 31.0881 20.7385C38.1851 17.2022 43.8665 18.1753 44.8483 20.332C46.2509 23.4132 41.8119 29.14 34.4418 29.9661C31.6338 30.2809 30.1553 29.1926 29.7875 28.7873C29.4002 28.3605 29.3426 28.3413 29.198 28.4213C28.9625 28.5518 29.1117 28.9285 29.198 29.153C29.4181 29.7257 30.321 30.7413 31.8606 31.2465C33.2149 31.6909 36.5117 31.935 40.4989 30.3929C44.9643 28.6656 48.4514 23.8606 47.4272 19.8442ZM28.4292 40.6613C28.7638 41.8991 28.7271 43.0534 28.3814 44.0987C28.1065 44.9301 27.6337 45.684 27.0436 46.3278C25.7073 47.7857 23.8402 48.3369 23.0396 47.8725C22.175 47.3714 22.608 45.3158 24.1575 43.6781C25.8243 41.9161 28.2225 40.7831 28.2225 40.7831L28.2189 40.7759C28.2879 40.7387 28.358 40.7005 28.4292 40.6613Z" fill="#CC6699"/>
</g>
<path d="M76.2116 28.7891C76.1255 27.9827 75.7623 27.3549 75.1222 26.9055C74.4882 26.4562 73.6634 26.2315 72.6477 26.2315C71.9337 26.2315 71.3213 26.3393 70.8104 26.5547C70.2995 26.7701 69.9086 27.0625 69.6378 27.4318C69.367 27.8011 69.2285 28.2228 69.2223 28.6967C69.2223 29.0907 69.3116 29.4323 69.4901 29.7216C69.6747 30.0109 69.924 30.2571 70.2379 30.4602C70.5518 30.6572 70.8996 30.8234 71.2812 30.9588C71.6629 31.0942 72.0476 31.2081 72.4354 31.3004L74.2081 31.7436C74.9221 31.9098 75.6084 32.1345 76.267 32.4176C76.9318 32.7008 77.5258 33.0578 78.049 33.4886C78.5784 33.9195 78.9969 34.4396 79.3047 35.049C79.6125 35.6584 79.7663 36.3724 79.7663 37.1911C79.7663 38.299 79.4832 39.2746 78.9169 40.1179C78.3506 40.955 77.532 41.6106 76.4609 42.0845C75.3961 42.5523 74.1065 42.7862 72.5923 42.7862C71.1212 42.7862 69.844 42.5585 68.7607 42.103C67.6835 41.6475 66.8402 40.9827 66.2308 40.1087C65.6276 39.2346 65.3014 38.1697 65.2521 36.9141H68.6222C68.6714 37.5727 68.8745 38.1205 69.2315 38.5575C69.5885 38.9946 70.0533 39.3208 70.6257 39.5362C71.2043 39.7517 71.8506 39.8594 72.5646 39.8594C73.3094 39.8594 73.9619 39.7486 74.522 39.527C75.0883 39.2992 75.5315 38.9853 75.8516 38.5852C76.1716 38.179 76.3348 37.705 76.3409 37.1634C76.3348 36.6709 76.1901 36.2647 75.907 35.9446C75.6238 35.6184 75.2268 35.3475 74.7159 35.1321C74.2112 34.9105 73.6203 34.7135 72.9432 34.5412L70.7919 33.9872C69.2346 33.5871 68.0036 32.9808 67.0987 32.1683C66.2 31.3497 65.7507 30.2633 65.7507 28.9091C65.7507 27.795 66.0523 26.8194 66.6555 25.9822C67.2649 25.1451 68.0928 24.4957 69.1392 24.0341C70.1856 23.5663 71.3705 23.3324 72.6939 23.3324C74.0357 23.3324 75.2114 23.5663 76.2209 24.0341C77.2365 24.4957 78.0336 25.139 78.6122 25.9638C79.1908 26.7824 79.4893 27.7242 79.5078 28.7891H76.2116ZM84.9437 42.5H81.2875L87.9444 23.5909H92.1731L98.8393 42.5H95.1831L90.1326 27.4688H89.9849L84.9437 42.5ZM85.0637 35.0859H95.0353V37.8374H85.0637V35.0859ZM111.301 28.7891C111.215 27.9827 110.852 27.3549 110.212 26.9055C109.578 26.4562 108.753 26.2315 107.738 26.2315C107.024 26.2315 106.411 26.3393 105.9 26.5547C105.389 26.7701 104.998 27.0625 104.728 27.4318C104.457 27.8011 104.318 28.2228 104.312 28.6967C104.312 29.0907 104.401 29.4323 104.58 29.7216C104.765 30.0109 105.014 30.2571 105.328 30.4602C105.642 30.6572 105.989 30.8234 106.371 30.9588C106.753 31.0942 107.137 31.2081 107.525 31.3004L109.298 31.7436C110.012 31.9098 110.698 32.1345 111.357 32.4176C112.022 32.7008 112.616 33.0578 113.139 33.4886C113.668 33.9195 114.087 34.4396 114.395 35.049C114.702 35.6584 114.856 36.3724 114.856 37.1911C114.856 38.299 114.573 39.2746 114.007 40.1179C113.44 40.955 112.622 41.6106 111.551 42.0845C110.486 42.5523 109.196 42.7862 107.682 42.7862C106.211 42.7862 104.934 42.5585 103.85 42.103C102.773 41.6475 101.93 40.9827 101.321 40.1087C100.717 39.2346 100.391 38.1697 100.342 36.9141H103.712C103.761 37.5727 103.964 38.1205 104.321 38.5575C104.678 38.9946 105.143 39.3208 105.716 39.5362C106.294 39.7517 106.94 39.8594 107.654 39.8594C108.399 39.8594 109.052 39.7486 109.612 39.527C110.178 39.2992 110.621 38.9853 110.941 38.5852C111.261 38.179 111.425 37.705 111.431 37.1634C111.425 36.6709 111.28 36.2647 110.997 35.9446C110.714 35.6184 110.317 35.3475 109.806 35.1321C109.301 34.9105 108.71 34.7135 108.033 34.5412L105.882 33.9872C104.324 33.5871 103.093 32.9808 102.189 32.1683C101.29 31.3497 100.841 30.2633 100.841 28.9091C100.841 27.795 101.142 26.8194 101.745 25.9822C102.355 25.1451 103.183 24.4957 104.229 24.0341C105.275 23.5663 106.46 23.3324 107.784 23.3324C109.126 23.3324 110.301 23.5663 111.311 24.0341C112.326 24.4957 113.123 25.139 113.702 25.9638C114.281 26.7824 114.579 27.7242 114.598 28.7891H111.301ZM128.186 28.7891C128.1 27.9827 127.737 27.3549 127.097 26.9055C126.463 26.4562 125.638 26.2315 124.622 26.2315C123.908 26.2315 123.296 26.3393 122.785 26.5547C122.274 26.7701 121.883 27.0625 121.612 27.4318C121.342 27.8011 121.203 28.2228 121.197 28.6967C121.197 29.0907 121.286 29.4323 121.465 29.7216C121.649 30.0109 121.899 30.2571 122.213 30.4602C122.526 30.6572 122.874 30.8234 123.256 30.9588C123.637 31.0942 124.022 31.2081 124.41 31.3004L126.183 31.7436C126.897 31.9098 127.583 32.1345 128.242 32.4176C128.906 32.7008 129.5 33.0578 130.024 33.4886C130.553 33.9195 130.972 34.4396 131.279 35.049C131.587 35.6584 131.741 36.3724 131.741 37.1911C131.741 38.299 131.458 39.2746 130.892 40.1179C130.325 40.955 129.507 41.6106 128.436 42.0845C127.371 42.5523 126.081 42.7862 124.567 42.7862C123.096 42.7862 121.819 42.5585 120.735 42.103C119.658 41.6475 118.815 40.9827 118.205 40.1087C117.602 39.2346 117.276 38.1697 117.227 36.9141H120.597C120.646 37.5727 120.849 38.1205 121.206 38.5575C121.563 38.9946 122.028 39.3208 122.6 39.5362C123.179 39.7517 123.825 39.8594 124.539 39.8594C125.284 39.8594 125.936 39.7486 126.497 39.527C127.063 39.2992 127.506 38.9853 127.826 38.5852C128.146 38.179 128.309 37.705 128.316 37.1634C128.309 36.6709 128.165 36.2647 127.882 35.9446C127.598 35.6184 127.201 35.3475 126.691 35.1321C126.186 34.9105 125.595 34.7135 124.918 34.5412L122.767 33.9872C121.209 33.5871 119.978 32.9808 119.073 32.1683C118.175 31.3497 117.725 30.2633 117.725 28.9091C117.725 27.795 118.027 26.8194 118.63 25.9822C119.24 25.1451 120.067 24.4957 121.114 24.0341C122.16 23.5663 123.345 23.3324 124.669 23.3324C126.01 23.3324 127.186 23.5663 128.195 24.0341C129.211 24.4957 130.008 25.139 130.587 25.9638C131.165 26.7824 131.464 27.7242 131.482 28.7891H128.186Z" fill="white"/>
<defs>
<clipPath id="clip0_85_1133">
<rect width="46" height="46" fill="white" transform="translate(10 10)"/>
</clipPath>
</defs>
</svg>
