<svg width="324" height="66" viewBox="0 0 324 66" fill="none" xmlns="http://www.w3.org/2000/svg">
<rect x="0.5" width="323" height="66" rx="10" fill="#D87797"/>
<g clip-path="url(#clip0_85_1176)">
<path d="M41.5768 22.9604L41.4331 23.7099C41.2107 25.1301 41.2912 25.5364 41.9007 26.0635L42.4892 26.5504L41.8797 29.2682C41.5155 30.8897 41.0689 32.2486 40.7852 32.6952C40.5418 33.0804 40.2582 33.6478 40.1968 33.9525C40.0953 34.3167 39.7502 34.6828 39.2232 35.0067C38.7574 35.2712 37.8432 35.9804 37.1953 36.5496C36.6778 37.0154 36.3213 37.3009 36.1278 37.4236L35.4953 37.9239C35.2921 38.2497 35.1771 38.5123 35.133 38.7116C35.0889 38.9167 35.1138 39.0528 35.179 39.1525C35.2423 39.2483 35.3515 39.3154 35.501 39.3575C35.678 39.399 35.8601 39.4139 36.0415 39.4016C36.4518 39.3736 36.8579 39.3016 37.2528 39.1869C37.387 39.1505 37.4924 39.116 37.5844 39.0854C37.7262 38.9109 38.054 38.5813 38.6347 38.0082C40.1757 36.4883 40.7642 35.6565 40.1566 35.8807C39.9323 35.9612 40.0339 35.758 40.4192 35.3517C41.2318 34.5601 41.6976 33.3641 42.6712 29.6132C43.4417 26.6519 43.4417 26.6098 44.0091 26.6098C44.2755 26.6098 45.0287 26.6558 45.0287 26.6558V22.9604H43.2999H41.5768ZM48.9349 29.0267C48.8122 29.0267 48.6091 29.2107 48.4883 29.4139C48.266 29.778 48.5286 30.0004 51.8751 32.0895C53.8627 33.3488 55.465 34.4221 55.4247 34.5045C55.3845 34.5639 53.7611 35.62 51.8157 36.8371C48.2852 39.0259 48.266 39.047 48.5899 39.4936C48.9962 40.0207 48.5899 40.2028 53.1727 37.3431L56.5 35.2137V33.6114L52.7874 31.319C50.7807 30.0617 49.0365 29.0478 48.9349 29.0267ZM18.1053 29.2509C18.0037 29.2509 16.2596 30.2859 14.2528 31.5222L10.5 33.8145V35.4169L14.2318 37.7494C16.3018 39.0259 18.0459 40.082 18.1264 40.082C18.2069 40.082 18.3698 39.898 18.5328 39.6757C18.7762 39.2904 18.5711 39.1275 15.1441 36.9579C11.88 34.9089 11.535 34.6253 11.8608 34.403C12.064 34.2611 13.605 33.3066 15.2687 32.2735C19.0617 29.9409 18.8586 30.1019 18.5538 29.6151C18.4331 29.4139 18.228 29.2318 18.1073 29.2509H18.1053ZM34.7497 29.295C34.19 29.2912 32.9863 30.1441 29.383 33.0862C29.2278 33.4561 29.2143 33.711 29.2852 33.8759C29.3312 33.9889 29.4156 34.0675 29.5325 34.125C29.6475 34.1825 29.797 34.217 29.9618 34.2304C30.2896 34.2592 30.6767 34.2074 30.9892 34.1461L31.2 34.0982C31.2722 34.0014 31.3669 33.9238 31.476 33.872C31.6983 33.7494 32.6318 32.8984 33.5652 31.986C35.2078 30.3224 35.593 29.571 34.9241 29.3276C34.8692 29.3058 34.8087 29.2947 34.7497 29.295ZM38.9587 30.4508C38.4661 30.4642 37.5787 31.0354 36.0588 32.2486C35.2959 32.8677 34.8129 33.2012 34.5542 33.2702L33.5498 34.0637C33.1722 34.7537 33.1167 35.1811 33.2163 35.4169C33.2413 35.475 33.2775 35.5277 33.3229 35.5717C33.3683 35.6158 33.422 35.6505 33.4808 35.6737C33.6273 35.7315 33.7834 35.7608 33.9408 35.7599C34.317 35.7559 34.691 35.7011 35.0525 35.597C35.2409 35.5465 35.427 35.4876 35.6102 35.4207L35.6658 35.3977L35.7674 35.344C35.9591 35.0968 36.3999 34.631 36.9519 34.0944C38.6961 32.4115 39.5873 31.2155 39.4053 30.769C39.3228 30.5524 39.181 30.4431 38.9587 30.4508ZM34.3127 32.5208C34.1708 32.5361 33.8527 32.7814 33.2796 33.2836C32.4516 34.0158 31.5488 34.4375 31.2364 34.2496C31.1638 34.266 31.091 34.2814 31.0179 34.2956C30.6997 34.3589 30.303 34.4106 29.9484 34.3819C29.7813 34.3717 29.6176 34.3308 29.4654 34.2611C29.3219 34.1955 29.2073 34.0796 29.1434 33.9353C29.0725 33.7628 29.0725 33.5481 29.153 33.274L27.9072 34.2975L25.0877 36.6301V40.4117L34.3261 33.1341C34.3243 33.0544 34.3346 32.9749 34.3567 32.8984C34.4277 32.6415 34.4238 32.5112 34.3127 32.5227V32.5208ZM38.2878 33.7455C38.1479 33.7455 37.9141 33.943 37.5403 34.3397C37.0324 34.8821 36.2332 35.4073 35.8096 35.5146L35.7444 35.5491C35.6749 35.5778 35.6046 35.6047 35.5336 35.6296C35.4186 35.6679 35.2691 35.7139 35.0966 35.7599C34.7516 35.8539 34.3223 35.9401 33.9389 35.9305C33.7582 35.9303 33.5792 35.8952 33.4118 35.827C33.2541 35.762 33.1276 35.6383 33.0592 35.482C32.948 35.2156 32.9921 34.8419 33.2355 34.3109L25.0858 40.7299V43.0395H28.6662L36.26 37.0748C36.4574 36.8563 36.7545 36.5573 37.1551 36.1835C38.2284 35.1888 38.4718 34.8457 38.4718 34.3378C38.4718 33.9429 38.4277 33.7436 38.2878 33.7436V33.7455ZM40.0952 37.483L39.4455 38.1309C39.0813 38.4759 38.4316 38.9014 37.9869 39.0834L37.8988 39.1218L37.893 39.1314L37.8738 39.1505C37.8566 39.1639 37.8489 39.1659 37.8355 39.1716C37.658 39.2388 37.4777 39.2983 37.295 39.3499C36.8889 39.4681 36.4712 39.542 36.0492 39.5703C35.8496 39.5831 35.6493 39.5656 35.455 39.5185C35.2864 39.4814 35.1375 39.3831 35.0372 39.2425C34.9452 39.1007 34.9183 38.9109 34.9701 38.6771C35.0112 38.5106 35.0724 38.3497 35.1522 38.1979L29.0246 43.0395H37.1742L38.1479 41.924C39.4858 40.3638 40.0952 39.2483 40.0952 38.2938V37.483Z" fill="white"/>
</g>
<path d="M76.9685 28.7891C76.8823 27.9827 76.5191 27.3549 75.879 26.9055C75.245 26.4562 74.4202 26.2315 73.4046 26.2315C72.6905 26.2315 72.0781 26.3393 71.5672 26.5547C71.0563 26.7701 70.6655 27.0625 70.3946 27.4318C70.1238 27.8011 69.9853 28.2228 69.9791 28.6967C69.9791 29.0907 70.0684 29.4323 70.2469 29.7216C70.4316 30.0109 70.6808 30.2571 70.9948 30.4602C71.3087 30.6572 71.6565 30.8234 72.0381 30.9588C72.4197 31.0942 72.8044 31.2081 73.1922 31.3004L74.9649 31.7436C75.6789 31.9098 76.3653 32.1345 77.0239 32.4176C77.6887 32.7008 78.2826 33.0578 78.8058 33.4886C79.3352 33.9195 79.7538 34.4396 80.0615 35.049C80.3693 35.6584 80.5232 36.3724 80.5232 37.1911C80.5232 38.299 80.24 39.2746 79.6737 40.1179C79.1075 40.955 78.2888 41.6106 77.2178 42.0845C76.1529 42.5523 74.8634 42.7862 73.3492 42.7862C71.878 42.7862 70.6008 42.5585 69.5175 42.103C68.4403 41.6475 67.597 40.9827 66.9877 40.1087C66.3844 39.2346 66.0582 38.1697 66.009 36.9141H69.379C69.4282 37.5727 69.6314 38.1205 69.9884 38.5575C70.3454 38.9946 70.8101 39.3208 71.3825 39.5362C71.9611 39.7517 72.6075 39.8594 73.3215 39.8594C74.0663 39.8594 74.7187 39.7486 75.2789 39.527C75.8451 39.2992 76.2883 38.9853 76.6084 38.5852C76.9285 38.179 77.0916 37.705 77.0977 37.1634C77.0916 36.6709 76.9469 36.2647 76.6638 35.9446C76.3807 35.6184 75.9836 35.3475 75.4727 35.1321C74.968 34.9105 74.3771 34.7135 73.7 34.5412L71.5487 33.9872C69.9914 33.5871 68.7604 32.9808 67.8556 32.1683C66.9569 31.3497 66.5075 30.2633 66.5075 28.9091C66.5075 27.795 66.8092 26.8194 67.4124 25.9822C68.0218 25.1451 68.8496 24.4957 69.896 24.0341C70.9424 23.5663 72.1273 23.3324 73.4507 23.3324C74.7926 23.3324 75.9682 23.5663 76.9777 24.0341C77.9933 24.4957 78.7905 25.139 79.3691 25.9638C79.9477 26.7824 80.2462 27.7242 80.2646 28.7891H76.9685ZM90.5109 28.3182V30.9034H82.3582V28.3182H90.5109ZM84.371 24.9205H87.7133V38.2344C87.7133 38.6837 87.781 39.0284 87.9165 39.2685C88.058 39.5024 88.2427 39.6624 88.4704 39.7486C88.6982 39.8348 88.9506 39.8778 89.2275 39.8778C89.4368 39.8778 89.6276 39.8625 89.8 39.8317C89.9785 39.8009 90.1139 39.7732 90.2062 39.7486L90.7694 42.3615C90.5909 42.4231 90.3355 42.4908 90.0031 42.5646C89.6769 42.6385 89.2768 42.6816 88.8028 42.6939C87.9657 42.7185 87.2117 42.5923 86.5407 42.3153C85.8698 42.0322 85.3374 41.5952 84.9434 41.0043C84.5557 40.4134 84.3648 39.6747 84.371 38.7884V24.9205ZM95.3836 47.8182C94.9281 47.8182 94.5065 47.7813 94.1187 47.7074C93.7371 47.6397 93.4324 47.5597 93.2046 47.4673L93.9802 44.8636C94.4665 45.0052 94.9004 45.0729 95.282 45.0668C95.6637 45.0606 95.9991 44.9406 96.2884 44.7067C96.5839 44.4789 96.8332 44.0973 97.0363 43.5618L97.3225 42.7955L92.1798 28.3182H95.7252L98.9937 39.0284H99.1414L102.419 28.3182H105.974L100.296 44.2173C100.031 44.9683 99.68 45.6115 99.243 46.147C98.806 46.6887 98.2704 47.1011 97.6365 47.3842C97.0086 47.6735 96.2577 47.8182 95.3836 47.8182ZM111.629 23.5909V42.5H108.287V23.5909H111.629ZM121.344 42.777C119.922 42.777 118.695 42.4815 117.66 41.8906C116.632 41.2936 115.842 40.4503 115.288 39.3608C114.734 38.2652 114.457 36.9756 114.457 35.4922C114.457 34.0334 114.734 32.7531 115.288 31.6513C115.848 30.5433 116.629 29.6816 117.633 29.0661C118.636 28.4444 119.815 28.1335 121.169 28.1335C122.043 28.1335 122.868 28.2751 123.643 28.5582C124.425 28.8352 125.114 29.2661 125.712 29.8509C126.315 30.4356 126.789 31.1804 127.133 32.0852C127.478 32.9839 127.65 34.0549 127.65 35.2983V36.3232H116.026V34.0703H124.447C124.44 33.4302 124.302 32.8608 124.031 32.3622C123.76 31.8575 123.382 31.4605 122.896 31.1712C122.415 30.8819 121.855 30.7372 121.215 30.7372C120.532 30.7372 119.932 30.9034 119.415 31.2358C118.898 31.562 118.494 31.9929 118.205 32.5284C117.922 33.0578 117.777 33.6394 117.771 34.2734V36.2401C117.771 37.0649 117.922 37.7727 118.224 38.3636C118.525 38.9484 118.947 39.3977 119.489 39.7116C120.03 40.0194 120.664 40.1733 121.391 40.1733C121.877 40.1733 122.317 40.1056 122.711 39.9702C123.105 39.8286 123.446 39.6224 123.736 39.3516C124.025 39.0807 124.244 38.7453 124.391 38.3452L127.512 38.696C127.315 39.5208 126.94 40.241 126.386 40.8565C125.838 41.4659 125.136 41.9399 124.28 42.2784C123.425 42.6108 122.446 42.777 121.344 42.777ZM135.741 42.7493C134.627 42.7493 133.63 42.4631 132.749 41.8906C131.869 41.3182 131.174 40.4872 130.663 39.3977C130.152 38.3082 129.896 36.9848 129.896 35.4276C129.896 33.8518 130.155 32.5223 130.672 31.4389C131.195 30.3494 131.9 29.5277 132.786 28.9737C133.673 28.4136 134.661 28.1335 135.75 28.1335C136.581 28.1335 137.264 28.2751 137.8 28.5582C138.335 28.8352 138.76 29.1707 139.074 29.5646C139.388 29.9524 139.631 30.3187 139.803 30.6634H139.942V23.5909H143.293V42.5H140.006V40.2656H139.803C139.631 40.6103 139.382 40.9766 139.055 41.3643C138.729 41.746 138.298 42.0722 137.763 42.343C137.227 42.6139 136.553 42.7493 135.741 42.7493ZM136.673 40.0071C137.381 40.0071 137.984 39.8163 138.483 39.4347C138.982 39.0469 139.36 38.5083 139.619 37.8189C139.877 37.1295 140.006 36.3262 140.006 35.4091C140.006 34.492 139.877 33.6948 139.619 33.0178C139.366 32.3407 138.991 31.8144 138.492 31.4389C138 31.0634 137.394 30.8757 136.673 30.8757C135.929 30.8757 135.307 31.0696 134.808 31.4574C134.31 31.8452 133.934 32.3807 133.682 33.0639C133.43 33.7472 133.303 34.5289 133.303 35.4091C133.303 36.2955 133.43 37.0864 133.682 37.782C133.94 38.4714 134.319 39.0161 134.818 39.4162C135.322 39.8101 135.941 40.0071 136.673 40.0071ZM169.637 29.9709H166.184C166.086 29.4046 165.904 28.9029 165.639 28.4659C165.375 28.0227 165.045 27.6473 164.652 27.3395C164.258 27.0317 163.808 26.8009 163.304 26.647C162.805 26.487 162.266 26.407 161.688 26.407C160.66 26.407 159.749 26.6655 158.955 27.1825C158.161 27.6934 157.539 28.4444 157.09 29.4354C156.64 30.4202 156.416 31.6236 156.416 33.0455C156.416 34.492 156.64 35.7107 157.09 36.7017C157.545 37.6866 158.167 38.4313 158.955 38.9361C159.749 39.4347 160.657 39.6839 161.679 39.6839C162.245 39.6839 162.774 39.6101 163.267 39.4624C163.765 39.3085 164.211 39.0838 164.605 38.7884C165.005 38.4929 165.341 38.1297 165.612 37.6989C165.889 37.268 166.08 36.7756 166.184 36.2216L169.637 36.2401C169.508 37.1387 169.228 37.982 168.797 38.7699C168.372 39.5578 167.815 40.2533 167.126 40.8565C166.437 41.4536 165.63 41.9214 164.707 42.2599C163.784 42.5923 162.759 42.7585 161.632 42.7585C159.97 42.7585 158.487 42.3738 157.182 41.6044C155.877 40.835 154.849 39.724 154.098 38.2713C153.347 36.8187 152.972 35.0767 152.972 33.0455C152.972 31.008 153.35 29.2661 154.108 27.8196C154.865 26.367 155.896 25.2559 157.201 24.4865C158.505 23.7171 159.983 23.3324 161.632 23.3324C162.685 23.3324 163.664 23.4801 164.568 23.7756C165.473 24.071 166.28 24.505 166.987 25.0774C167.695 25.6437 168.277 26.3393 168.733 27.1641C169.194 27.9827 169.496 28.9183 169.637 29.9709ZM178.813 42.777C177.428 42.777 176.227 42.4723 175.212 41.8629C174.196 41.2536 173.408 40.401 172.848 39.3054C172.294 38.2098 172.017 36.9295 172.017 35.4645C172.017 33.9995 172.294 32.7161 172.848 31.6143C173.408 30.5125 174.196 29.657 175.212 29.0476C176.227 28.4382 177.428 28.1335 178.813 28.1335C180.198 28.1335 181.398 28.4382 182.413 29.0476C183.429 29.657 184.214 30.5125 184.768 31.6143C185.328 32.7161 185.608 33.9995 185.608 35.4645C185.608 36.9295 185.328 38.2098 184.768 39.3054C184.214 40.401 183.429 41.2536 182.413 41.8629C181.398 42.4723 180.198 42.777 178.813 42.777ZM178.831 40.0994C179.582 40.0994 180.21 39.8932 180.715 39.4808C181.219 39.0623 181.595 38.5021 181.841 37.8004C182.093 37.0987 182.22 36.317 182.22 35.4553C182.22 34.5874 182.093 33.8026 181.841 33.1009C181.595 32.393 181.219 31.8298 180.715 31.4112C180.21 30.9927 179.582 30.7834 178.831 30.7834C178.062 30.7834 177.421 30.9927 176.911 31.4112C176.406 31.8298 176.027 32.393 175.775 33.1009C175.529 33.8026 175.406 34.5874 175.406 35.4553C175.406 36.317 175.529 37.0987 175.775 37.8004C176.027 38.5021 176.406 39.0623 176.911 39.4808C177.421 39.8932 178.062 40.0994 178.831 40.0994ZM188.445 42.5V28.3182H191.639V30.728H191.806C192.101 29.9155 192.59 29.2815 193.274 28.826C193.957 28.3643 194.773 28.1335 195.72 28.1335C196.681 28.1335 197.49 28.3674 198.149 28.8352C198.813 29.2969 199.281 29.9278 199.552 30.728H199.7C200.014 29.9401 200.543 29.3123 201.288 28.8445C202.039 28.3705 202.928 28.1335 203.956 28.1335C205.261 28.1335 206.326 28.5459 207.151 29.3707C207.976 30.1955 208.388 31.3989 208.388 32.9808V42.5H205.036V33.4979C205.036 32.6177 204.803 31.9744 204.335 31.5682C203.867 31.1558 203.295 30.9496 202.617 30.9496C201.811 30.9496 201.18 31.2019 200.725 31.7067C200.275 32.2053 200.051 32.8546 200.051 33.6548V42.5H196.773V33.3594C196.773 32.6269 196.551 32.0421 196.108 31.6051C195.671 31.1681 195.099 30.9496 194.391 30.9496C193.911 30.9496 193.474 31.0727 193.08 31.3189C192.686 31.5589 192.372 31.9006 192.138 32.3438C191.904 32.7808 191.787 33.2917 191.787 33.8764V42.5H188.445ZM211.779 47.8182V28.3182H215.066V30.6634H215.26C215.432 30.3187 215.675 29.9524 215.989 29.5646C216.303 29.1707 216.728 28.8352 217.263 28.5582C217.799 28.2751 218.482 28.1335 219.313 28.1335C220.409 28.1335 221.397 28.4136 222.277 28.9737C223.163 29.5277 223.865 30.3494 224.382 31.4389C224.905 32.5223 225.167 33.8518 225.167 35.4276C225.167 36.9848 224.911 38.3082 224.4 39.3977C223.889 40.4872 223.194 41.3182 222.314 41.8906C221.433 42.4631 220.436 42.7493 219.322 42.7493C218.51 42.7493 217.836 42.6139 217.3 42.343C216.765 42.0722 216.334 41.746 216.008 41.3643C215.687 40.9766 215.438 40.6103 215.26 40.2656H215.121V47.8182H211.779ZM215.057 35.4091C215.057 36.3262 215.186 37.1295 215.444 37.8189C215.709 38.5083 216.088 39.0469 216.58 39.4347C217.079 39.8163 217.682 40.0071 218.39 40.0071C219.128 40.0071 219.747 39.8101 220.245 39.4162C220.744 39.0161 221.12 38.4714 221.372 37.782C221.63 37.0864 221.76 36.2955 221.76 35.4091C221.76 34.5289 221.633 33.7472 221.381 33.0639C221.129 32.3807 220.753 31.8452 220.255 31.4574C219.756 31.0696 219.134 30.8757 218.39 30.8757C217.676 30.8757 217.069 31.0634 216.571 31.4389C216.072 31.8144 215.694 32.3407 215.435 33.0178C215.183 33.6948 215.057 34.492 215.057 35.4091ZM234.215 42.777C232.83 42.777 231.63 42.4723 230.614 41.8629C229.598 41.2536 228.811 40.401 228.25 39.3054C227.696 38.2098 227.419 36.9295 227.419 35.4645C227.419 33.9995 227.696 32.7161 228.25 31.6143C228.811 30.5125 229.598 29.657 230.614 29.0476C231.63 28.4382 232.83 28.1335 234.215 28.1335C235.6 28.1335 236.8 28.4382 237.816 29.0476C238.831 29.657 239.616 30.5125 240.17 31.6143C240.73 32.7161 241.01 33.9995 241.01 35.4645C241.01 36.9295 240.73 38.2098 240.17 39.3054C239.616 40.401 238.831 41.2536 237.816 41.8629C236.8 42.4723 235.6 42.777 234.215 42.777ZM234.233 40.0994C234.984 40.0994 235.612 39.8932 236.117 39.4808C236.622 39.0623 236.997 38.5021 237.243 37.8004C237.496 37.0987 237.622 36.317 237.622 35.4553C237.622 34.5874 237.496 33.8026 237.243 33.1009C236.997 32.393 236.622 31.8298 236.117 31.4112C235.612 30.9927 234.984 30.7834 234.233 30.7834C233.464 30.7834 232.824 30.9927 232.313 31.4112C231.808 31.8298 231.43 32.393 231.177 33.1009C230.931 33.8026 230.808 34.5874 230.808 35.4553C230.808 36.317 230.931 37.0987 231.177 37.8004C231.43 38.5021 231.808 39.0623 232.313 39.4808C232.824 39.8932 233.464 40.0994 234.233 40.0994ZM247.19 34.1903V42.5H243.847V28.3182H247.042V30.728H247.208C247.534 29.9339 248.054 29.303 248.768 28.8352C249.489 28.3674 250.378 28.1335 251.437 28.1335C252.415 28.1335 253.268 28.3428 253.994 28.7614C254.727 29.1799 255.293 29.7862 255.693 30.5803C256.099 31.3743 256.299 32.3376 256.293 33.4702V42.5H252.951V33.9872C252.951 33.0393 252.705 32.2976 252.212 31.7621C251.726 31.2266 251.052 30.9588 250.19 30.9588C249.605 30.9588 249.085 31.0881 248.63 31.3466C248.181 31.599 247.827 31.9652 247.568 32.4453C247.316 32.9254 247.19 33.5071 247.19 34.1903ZM265.969 42.777C264.547 42.777 263.32 42.4815 262.285 41.8906C261.257 41.2936 260.467 40.4503 259.913 39.3608C259.359 38.2652 259.082 36.9756 259.082 35.4922C259.082 34.0334 259.359 32.7531 259.913 31.6513C260.473 30.5433 261.254 29.6816 262.258 29.0661C263.261 28.4444 264.44 28.1335 265.794 28.1335C266.668 28.1335 267.493 28.2751 268.268 28.5582C269.05 28.8352 269.739 29.2661 270.337 29.8509C270.94 30.4356 271.414 31.1804 271.758 32.0852C272.103 32.9839 272.275 34.0549 272.275 35.2983V36.3232H260.651V34.0703H269.072C269.065 33.4302 268.927 32.8608 268.656 32.3622C268.385 31.8575 268.007 31.4605 267.521 31.1712C267.04 30.8819 266.48 30.7372 265.84 30.7372C265.157 30.7372 264.557 30.9034 264.04 31.2358C263.523 31.562 263.119 31.9929 262.83 32.5284C262.547 33.0578 262.402 33.6394 262.396 34.2734V36.2401C262.396 37.0649 262.547 37.7727 262.849 38.3636C263.15 38.9484 263.572 39.3977 264.114 39.7116C264.655 40.0194 265.289 40.1733 266.016 40.1733C266.502 40.1733 266.942 40.1056 267.336 39.9702C267.73 39.8286 268.071 39.6224 268.361 39.3516C268.65 39.0807 268.869 38.7453 269.016 38.3452L272.137 38.696C271.94 39.5208 271.565 40.241 271.011 40.8565C270.463 41.4659 269.761 41.9399 268.905 42.2784C268.05 42.6108 267.071 42.777 265.969 42.777ZM278.445 34.1903V42.5H275.103V28.3182H278.298V30.728H278.464C278.79 29.9339 279.31 29.303 280.024 28.8352C280.744 28.3674 281.634 28.1335 282.693 28.1335C283.671 28.1335 284.524 28.3428 285.25 28.7614C285.983 29.1799 286.549 29.7862 286.949 30.5803C287.355 31.3743 287.555 32.3376 287.549 33.4702V42.5H284.207V33.9872C284.207 33.0393 283.961 32.2976 283.468 31.7621C282.982 31.2266 282.308 30.9588 281.446 30.9588C280.861 30.9588 280.341 31.0881 279.886 31.3466C279.436 31.599 279.082 31.9652 278.824 32.4453C278.572 32.9254 278.445 33.5071 278.445 34.1903ZM298.028 28.3182V30.9034H289.876V28.3182H298.028ZM291.889 24.9205H295.231V38.2344C295.231 38.6837 295.299 39.0284 295.434 39.2685C295.576 39.5024 295.76 39.6624 295.988 39.7486C296.216 39.8348 296.468 39.8778 296.745 39.8778C296.954 39.8778 297.145 39.8625 297.318 39.8317C297.496 39.8009 297.631 39.7732 297.724 39.7486L298.287 42.3615C298.109 42.4231 297.853 42.4908 297.521 42.5646C297.194 42.6385 296.794 42.6816 296.32 42.6939C295.483 42.7185 294.729 42.5923 294.058 42.3153C293.387 42.0322 292.855 41.5952 292.461 41.0043C292.073 40.4134 291.882 39.6747 291.889 38.7884V24.9205ZM311.829 32.0668L308.783 32.3991C308.696 32.0914 308.546 31.8021 308.33 31.5312C308.121 31.2604 307.838 31.0419 307.481 30.8757C307.124 30.7095 306.687 30.6264 306.17 30.6264C305.474 30.6264 304.889 30.7772 304.415 31.0788C303.948 31.3804 303.717 31.7713 303.723 32.2514C303.717 32.6638 303.868 32.9993 304.175 33.2578C304.489 33.5163 305.006 33.7287 305.726 33.8949L308.146 34.4119C309.487 34.7012 310.485 35.1598 311.137 35.7876C311.796 36.4155 312.128 37.2372 312.134 38.2528C312.128 39.1454 311.866 39.9332 311.349 40.6165C310.838 41.2936 310.128 41.8229 309.217 42.2045C308.306 42.5862 307.259 42.777 306.077 42.777C304.342 42.777 302.944 42.4138 301.886 41.6875C300.827 40.955 300.196 39.9363 299.993 38.6314L303.252 38.3175C303.4 38.9576 303.714 39.4408 304.194 39.767C304.674 40.0933 305.299 40.2564 306.068 40.2564C306.862 40.2564 307.499 40.0933 307.979 39.767C308.466 39.4408 308.709 39.0376 308.709 38.5575C308.709 38.1513 308.552 37.8158 308.238 37.5511C307.93 37.2865 307.45 37.0833 306.797 36.9418L304.378 36.4339C303.018 36.1508 302.012 35.6738 301.359 35.0028C300.707 34.3258 300.384 33.4702 300.39 32.4361C300.384 31.562 300.621 30.8049 301.101 30.1648C301.587 29.5185 302.261 29.0199 303.123 28.669C303.991 28.312 304.991 28.1335 306.123 28.1335C307.785 28.1335 309.093 28.4875 310.047 29.1953C311.008 29.9032 311.602 30.8603 311.829 32.0668Z" fill="white"/>
<defs>
<clipPath id="clip0_85_1176">
<rect width="46" height="46" fill="white" transform="translate(10.5 10)"/>
</clipPath>
</defs>
</svg>
