<svg width="235" height="66" viewBox="0 0 235 66" fill="none" xmlns="http://www.w3.org/2000/svg">
<rect width="235" height="66" rx="10" fill="#3A9EAF"/>
<g clip-path="url(#clip0_85_1144)">
<path d="M33.093 19.145C26.9354 19.145 23.0869 22.2238 21.5475 28.3815C23.8566 25.3027 26.5505 24.1481 29.6294 24.9178C31.3862 25.3565 32.6408 26.6304 34.0321 28.0428C36.2969 30.3404 38.9158 32.9997 44.6386 32.9997C50.7962 32.9997 54.6447 29.9209 56.1842 23.7632C53.875 26.8421 51.1811 27.9966 48.1023 27.2269C46.3454 26.7882 45.0908 25.5143 43.6995 24.1019C41.4366 21.8043 38.8177 19.145 33.093 19.145ZM21.5475 32.9997C15.3898 32.9997 11.5413 36.0785 10.0019 42.2361C12.311 39.1573 15.005 38.0028 18.0838 38.7725C19.8406 39.2112 21.0953 40.4851 22.4865 41.8975C24.7514 44.195 27.3703 46.8544 33.093 46.8544C39.2507 46.8544 43.0992 43.7756 44.6386 37.6179C42.3295 40.6967 39.6355 41.8513 36.5567 41.0816C34.7998 40.6429 33.5452 39.369 32.154 37.9566C29.891 35.659 27.2721 32.9997 21.5475 32.9997Z" fill="white"/>
</g>
<path d="M65.7046 26.4624V23.5909H80.7913V26.4624H74.9468V42.5H71.5491V26.4624H65.7046ZM85.7032 42.7862C84.8045 42.7862 83.9951 42.6262 83.2749 42.3061C82.5609 41.9799 81.9946 41.4998 81.5761 40.8658C81.1637 40.2318 80.9575 39.45 80.9575 38.5206C80.9575 37.7204 81.1052 37.0587 81.4006 36.5355C81.6961 36.0123 82.0993 35.5938 82.6102 35.2798C83.1211 34.9659 83.6966 34.7289 84.3367 34.5689C84.983 34.4027 85.6509 34.2827 86.3403 34.2088C87.1712 34.1226 87.8452 34.0457 88.3623 33.978C88.8793 33.9041 89.2548 33.7933 89.4887 33.6456C89.7288 33.4917 89.8488 33.2547 89.8488 32.9347V32.8793C89.8488 32.1837 89.6426 31.6451 89.2302 31.2635C88.8178 30.8819 88.2238 30.6911 87.4482 30.6911C86.6296 30.6911 85.9802 30.8696 85.5001 31.2266C85.0261 31.5836 84.706 32.0052 84.5399 32.4915L81.4191 32.0483C81.6653 31.1866 82.0716 30.4664 82.6379 29.8878C83.2041 29.303 83.8966 28.866 84.7153 28.5767C85.5339 28.2812 86.4388 28.1335 87.4298 28.1335C88.113 28.1335 88.7932 28.2135 89.4702 28.3736C90.1473 28.5336 90.7659 28.7983 91.3261 29.1676C91.8862 29.5308 92.3355 30.0263 92.6741 30.6541C93.0188 31.282 93.1911 32.0668 93.1911 33.0085V42.5H89.9781V40.5518H89.8673C89.6641 40.9458 89.3779 41.3151 89.0086 41.6598C88.6454 41.9983 88.1869 42.2723 87.6329 42.4815C87.0851 42.6847 86.4418 42.7862 85.7032 42.7862ZM86.5711 40.3303C87.242 40.3303 87.8237 40.1979 88.3161 39.9332C88.8086 39.6624 89.1871 39.3054 89.4518 38.8622C89.7226 38.419 89.858 37.9358 89.858 37.4126V35.7415C89.7534 35.8277 89.5749 35.9077 89.3225 35.9815C89.0763 36.0554 88.7993 36.12 88.4916 36.1754C88.1838 36.2308 87.8791 36.2801 87.5775 36.3232C87.2759 36.3662 87.0143 36.4032 86.7927 36.4339C86.2941 36.5017 85.8479 36.6125 85.4539 36.7663C85.06 36.9202 84.7491 37.1357 84.5214 37.4126C84.2936 37.6835 84.1798 38.0343 84.1798 38.4652C84.1798 39.0807 84.4044 39.5455 84.8538 39.8594C85.3031 40.1733 85.8756 40.3303 86.5711 40.3303ZM96.5519 42.5V28.3182H99.8943V42.5H96.5519ZM98.2323 26.3054C97.703 26.3054 97.2475 26.13 96.8658 25.7791C96.4842 25.4221 96.2934 24.9943 96.2934 24.4957C96.2934 23.991 96.4842 23.5632 96.8658 23.2124C97.2475 22.8553 97.703 22.6768 98.2323 22.6768C98.7678 22.6768 99.2233 22.8553 99.5988 23.2124C99.9804 23.5632 100.171 23.991 100.171 24.4957C100.171 24.9943 99.9804 25.4221 99.5988 25.7791C99.2233 26.13 98.7678 26.3054 98.2323 26.3054ZM106.674 23.5909V42.5H103.331V23.5909H106.674ZM113.037 42.5L109.03 28.3182H112.437L114.93 38.2898H115.059L117.608 28.3182H120.978L123.526 38.2344H123.664L126.12 28.3182H129.537L125.52 42.5H122.039L119.38 32.9162H119.187L116.527 42.5H113.037ZM131.87 42.5V28.3182H135.213V42.5H131.87ZM133.551 26.3054C133.021 26.3054 132.566 26.13 132.184 25.7791C131.803 25.4221 131.612 24.9943 131.612 24.4957C131.612 23.991 131.803 23.5632 132.184 23.2124C132.566 22.8553 133.021 22.6768 133.551 22.6768C134.086 22.6768 134.542 22.8553 134.917 23.2124C135.299 23.5632 135.49 23.991 135.49 24.4957C135.49 24.9943 135.299 25.4221 134.917 25.7791C134.542 26.13 134.086 26.3054 133.551 26.3054ZM141.992 34.1903V42.5H138.65V28.3182H141.844V30.728H142.01C142.337 29.9339 142.857 29.303 143.571 28.8352C144.291 28.3674 145.18 28.1335 146.239 28.1335C147.218 28.1335 148.07 28.3428 148.797 28.7614C149.529 29.1799 150.095 29.7862 150.495 30.5803C150.902 31.3743 151.102 32.3376 151.096 33.4702V42.5H147.753V33.9872C147.753 33.0393 147.507 32.2976 147.015 31.7621C146.528 31.2266 145.854 30.9588 144.993 30.9588C144.408 30.9588 143.888 31.0881 143.432 31.3466C142.983 31.599 142.629 31.9652 142.37 32.4453C142.118 32.9254 141.992 33.5071 141.992 34.1903ZM159.756 42.7493C158.642 42.7493 157.645 42.4631 156.765 41.8906C155.884 41.3182 155.189 40.4872 154.678 39.3977C154.167 38.3082 153.912 36.9848 153.912 35.4276C153.912 33.8518 154.17 32.5223 154.687 31.4389C155.21 30.3494 155.915 29.5277 156.802 28.9737C157.688 28.4136 158.676 28.1335 159.765 28.1335C160.596 28.1335 161.28 28.2751 161.815 28.5582C162.351 28.8352 162.775 29.1707 163.089 29.5646C163.403 29.9524 163.646 30.3187 163.819 30.6634H163.957V23.5909H167.309V42.5H164.022V40.2656H163.819C163.646 40.6103 163.397 40.9766 163.071 41.3643C162.745 41.746 162.314 42.0722 161.778 42.343C161.243 42.6139 160.569 42.7493 159.756 42.7493ZM160.689 40.0071C161.397 40.0071 162 39.8163 162.498 39.4347C162.997 39.0469 163.375 38.5083 163.634 37.8189C163.892 37.1295 164.022 36.3262 164.022 35.4091C164.022 34.492 163.892 33.6948 163.634 33.0178C163.382 32.3407 163.006 31.8144 162.508 31.4389C162.015 31.0634 161.409 30.8757 160.689 30.8757C159.944 30.8757 159.322 31.0696 158.824 31.4574C158.325 31.8452 157.95 32.3807 157.697 33.0639C157.445 33.7472 157.319 34.5289 157.319 35.4091C157.319 36.2955 157.445 37.0864 157.697 37.782C157.956 38.4714 158.334 39.0161 158.833 39.4162C159.338 39.8101 159.956 40.0071 160.689 40.0071ZM193.653 29.9709H190.199C190.101 29.4046 189.919 28.9029 189.655 28.4659C189.39 28.0227 189.061 27.6473 188.667 27.3395C188.273 27.0317 187.824 26.8009 187.319 26.647C186.82 26.487 186.282 26.407 185.703 26.407C184.675 26.407 183.764 26.6655 182.97 27.1825C182.176 27.6934 181.554 28.4444 181.105 29.4354C180.656 30.4202 180.431 31.6236 180.431 33.0455C180.431 34.492 180.656 35.7107 181.105 36.7017C181.561 37.6866 182.182 38.4313 182.97 38.9361C183.764 39.4347 184.672 39.6839 185.694 39.6839C186.26 39.6839 186.789 39.6101 187.282 39.4624C187.78 39.3085 188.227 39.0838 188.621 38.7884C189.021 38.4929 189.356 38.1297 189.627 37.6989C189.904 37.268 190.095 36.7756 190.199 36.2216L193.653 36.2401C193.523 37.1387 193.243 37.982 192.812 38.7699C192.388 39.5578 191.831 40.2533 191.141 40.8565C190.452 41.4536 189.645 41.9214 188.722 42.2599C187.799 42.5923 186.774 42.7585 185.648 42.7585C183.986 42.7585 182.502 42.3738 181.197 41.6044C179.892 40.835 178.864 39.724 178.114 38.2713C177.363 36.8187 176.987 35.0767 176.987 33.0455C176.987 31.008 177.366 29.2661 178.123 27.8196C178.88 26.367 179.911 25.2559 181.216 24.4865C182.521 23.7171 183.998 23.3324 185.648 23.3324C186.7 23.3324 187.679 23.4801 188.584 23.7756C189.489 24.071 190.295 24.505 191.003 25.0774C191.711 25.6437 192.292 26.3393 192.748 27.1641C193.209 27.9827 193.511 28.9183 193.653 29.9709ZM207.066 28.7891C206.98 27.9827 206.616 27.3549 205.976 26.9055C205.342 26.4562 204.517 26.2315 203.502 26.2315C202.788 26.2315 202.175 26.3393 201.664 26.5547C201.154 26.7701 200.763 27.0625 200.492 27.4318C200.221 27.8011 200.083 28.2228 200.076 28.6967C200.076 29.0907 200.166 29.4323 200.344 29.7216C200.529 30.0109 200.778 30.2571 201.092 30.4602C201.406 30.6572 201.754 30.8234 202.135 30.9588C202.517 31.0942 202.902 31.2081 203.289 31.3004L205.062 31.7436C205.776 31.9098 206.463 32.1345 207.121 32.4176C207.786 32.7008 208.38 33.0578 208.903 33.4886C209.432 33.9195 209.851 34.4396 210.159 35.049C210.467 35.6584 210.62 36.3724 210.62 37.1911C210.62 38.299 210.337 39.2746 209.771 40.1179C209.205 40.955 208.386 41.6106 207.315 42.0845C206.25 42.5523 204.961 42.7862 203.446 42.7862C201.975 42.7862 200.698 42.5585 199.615 42.103C198.538 41.6475 197.694 40.9827 197.085 40.1087C196.482 39.2346 196.155 38.1697 196.106 36.9141H199.476C199.526 37.5727 199.729 38.1205 200.086 38.5575C200.443 38.9946 200.907 39.3208 201.48 39.5362C202.058 39.7517 202.705 39.8594 203.419 39.8594C204.164 39.8594 204.816 39.7486 205.376 39.527C205.942 39.2992 206.386 38.9853 206.706 38.5852C207.026 38.179 207.189 37.705 207.195 37.1634C207.189 36.6709 207.044 36.2647 206.761 35.9446C206.478 35.6184 206.081 35.3475 205.57 35.1321C205.065 34.9105 204.474 34.7135 203.797 34.5412L201.646 33.9872C200.089 33.5871 198.858 32.9808 197.953 32.1683C197.054 31.3497 196.605 30.2633 196.605 28.9091C196.605 27.795 196.906 26.8194 197.51 25.9822C198.119 25.1451 198.947 24.4957 199.993 24.0341C201.04 23.5663 202.225 23.3324 203.548 23.3324C204.89 23.3324 206.066 23.5663 207.075 24.0341C208.091 24.4957 208.888 25.139 209.466 25.9638C210.045 26.7824 210.343 27.7242 210.362 28.7891H207.066ZM223.951 28.7891C223.864 27.9827 223.501 27.3549 222.861 26.9055C222.227 26.4562 221.402 26.2315 220.387 26.2315C219.673 26.2315 219.06 26.3393 218.549 26.5547C218.038 26.7701 217.648 27.0625 217.377 27.4318C217.106 27.8011 216.967 28.2228 216.961 28.6967C216.961 29.0907 217.05 29.4323 217.229 29.7216C217.414 30.0109 217.663 30.2571 217.977 30.4602C218.291 30.6572 218.639 30.8234 219.02 30.9588C219.402 31.0942 219.786 31.2081 220.174 31.3004L221.947 31.7436C222.661 31.9098 223.347 32.1345 224.006 32.4176C224.671 32.7008 225.265 33.0578 225.788 33.4886C226.317 33.9195 226.736 34.4396 227.044 35.049C227.351 35.6584 227.505 36.3724 227.505 37.1911C227.505 38.299 227.222 39.2746 226.656 40.1179C226.09 40.955 225.271 41.6106 224.2 42.0845C223.135 42.5523 221.845 42.7862 220.331 42.7862C218.86 42.7862 217.583 42.5585 216.5 42.103C215.422 41.6475 214.579 40.9827 213.97 40.1087C213.366 39.2346 213.04 38.1697 212.991 36.9141H216.361C216.41 37.5727 216.613 38.1205 216.97 38.5575C217.327 38.9946 217.792 39.3208 218.365 39.5362C218.943 39.7517 219.59 39.8594 220.304 39.8594C221.048 39.8594 221.701 39.7486 222.261 39.527C222.827 39.2992 223.27 38.9853 223.59 38.5852C223.911 38.179 224.074 37.705 224.08 37.1634C224.074 36.6709 223.929 36.2647 223.646 35.9446C223.363 35.6184 222.966 35.3475 222.455 35.1321C221.95 34.9105 221.359 34.7135 220.682 34.5412L218.531 33.9872C216.974 33.5871 215.742 32.9808 214.838 32.1683C213.939 31.3497 213.49 30.2633 213.49 28.9091C213.49 27.795 213.791 26.8194 214.394 25.9822C215.004 25.1451 215.832 24.4957 216.878 24.0341C217.924 23.5663 219.109 23.3324 220.433 23.3324C221.775 23.3324 222.95 23.5663 223.96 24.0341C224.975 24.4957 225.773 25.139 226.351 25.9638C226.93 26.7824 227.228 27.7242 227.247 28.7891H223.951Z" fill="white"/>
<defs>
<clipPath id="clip0_85_1144">
<rect width="46.1823" height="46.1823" fill="white" transform="translate(10 9.90869)"/>
</clipPath>
</defs>
</svg>
