<svg width="163" height="66" viewBox="0 0 163 66" fill="none" xmlns="http://www.w3.org/2000/svg">
<rect x="0.5" width="162" height="66" rx="10" fill="black"/>
<g clip-path="url(#clip0_85_1164)">
<path d="M26.3815 30.2745L27.3628 13.6819C27.3706 13.5521 27.4214 13.4285 27.5071 13.3307C27.5928 13.2328 27.7085 13.1662 27.8362 13.1414L43.8059 10.0115C43.9045 9.99211 44.0065 9.99842 44.102 10.0298C44.1974 10.0612 44.2833 10.1165 44.3512 10.1906C44.4191 10.2647 44.4669 10.355 44.4899 10.4529C44.5128 10.5507 44.5103 10.6528 44.4825 10.7494L41.4963 21.1051C41.4686 21.2015 41.4661 21.3034 41.489 21.4011C41.5119 21.4987 41.5595 21.5889 41.6271 21.6629C41.6948 21.7369 41.7803 21.7924 41.8756 21.8239C41.9708 21.8555 42.0725 21.862 42.171 21.8431L46.748 20.9614C46.8557 20.9403 46.9671 20.9499 47.0696 20.989C47.1722 21.0282 47.2616 21.0953 47.3279 21.1827C47.3942 21.2702 47.4346 21.3745 47.4446 21.4837C47.4546 21.593 47.4337 21.7029 47.3843 21.8009L34.3701 47.7717L34.1344 48.1359C34.0837 48.2183 34.0126 48.2863 33.928 48.3333C33.8434 48.3803 33.7482 48.4047 33.6514 48.4042C33.3121 48.4042 32.9806 48.1129 33.0668 47.697L35.1656 37.5367C35.1862 37.4372 35.1805 37.334 35.1493 37.2373C35.118 37.1406 35.0621 37.0537 34.9871 36.9851C34.9122 36.9165 34.8206 36.8686 34.7215 36.846C34.6224 36.8234 34.5192 36.827 34.4219 36.8563L31.6753 37.6901C31.5781 37.7197 31.4748 37.7235 31.3756 37.7012C31.2764 37.6789 31.1848 37.6312 31.1096 37.5628C31.0344 37.4944 30.9783 37.4076 30.9468 37.311C30.9152 37.2143 30.9094 37.1112 30.9297 37.0116L32.2522 30.5428C32.2723 30.4462 32.2676 30.3462 32.2388 30.2518C32.2099 30.1575 32.1577 30.072 32.087 30.0032C32.0163 29.9344 31.9294 29.8846 31.8343 29.8583C31.7392 29.832 31.6391 29.8301 31.5431 29.8528L27.0964 30.8801C27.0076 30.9005 26.9154 30.9 26.8269 30.8785C26.7384 30.8571 26.6561 30.8153 26.5865 30.7565C26.517 30.6978 26.4621 30.6236 26.4261 30.5399C26.3902 30.4563 26.3743 30.3654 26.3796 30.2745H26.3815ZM55.0855 15.083L43.6276 17.1683L42.585 20.7851L46.5659 20.0184C46.8744 19.9569 47.1943 19.9918 47.4823 20.1183C47.7704 20.2448 48.0125 20.4568 48.1759 20.7256C48.3146 20.9492 48.3934 21.2047 48.4048 21.4675C48.4162 21.7303 48.3598 21.9917 48.2411 22.2264L35.225 48.1991L35.2001 48.2471L35.1713 48.2911L34.9375 48.6553C34.7993 48.8718 34.6089 49.0502 34.3839 49.1741C34.1589 49.298 33.9063 49.3635 33.6495 49.3645C33.4168 49.3632 33.1873 49.3107 32.9773 49.2106C32.7673 49.1106 32.5819 48.9655 32.4343 48.7856C32.2908 48.608 32.1887 48.4004 32.1357 48.1783C32.0826 47.9561 32.0799 47.7249 32.1276 47.5015L34.0999 37.9546L31.9532 38.6062C31.6596 38.6947 31.3463 38.6942 31.053 38.6048C30.7596 38.5155 30.4993 38.3412 30.3049 38.1041C30.1599 37.927 30.0563 37.7199 30.0016 37.4977C29.9469 37.2756 29.9425 37.044 29.9886 36.8199L31.1961 30.9166L27.3111 31.8136C27.0481 31.8738 26.7739 31.8643 26.5157 31.786C26.2575 31.7076 26.0243 31.5632 25.8391 31.367C25.6955 31.2134 25.5846 31.0323 25.5131 30.8347C25.4416 30.637 25.411 30.4268 25.4231 30.217L26.1687 17.6245L11.9087 15.0753C11.689 15.0357 11.4625 15.0595 11.2559 15.1441C11.0493 15.2287 10.8711 15.3705 10.7423 15.5529C10.6135 15.7352 10.5394 15.9506 10.5287 16.1736C10.5181 16.3966 10.5713 16.618 10.6821 16.8118L32.695 55.4077C32.7978 55.5884 32.9468 55.7385 33.1267 55.8426C33.3066 55.9468 33.5109 56.0012 33.7188 56.0005C33.9267 55.9997 34.1306 55.9437 34.3097 55.8382C34.4888 55.7327 34.6367 55.5815 34.7381 55.4001L56.3198 16.808C56.428 16.6138 56.4788 16.3929 56.4662 16.171C56.4537 15.9491 56.3784 15.7353 56.249 15.5545C56.1197 15.3737 55.9416 15.2334 55.7356 15.15C55.5296 15.0665 55.3042 15.0433 55.0855 15.083Z" fill="#DFB317"/>
</g>
<path d="M69.3373 23.5909L74.2584 38.4744H74.4523L79.3643 23.5909H83.1313L76.4651 42.5H72.2364L65.5795 23.5909H69.3373ZM85.4742 42.5V28.3182H88.8165V42.5H85.4742ZM87.1546 26.3054C86.6252 26.3054 86.1697 26.13 85.7881 25.7791C85.4065 25.4221 85.2156 24.9943 85.2156 24.4957C85.2156 23.991 85.4065 23.5632 85.7881 23.2124C86.1697 22.8553 86.6252 22.6768 87.1546 22.6768C87.6901 22.6768 88.1456 22.8553 88.521 23.2124C88.9027 23.5632 89.0935 23.991 89.0935 24.4957C89.0935 24.9943 88.9027 25.4221 88.521 25.7791C88.1456 26.13 87.6901 26.3054 87.1546 26.3054ZM99.3351 28.3182V30.9034H91.1824V28.3182H99.3351ZM93.1952 24.9205H96.5376V38.2344C96.5376 38.6837 96.6053 39.0284 96.7407 39.2685C96.8823 39.5024 97.0669 39.6624 97.2947 39.7486C97.5224 39.8348 97.7748 39.8778 98.0518 39.8778C98.261 39.8778 98.4519 39.8625 98.6242 39.8317C98.8027 39.8009 98.9381 39.7732 99.0305 39.7486L99.5937 42.3615C99.4152 42.4231 99.1597 42.4908 98.8273 42.5646C98.5011 42.6385 98.101 42.6816 97.627 42.6939C96.7899 42.7185 96.0359 42.5923 95.365 42.3153C94.694 42.0322 94.1616 41.5952 93.7677 41.0043C93.3799 40.4134 93.1891 39.6747 93.1952 38.7884V24.9205ZM108.256 42.777C106.835 42.777 105.607 42.4815 104.573 41.8906C103.545 41.2936 102.754 40.4503 102.2 39.3608C101.646 38.2652 101.369 36.9756 101.369 35.4922C101.369 34.0334 101.646 32.7531 102.2 31.6513C102.76 30.5433 103.542 29.6816 104.545 29.0661C105.548 28.4444 106.727 28.1335 108.081 28.1335C108.955 28.1335 109.78 28.2751 110.555 28.5582C111.337 28.8352 112.027 29.2661 112.624 29.8509C113.227 30.4356 113.701 31.1804 114.046 32.0852C114.39 32.9839 114.563 34.0549 114.563 35.2983V36.3232H102.938V34.0703H111.359C111.353 33.4302 111.214 32.8608 110.943 32.3622C110.672 31.8575 110.294 31.4605 109.808 31.1712C109.328 30.8819 108.767 30.7372 108.127 30.7372C107.444 30.7372 106.844 30.9034 106.327 31.2358C105.81 31.562 105.407 31.9929 105.117 32.5284C104.834 33.0578 104.689 33.6394 104.683 34.2734V36.2401C104.683 37.0649 104.834 37.7727 105.136 38.3636C105.437 38.9484 105.859 39.3977 106.401 39.7116C106.942 40.0194 107.576 40.1733 108.303 40.1733C108.789 40.1733 109.229 40.1056 109.623 39.9702C110.017 39.8286 110.359 39.6224 110.648 39.3516C110.937 39.0807 111.156 38.7453 111.303 38.3452L114.424 38.696C114.227 39.5208 113.852 40.241 113.298 40.8565C112.75 41.4659 112.048 41.9399 111.193 42.2784C110.337 42.6108 109.358 42.777 108.256 42.777ZM119.449 42.7031C118.889 42.7031 118.409 42.5062 118.009 42.1122C117.609 41.7183 117.412 41.2382 117.418 40.6719C117.412 40.1179 117.609 39.6439 118.009 39.25C118.409 38.8561 118.889 38.6591 119.449 38.6591C119.991 38.6591 120.462 38.8561 120.862 39.25C121.268 39.6439 121.474 40.1179 121.48 40.6719C121.474 41.0473 121.376 41.389 121.185 41.6967C121 42.0045 120.754 42.2507 120.446 42.4354C120.145 42.6139 119.812 42.7031 119.449 42.7031ZM132.539 23.5909H135.937V36.8864C135.931 38.1051 135.672 39.1546 135.161 40.0348C134.65 40.9089 133.936 41.5829 133.019 42.0568C132.108 42.5246 131.046 42.7585 129.834 42.7585C128.726 42.7585 127.729 42.5616 126.842 42.1676C125.962 41.7675 125.264 41.1766 124.747 40.3949C124.229 39.6132 123.971 38.6406 123.971 37.4773H127.378C127.384 37.9882 127.495 38.4283 127.71 38.7976C127.932 39.1669 128.237 39.45 128.624 39.647C129.012 39.844 129.458 39.9425 129.963 39.9425C130.511 39.9425 130.976 39.8286 131.357 39.6009C131.739 39.367 132.028 39.0223 132.225 38.5668C132.428 38.1113 132.533 37.5511 132.539 36.8864V23.5909ZM150.714 32.0668L147.667 32.3991C147.581 32.0914 147.43 31.8021 147.215 31.5312C147.006 31.2604 146.723 31.0419 146.366 30.8757C146.008 30.7095 145.571 30.6264 145.054 30.6264C144.359 30.6264 143.774 30.7772 143.3 31.0788C142.832 31.3804 142.602 31.7713 142.608 32.2514C142.602 32.6638 142.752 32.9993 143.06 33.2578C143.374 33.5163 143.891 33.7287 144.611 33.8949L147.03 34.4119C148.372 34.7012 149.369 35.1598 150.022 35.7876C150.68 36.4155 151.013 37.2372 151.019 38.2528C151.013 39.1454 150.751 39.9332 150.234 40.6165C149.723 41.2936 149.012 41.8229 148.101 42.2045C147.19 42.5862 146.144 42.777 144.962 42.777C143.226 42.777 141.829 42.4138 140.77 41.6875C139.712 40.955 139.081 39.9363 138.878 38.6314L142.137 38.3175C142.285 38.9576 142.598 39.4408 143.079 39.767C143.559 40.0933 144.183 40.2564 144.953 40.2564C145.747 40.2564 146.384 40.0933 146.864 39.767C147.35 39.4408 147.593 39.0376 147.593 38.5575C147.593 38.1513 147.437 37.8158 147.123 37.5511C146.815 37.2865 146.335 37.0833 145.682 36.9418L143.263 36.4339C141.903 36.1508 140.897 35.6738 140.244 35.0028C139.592 34.3258 139.268 33.4702 139.275 32.4361C139.268 31.562 139.505 30.8049 139.986 30.1648C140.472 29.5185 141.146 29.0199 142.008 28.669C142.875 28.312 143.876 28.1335 145.008 28.1335C146.67 28.1335 147.978 28.4875 148.932 29.1953C149.892 29.9032 150.486 30.8603 150.714 32.0668Z" fill="white"/>
<defs>
<clipPath id="clip0_85_1164">
<rect width="46" height="46" fill="white" transform="translate(10.5 10)"/>
</clipPath>
</defs>
</svg>
