<svg width="126" height="66" viewBox="0 0 126 66" fill="none" xmlns="http://www.w3.org/2000/svg">
<rect x="0.5" width="125" height="66" rx="10" fill="#007ACC"/>
<path d="M15.014 23.5909L19.9352 38.4744H20.1291L25.041 23.5909H28.8081L22.1419 42.5H17.9132L11.2562 23.5909H15.014ZM41.5749 28.7891C41.4888 27.9827 41.1256 27.3549 40.4854 26.9055C39.8514 26.4562 39.0266 26.2315 38.011 26.2315C37.297 26.2315 36.6845 26.3393 36.1737 26.5547C35.6628 26.7701 35.2719 27.0625 35.0011 27.4318C34.7302 27.8011 34.5917 28.2228 34.5856 28.6967C34.5856 29.0907 34.6748 29.4323 34.8533 29.7216C35.038 30.0109 35.2873 30.2571 35.6012 30.4602C35.9151 30.6572 36.2629 30.8234 36.6445 30.9588C37.0262 31.0942 37.4109 31.2081 37.7987 31.3004L39.5714 31.7436C40.2854 31.9098 40.9717 32.1345 41.6303 32.4176C42.2951 32.7008 42.8891 33.0578 43.4123 33.4886C43.9416 33.9195 44.3602 34.4396 44.668 35.049C44.9757 35.6584 45.1296 36.3724 45.1296 37.1911C45.1296 38.299 44.8465 39.2746 44.2802 40.1179C43.7139 40.955 42.8952 41.6106 41.8242 42.0845C40.7594 42.5523 39.4698 42.7862 37.9556 42.7862C36.4845 42.7862 35.2073 42.5585 34.1239 42.103C33.0468 41.6475 32.2035 40.9827 31.5941 40.1087C30.9909 39.2346 30.6647 38.1697 30.6154 36.9141H33.9854C34.0347 37.5727 34.2378 38.1205 34.5948 38.5575C34.9518 38.9946 35.4165 39.3208 35.989 39.5362C36.5676 39.7517 37.2139 39.8594 37.9279 39.8594C38.6727 39.8594 39.3252 39.7486 39.8853 39.527C40.4516 39.2992 40.8948 38.9853 41.2148 38.5852C41.5349 38.179 41.698 37.705 41.7042 37.1634C41.698 36.6709 41.5534 36.2647 41.2702 35.9446C40.9871 35.6184 40.5901 35.3475 40.0792 35.1321C39.5745 34.9105 38.9835 34.7135 38.3065 34.5412L36.1552 33.9872C34.5979 33.5871 33.3668 32.9808 32.462 32.1683C31.5633 31.3497 31.114 30.2633 31.114 28.9091C31.114 27.795 31.4156 26.8194 32.0188 25.9822C32.6282 25.1451 33.4561 24.4957 34.5025 24.0341C35.5489 23.5663 36.7338 23.3324 38.0572 23.3324C39.399 23.3324 40.5747 23.5663 41.5842 24.0341C42.5998 24.4957 43.3969 25.139 43.9755 25.9638C44.5541 26.7824 44.8526 27.7242 44.8711 28.7891H41.5749ZM60.671 42.777C59.2553 42.777 58.0396 42.4661 57.024 41.8445C56.0145 41.2228 55.2359 40.3641 54.688 39.2685C54.1464 38.1667 53.8755 36.8987 53.8755 35.4645C53.8755 34.0241 54.1525 32.7531 54.7065 31.6513C55.2605 30.5433 56.0422 29.6816 57.0517 29.0661C58.0673 28.4444 59.2676 28.1335 60.6525 28.1335C61.8036 28.1335 62.8223 28.3459 63.7086 28.7706C64.6011 29.1892 65.3121 29.7831 65.8414 30.5526C66.3708 31.3158 66.6724 32.2083 66.7463 33.2301H63.5517C63.4224 32.5469 63.1146 31.9775 62.6284 31.522C62.1483 31.0604 61.505 30.8295 60.6987 30.8295C60.0154 30.8295 59.4153 31.0142 58.8983 31.3835C58.3812 31.7467 57.978 32.2699 57.6887 32.9531C57.4056 33.6364 57.264 34.455 57.264 35.4091C57.264 36.3755 57.4056 37.2064 57.6887 37.902C57.9719 38.5914 58.3689 39.1238 58.8798 39.4993C59.3968 39.8686 60.0031 40.0533 60.6987 40.0533C61.1911 40.0533 61.6312 39.9609 62.019 39.7763C62.4129 39.5855 62.7422 39.3116 63.0069 38.9545C63.2716 38.5975 63.4532 38.1636 63.5517 37.6527H66.7463C66.6663 38.656 66.3708 39.5455 65.8599 40.321C65.349 41.0904 64.6535 41.6937 63.7733 42.1307C62.8931 42.5616 61.859 42.777 60.671 42.777ZM75.6768 42.777C74.2919 42.777 73.0916 42.4723 72.076 41.8629C71.0604 41.2536 70.2725 40.401 69.7124 39.3054C69.1584 38.2098 68.8814 36.9295 68.8814 35.4645C68.8814 33.9995 69.1584 32.7161 69.7124 31.6143C70.2725 30.5125 71.0604 29.657 72.076 29.0476C73.0916 28.4382 74.2919 28.1335 75.6768 28.1335C77.0618 28.1335 78.2621 28.4382 79.2777 29.0476C80.2933 29.657 81.0781 30.5125 81.6321 31.6143C82.1922 32.7161 82.4723 33.9995 82.4723 35.4645C82.4723 36.9295 82.1922 38.2098 81.6321 39.3054C81.0781 40.401 80.2933 41.2536 79.2777 41.8629C78.2621 42.4723 77.0618 42.777 75.6768 42.777ZM75.6953 40.0994C76.4463 40.0994 77.0741 39.8932 77.5788 39.4808C78.0836 39.0623 78.459 38.5021 78.7053 37.8004C78.9576 37.0987 79.0838 36.317 79.0838 35.4553C79.0838 34.5874 78.9576 33.8026 78.7053 33.1009C78.459 32.393 78.0836 31.8298 77.5788 31.4112C77.0741 30.9927 76.4463 30.7834 75.6953 30.7834C74.9259 30.7834 74.2857 30.9927 73.7749 31.4112C73.2701 31.8298 72.8916 32.393 72.6392 33.1009C72.393 33.8026 72.2699 34.5874 72.2699 35.4553C72.2699 36.317 72.393 37.0987 72.6392 37.8004C72.8916 38.5021 73.2701 39.0623 73.7749 39.4808C74.2857 39.8932 74.9259 40.0994 75.6953 40.0994ZM90.5719 42.7493C89.4578 42.7493 88.4606 42.4631 87.5804 41.8906C86.7002 41.3182 86.0047 40.4872 85.4938 39.3977C84.9829 38.3082 84.7275 36.9848 84.7275 35.4276C84.7275 33.8518 84.986 32.5223 85.503 31.4389C86.0262 30.3494 86.731 29.5277 87.6174 28.9737C88.5037 28.4136 89.4917 28.1335 90.5811 28.1335C91.4121 28.1335 92.0953 28.2751 92.6309 28.5582C93.1664 28.8352 93.5911 29.1707 93.905 29.5646C94.2189 29.9524 94.4621 30.3187 94.6344 30.6634H94.7729V23.5909H98.1245V42.5H94.8375V40.2656H94.6344C94.4621 40.6103 94.2128 40.9766 93.8865 41.3643C93.5603 41.746 93.1294 42.0722 92.5939 42.343C92.0584 42.6139 91.3844 42.7493 90.5719 42.7493ZM91.5044 40.0071C92.2123 40.0071 92.8155 39.8163 93.3141 39.4347C93.8127 39.0469 94.1912 38.5083 94.4498 37.8189C94.7083 37.1295 94.8375 36.3262 94.8375 35.4091C94.8375 34.492 94.7083 33.6948 94.4498 33.0178C94.1974 32.3407 93.8219 31.8144 93.3233 31.4389C92.8309 31.0634 92.2246 30.8757 91.5044 30.8757C90.7596 30.8757 90.138 31.0696 89.6394 31.4574C89.1408 31.8452 88.7653 32.3807 88.513 33.0639C88.2606 33.7472 88.1344 34.5289 88.1344 35.4091C88.1344 36.2955 88.2606 37.0864 88.513 37.782C88.7715 38.4714 89.15 39.0161 89.6486 39.4162C90.1534 39.8101 90.772 40.0071 91.5044 40.0071ZM107.964 42.777C106.543 42.777 105.315 42.4815 104.281 41.8906C103.253 41.2936 102.462 40.4503 101.908 39.3608C101.354 38.2652 101.077 36.9756 101.077 35.4922C101.077 34.0334 101.354 32.7531 101.908 31.6513C102.468 30.5433 103.25 29.6816 104.253 29.0661C105.256 28.4444 106.435 28.1335 107.789 28.1335C108.663 28.1335 109.488 28.2751 110.263 28.5582C111.045 28.8352 111.735 29.2661 112.332 29.8509C112.935 30.4356 113.409 31.1804 113.754 32.0852C114.098 32.9839 114.271 34.0549 114.271 35.2983V36.3232H102.646V34.0703H111.067C111.061 33.4302 110.922 32.8608 110.651 32.3622C110.38 31.8575 110.002 31.4605 109.516 31.1712C109.036 30.8819 108.475 30.7372 107.835 30.7372C107.152 30.7372 106.552 30.9034 106.035 31.2358C105.518 31.562 105.115 31.9929 104.825 32.5284C104.542 33.0578 104.397 33.6394 104.391 34.2734V36.2401C104.391 37.0649 104.542 37.7727 104.844 38.3636C105.145 38.9484 105.567 39.3977 106.109 39.7116C106.65 40.0194 107.284 40.1733 108.011 40.1733C108.497 40.1733 108.937 40.1056 109.331 39.9702C109.725 39.8286 110.067 39.6224 110.356 39.3516C110.645 39.0807 110.864 38.7453 111.011 38.3452L114.132 38.696C113.935 39.5208 113.56 40.241 113.006 40.8565C112.458 41.4659 111.756 41.9399 110.901 42.2784C110.045 42.6108 109.066 42.777 107.964 42.777Z" fill="white"/>
</svg>
